<svg width="311" height="242" viewBox="0 0 311 242" fill="none" xmlns="http://www.w3.org/2000/svg">
<path d="M115.019 212.224C106.74 212.224 99.5371 211.672 93.2218 210.576C78.5027 208.022 70.0315 202.744 61.2453 196.619C47.7891 187.24 33.9293 176.764 23.7163 163.725C12.4729 149.372 7.24127 133.479 8.98513 118.975C10.9924 102.278 19.599 85.1507 34.5678 68.0659C41.7456 59.8728 51.035 54.71 60.0188 49.7166C67.3899 45.6198 75.0113 41.3837 81.6433 35.4439C102.754 16.5362 138.42 -7.26347 204.142 4.30547C223.921 7.78723 241.536 17.3688 252.887 30.5268C261.912 34.4546 268.139 43.3242 273.355 51.5848C277.92 58.8152 280.538 66.0461 283.07 73.0391C286.736 83.1619 290.526 93.6293 300.292 104.601C301.046 105.448 301.823 106.314 302.616 107.196C310.552 116.026 320.429 127.015 322.391 138.102C324.793 151.673 319.992 164.787 310.16 171.512C303.491 176.074 294.052 178.156 282.879 177.538C277.257 177.226 271.62 176.324 266.169 175.452C262.413 174.851 258.53 174.23 254.688 173.808C233.399 171.466 211.186 175.128 192.139 184.118C180.06 189.819 179.658 194.544 179.334 198.341C178.981 202.494 178.701 205.773 163.981 207.93C144.373 210.802 128.31 212.224 115.019 212.224ZM171.082 1.75582C126.067 1.75582 99.1963 20.4045 82.0073 35.8004C75.3322 41.7791 67.6839 46.03 60.2875 50.141C50.9312 55.3413 42.0944 60.253 34.9751 68.3791C20.0721 85.3885 11.504 102.43 9.50882 119.03C7.77971 133.412 12.9765 149.181 24.1415 163.435C34.3134 176.421 48.1373 186.869 61.5604 196.226C80.3304 209.308 97.5941 217.158 163.898 207.443C178.208 205.347 178.46 202.392 178.808 198.302C179.142 194.383 179.557 189.505 191.9 183.679C211.04 174.645 233.359 170.966 254.749 173.319C258.605 173.743 262.495 174.365 266.257 174.967C271.694 175.838 277.317 176.737 282.909 177.047C293.968 177.659 303.279 175.609 309.849 171.115C319.521 164.5 324.241 151.573 321.871 138.184C319.932 127.229 310.107 116.297 302.212 107.514C301.419 106.631 300.641 105.765 299.886 104.917C290.059 93.8755 286.252 83.3638 282.572 73.1987C280.048 66.2297 277.438 59.023 272.901 51.8364C267.691 43.5857 261.929 35.3661 253.616 31.389C255.253 33.3556 256.752 35.4001 258.098 37.5125L257.645 37.7646C256.128 35.3843 254.418 33.0932 252.532 30.901C250.998 30.253 249.38 29.7478 247.663 29.41L247.771 28.9279C249.183 29.2057 250.533 29.6001 251.827 30.0954C240.538 17.4092 223.328 8.18608 204.045 4.79147C192.093 2.68646 181.131 1.75582 171.082 1.75582Z" fill="#EDF6FB"/>
<path d="M24.7447 151.854C14.2136 130.67 15.0165 105.5 24.8117 84.0485C35.2417 61.2061 56.8914 43.3945 81.1101 30.8885C123.758 8.86589 176.543 1.70196 224.328 13.0907C236.661 16.0298 248.791 20.229 258.944 27.0207C269.097 33.8119 277.168 43.4201 279.617 54.3917C281.313 61.9895 280.289 69.863 281.464 77.5355C286.125 107.988 318.812 122.165 318.377 152.886C318.104 172.083 303.11 185.523 282.117 197.457C263.711 207.921 74.6726 252.28 24.7447 151.854Z" fill="#EDF6FB"/>
<path d="M297.656 192.308C297.007 192.872 296.368 193.427 295.742 193.971C293.334 196.07 291.116 198.03 289.338 199.785C273.259 215.651 267.343 244.258 267.343 244.258H257.883C257.883 244.258 258.317 240.356 259.586 234.291C261.783 223.77 266.476 206.451 275.731 190.14C276.075 189.531 276.426 188.929 276.783 188.324C281.528 180.303 287.406 172.602 294.671 166.163C295.379 165.535 296.376 164.831 297.567 164.134C297.924 163.926 298.297 163.719 298.686 163.514C304.173 160.622 312.551 158.352 316.151 163.27C316.209 163.348 316.265 163.43 316.32 163.512C321.547 171.357 308.45 182.924 297.656 192.308Z" fill="#D7E8F3"/>
<path d="M304.662 129.137C304.516 129.484 304.363 129.837 304.203 130.195C301.48 136.294 296.747 143.849 289.476 153.094C281.77 162.878 273.559 181.726 268.128 203.888C268.126 203.9 268.121 203.912 268.119 203.923C267.896 204.834 267.679 205.748 267.466 206.669C267.453 206.722 267.441 206.774 267.429 206.827C265.399 215.622 263.817 224.887 262.882 234.275C262.58 237.306 262.348 241.23 262.187 244.258C262.177 244.514 262.158 243.993 262.148 244.258H247.781C246.802 228.433 248.351 171.674 261.877 141.05C262.035 140.687 262.198 140.327 262.363 139.972C263.037 138.519 263.747 137.13 264.498 135.812C283.344 102.681 298.782 107.156 303.523 110.714C303.684 110.833 303.83 110.949 303.966 111.067C303.978 111.078 303.992 111.09 304.005 111.102C307.635 114.255 308.511 119.975 304.662 129.137Z" fill="#D7E8F3"/>
<path d="M290.486 232.66C287.218 237.15 283.569 241.406 280.908 244.259H265.781C265.86 244.094 277.431 206.657 293.847 209.475C301.849 210.848 296.836 223.936 290.486 232.66Z" fill="#D7E8F3"/>
<path d="M304.005 111.102C295.876 117.29 289.13 124.702 283.536 132.838C283.406 133.026 283.279 133.213 283.151 133.402C266.644 157.736 260.305 188.408 258.027 212.251C258.008 212.45 257.989 212.649 257.97 212.848C256.714 226.314 256.752 237.665 256.962 244.259H256.685H256.337C256.026 234.518 255.986 208.897 262.315 181.928C264.303 173.464 266.759 165.502 269.659 158.111C269.737 157.91 269.816 157.709 269.895 157.51C271.934 152.375 274.19 147.519 276.652 142.97C283.836 129.691 292.875 118.842 303.523 110.714C303.684 110.833 303.83 110.95 303.966 111.067C303.978 111.079 303.993 111.091 304.005 111.102Z" fill="#AECEEA"/>
<path d="M304.661 129.137C304.515 129.484 304.362 129.837 304.202 130.195C299.73 133.035 291.972 133.523 287.171 133.523C285.157 133.523 283.663 133.437 283.15 133.401C283.065 133.395 283.006 133.392 282.977 133.39L283.029 132.807C283.046 132.809 283.223 132.82 283.534 132.838C286.252 132.98 299.248 133.421 304.661 129.137Z" fill="#AECEEA"/>
<path d="M270.303 157.872L269.881 158.305C269.807 158.241 269.731 158.177 269.658 158.11C264.164 153.25 262.372 144.41 261.875 141.05C262.034 140.687 262.196 140.327 262.361 139.972C262.58 141.883 263.995 152.098 269.894 157.509C270.027 157.635 270.163 157.754 270.303 157.872Z" fill="#AECEEA"/>
<path d="M267.429 206.828C264.263 211.963 258.761 212.76 257.97 212.848C257.912 212.856 257.879 212.858 257.874 212.858L257.824 212.275C257.831 212.275 257.901 212.269 258.027 212.251C259.256 212.089 265.724 210.903 268.128 203.889L267.429 206.828Z" fill="#AECEEA"/>
<path d="M295.008 209.79C292.047 211.892 289.12 215.133 286.359 218.899C286.23 219.075 286.103 219.25 285.975 219.428C282.161 224.722 278.681 230.976 275.889 236.546C275.797 236.729 275.705 236.909 275.618 237.09C274.338 239.656 273.213 242.176 272.273 244.259C272.256 244.296 272.239 244.222 272.222 244.259H271.934H271.645C274.067 238.878 277.75 231.074 282.079 224.153C282.238 223.901 282.396 223.65 282.555 223.4C286.159 217.744 290.184 212.604 294.292 209.567C294.547 209.628 294.785 209.702 295.008 209.79Z" fill="#AECEEA"/>
<path d="M289.475 234.026C289.08 234.549 288.684 235.064 288.286 235.571C285.609 237.094 282.494 237.486 280 237.486C277.872 237.486 276.192 237.201 275.623 237.09C275.493 237.065 275.422 237.049 275.414 237.047L275.562 236.48C275.573 236.481 275.69 236.507 275.894 236.546C277.525 236.846 284.797 237.904 289.475 234.026Z" fill="#AECEEA"/>
<path d="M297.964 215.339C297.952 215.719 297.921 216.111 297.869 216.515C295.638 219.148 291.899 219.688 289.201 219.688C287.465 219.688 286.161 219.463 285.975 219.428C285.954 219.424 286.081 218.853 286.081 218.853C286.09 218.855 286.188 218.873 286.359 218.9C287.872 219.128 295.125 219.963 297.964 215.339Z" fill="#AECEEA"/>
<path d="M282.551 223.4C282.629 223.798 282.687 224.028 282.691 224.042L282.084 224.184C282.081 224.176 282.079 224.167 282.075 224.153C281.933 223.607 280.552 217.883 283.204 213.096C283.705 212.669 284.216 212.271 284.736 211.906C281.512 215.959 282.201 221.526 282.551 223.398C282.553 223.398 282.551 223.4 282.551 223.4Z" fill="#AECEEA"/>
<path d="M141.62 244.411H131.426C129.859 234.513 126.327 219.974 118.5 209.383C117.062 207.437 115.231 205.23 113.24 202.862C112.719 202.25 112.193 201.622 111.651 200.985C102.719 190.399 91.9025 177.375 98.2152 170.523V170.518C98.2905 170.447 98.3495 170.377 98.419 170.312C102.687 166.058 110.427 169.429 115.269 172.991C115.612 173.247 115.94 173.498 116.251 173.748C117.293 174.591 118.146 175.409 118.731 176.116C124.727 183.361 129.177 191.633 132.478 200.052C132.725 200.689 132.972 201.321 133.203 201.959C139.059 217.732 141.013 233.791 141.62 244.411Z" fill="#D7E8F3"/>
<path d="M111.514 232.534C114.712 236.929 118.284 241.093 120.888 243.886H135.692C135.615 243.725 124.291 207.085 108.224 209.843C100.393 211.187 105.299 223.997 111.514 232.534Z" fill="#D7E8F3"/>
<path d="M107.086 210.15C109.984 212.207 112.849 215.38 115.551 219.065C115.677 219.237 115.802 219.409 115.926 219.582C119.66 224.764 123.066 230.885 125.798 236.336C125.888 236.515 125.978 236.691 126.064 236.868C127.315 239.38 128.416 241.846 129.337 243.885C129.353 243.921 129.369 243.848 129.386 243.885H129.668H129.952C127.581 238.619 123.976 230.98 119.739 224.207C119.583 223.961 119.428 223.714 119.273 223.47C115.746 217.935 111.807 212.904 107.786 209.933C107.537 209.992 107.304 210.065 107.086 210.15Z" fill="#AECEEA"/>
<path d="M112.504 233.871C112.89 234.383 113.278 234.886 113.668 235.383C116.288 236.873 119.337 237.257 121.777 237.257C123.86 237.257 125.504 236.978 126.061 236.869C126.188 236.845 126.257 236.829 126.266 236.827L126.121 236.272C126.111 236.274 125.996 236.299 125.796 236.337C124.199 236.631 117.082 237.666 112.504 233.871Z" fill="#AECEEA"/>
<path d="M104.191 215.581C104.204 215.953 104.234 216.337 104.285 216.732C106.468 219.309 110.128 219.837 112.768 219.837C114.467 219.837 115.744 219.618 115.925 219.583C115.946 219.579 115.821 219.02 115.821 219.02C115.813 219.022 115.717 219.04 115.55 219.066C114.069 219.289 106.971 220.106 104.191 215.581Z" fill="#AECEEA"/>
<path d="M119.271 223.471C119.196 223.861 119.139 224.086 119.134 224.099L119.729 224.238C119.731 224.23 119.733 224.221 119.736 224.208C119.876 223.673 121.227 218.071 118.632 213.386C118.142 212.968 117.641 212.578 117.133 212.222C120.288 216.188 119.614 221.637 119.271 223.469C119.269 223.469 119.271 223.471 119.271 223.471Z" fill="#AECEEA"/>
<path d="M135.84 244.411H135.255C133.247 229.455 130.037 216.522 125.651 205.645C125.576 205.454 125.496 205.264 125.415 205.073C118.861 189.074 109.714 177.591 98.0391 170.768L98.2056 170.522V170.517L98.3668 170.286C98.3831 170.296 98.3936 170.301 98.4094 170.311C104.744 174.019 110.364 179.091 115.216 185.462C115.361 185.653 115.506 185.844 115.651 186.039C118.883 190.374 121.77 195.296 124.293 200.784C125.899 204.266 127.364 208.013 128.69 212.017C128.765 212.227 128.835 212.433 128.899 212.643C131.943 221.94 134.257 232.581 135.84 244.411Z" fill="#AECEEA"/>
<path d="M111.652 200.987C112.188 201.621 112.717 202.248 113.234 202.862C115.65 204.299 118.459 205.003 120.814 205.344C123.159 205.683 125.056 205.663 125.67 205.643C125.774 205.641 125.84 205.639 125.868 205.637L125.835 205.064C125.824 205.065 125.684 205.072 125.438 205.075C123.627 205.096 116.057 204.935 111.652 200.987Z" fill="#AECEEA"/>
<path d="M115.222 185.464C115.131 185.716 115.071 185.858 115.066 185.868L115.634 186.082C115.638 186.073 115.644 186.059 115.654 186.039C115.924 185.394 118.34 179.345 116.248 173.749C115.937 173.497 115.609 173.245 115.266 172.992C117.666 178.01 115.803 183.891 115.222 185.464Z" fill="#AECEEA"/>
<path d="M128.363 212.333L128.769 212.763C128.774 212.758 128.827 212.715 128.915 212.633C129.68 211.919 133.22 208.275 133.201 201.957C132.965 201.32 132.723 200.688 132.475 200.054C133.254 206.812 129.827 210.878 128.708 212.008C128.5 212.218 128.371 212.327 128.363 212.333Z" fill="#AECEEA"/>
<path d="M263.308 244.259H262.699C268.428 221.998 275.904 203.708 284.92 190.255C293.717 177.13 304.242 168.045 316.204 163.25L316.45 163.788C292.445 173.41 274.564 200.514 263.308 244.259Z" fill="#AECEEA"/>
<path d="M297.663 192.311C297.016 192.872 296.377 193.428 295.751 193.972C293.072 195.07 290.118 195.37 287.683 195.37C285.258 195.37 283.347 195.072 282.729 194.963C282.625 194.945 282.558 194.934 282.531 194.928L282.66 194.355C282.671 194.356 282.81 194.384 283.059 194.423C284.885 194.709 292.555 195.653 297.663 192.311Z" fill="#AECEEA"/>
<path d="M296.65 176.114C296.7 176.381 296.737 176.533 296.739 176.545L296.13 176.678C296.128 176.668 296.124 176.652 296.118 176.631C295.953 175.94 294.525 169.48 297.574 164.134C297.93 163.925 298.304 163.719 298.692 163.514C295.429 168.23 296.326 174.441 296.65 176.114Z" fill="#AECEEA"/>
<path d="M278.886 201.324L278.404 201.698C278.4 201.692 278.354 201.642 278.278 201.546C277.625 200.713 274.661 196.517 275.737 190.14C276.081 189.531 276.432 188.929 276.789 188.324C274.871 195.035 277.65 199.641 278.591 200.946C278.767 201.188 278.88 201.317 278.886 201.324Z" fill="#AECEEA"/>
<path d="M254.371 36.513V238.934C254.371 241.76 251.924 244.053 248.893 244.053H142.435C139.411 244.053 136.957 241.76 136.957 238.934V36.513C136.957 33.6808 139.411 31.3936 142.435 31.3936H248.893C251.924 31.3936 254.371 33.6808 254.371 36.513Z" fill="#363347"/>
<path d="M250.484 36.513V238.934C250.484 241.76 248.037 244.053 245.007 244.053H138.548C135.524 244.053 133.07 241.76 133.07 238.934V36.513C133.07 33.6808 135.524 31.3936 138.548 31.3936H245.007C248.037 31.3936 250.484 33.6808 250.484 36.513Z" fill="#516A96"/>
<path d="M237.636 225.046H145.911C141.861 225.046 138.566 221.794 138.566 217.796V54.0108C138.566 50.0135 141.861 46.7617 145.911 46.7617H237.636C241.686 46.7617 244.98 50.0135 244.98 54.0108V217.796C244.98 221.794 241.686 225.046 237.636 225.046Z" fill="#EEF6FB"/>
<g opacity="0.77">
<path d="M197.508 46.7598L154.634 225.045C154.634 225.045 145.37 225.03 145.102 225.004L187.975 46.7598H197.508Z" fill="white"/>
</g>
<g opacity="0.77">
<path d="M235.702 46.7598L190.085 225.045H170.922L216.543 46.7598H235.702Z" fill="white"/>
</g>
<path d="M237.641 225.292H178.831V224.799H237.641C241.545 224.799 244.722 221.658 244.722 217.796V172.984H245.249V217.796C245.249 221.929 241.836 225.292 237.641 225.292ZM168.078 225.292H152.238V224.799H168.078V225.292Z" fill="#2D313D"/>
<path d="M18.4378 239.401L17.5664 229.874H25.0403L24.5877 239.401H18.4378Z" fill="#F0AB8F"/>
<path d="M17.5938 230.025L18.0906 235.388C20.7232 235.545 23.2658 235.242 24.8068 234.994L25.075 229.456L17.5938 230.025Z" fill="#E09B82"/>
<path d="M16.7422 243.023L35.8246 242.907C35.6413 241.061 33.1625 240.193 30.848 239.642C30.6921 239.605 30.5398 239.572 30.3875 239.536C30.0556 239.463 29.7316 239.397 29.4234 239.331C29.2633 239.298 29.1073 239.266 28.9587 239.236C28.1585 239.069 27.4952 238.926 27.1127 238.758C26.7692 238.605 26.3514 238.383 25.9884 238.178C25.8635 238.109 25.7502 238.04 25.6449 237.978C25.3014 237.777 25.0553 237.624 25.0553 237.624C23.8062 238.007 21.9248 239.105 17.7954 237.357L17.6705 238.029L17.6004 238.408L16.7422 243.023Z" fill="#2D313D"/>
<path d="M30.3828 239.536C30.6715 240.16 30.7031 240.831 30.7031 240.839L31.0935 240.824C31.0898 240.787 31.0661 240.24 30.8438 239.642C30.6873 239.605 30.5351 239.573 30.3828 239.536Z" fill="#2D313D"/>
<path d="M28.957 239.237C29.2768 239.883 29.3084 240.598 29.3084 240.605L29.6988 240.594C29.6988 240.554 29.6714 239.96 29.4217 239.332C29.2616 239.299 29.1056 239.267 28.957 239.237Z" fill="#2D313D"/>
<path d="M17.5938 238.409C19.2955 239.201 20.7511 239.474 21.9576 239.474C24.1862 239.474 25.5486 238.533 25.9817 238.179C25.8568 238.109 25.7436 238.041 25.6382 237.979C24.9122 238.559 22.2542 240.215 17.6643 238.03L17.5938 238.409Z" fill="#2D313D"/>
<path d="M30.9554 232.996C23.8872 234.033 17.319 234.465 12.3245 232.996C12.3245 232.996 8.09814 188.718 15.5899 148.034L30.5735 148.095C30.5735 148.095 36.3361 196.989 30.9554 232.996Z" fill="#DF6659"/>
<path d="M32.4155 107.657C35.2199 107.44 37.0691 106.604 37.9137 105.172C39.1728 103.035 37.724 100.395 37.6624 100.283L37.3041 100.458C37.3183 100.484 38.7139 103.034 37.5591 104.992C36.7841 106.305 35.0423 107.076 32.3828 107.281L32.4155 107.657Z" fill="#2D313D"/>
<path d="M62.2132 239.401L59 229.874H66.4739L68.7535 239.401H62.2132Z" fill="#F0AB8F"/>
<path d="M58.9844 229.792L60.7562 235.031C64.1206 235.593 66.7122 235.06 67.6336 234.819L66.3613 229.497H63.6918L58.9844 229.792Z" fill="#E09B82"/>
<path d="M22.6809 119.886C22.6809 119.886 2.51056 123.342 4.3266 141.988C5.08157 149.739 11.35 155.097 11.35 155.097L13.6518 148.544L21.72 151.08L22.6809 119.886Z" fill="#AECEEA"/>
<path d="M32.4296 122.3L32.7046 112.078L26.3677 111.153L23.1992 120.953L32.4296 122.3Z" fill="#F0AB8F"/>
<path d="M30.2208 115.678C26.3906 114.041 22.5241 108.184 25.2884 102.472C27.4812 97.94 35.9192 100.509 37.5508 104.911C40.0818 111.738 39.0228 119.44 30.2208 115.678Z" fill="#F0AB8F"/>
<path d="M64.6133 130.293C64.9167 129.946 65.9309 128.862 66.0157 128.421C66.0948 128.012 66.217 125.75 66.7281 125.818C67.2633 125.888 66.8324 127.429 67.2649 127.417C67.5315 127.41 68.4298 124.404 68.9914 124.713C69.3602 124.914 68.5509 126.665 68.7833 126.703C68.9988 126.738 69.5145 124.386 70.0767 124.66C70.6657 124.946 69.1531 127.202 69.4329 127.319C69.5714 127.377 70.6557 124.633 71.1083 124.869C71.7136 125.183 70.1958 127.284 70.4587 127.45C70.5877 127.531 70.9823 126.699 71.2842 126.232C71.4518 125.973 71.702 126.057 71.6904 126.262C71.5687 128.388 68.7749 131.034 68.6416 131.374C68.4429 131.879 68.2369 132.369 68.023 132.845L64.6133 130.293Z" fill="#F0AB8F"/>
<path d="M72.1509 232.571C65.3283 233.472 58.9466 233.682 53.4062 232.571C30.4125 192.703 20.7891 147.67 20.7891 147.67H38.5549C61.5028 184.616 72.1509 232.571 72.1509 232.571Z" fill="#DF6659"/>
<path d="M57.1571 135.826L64.7189 129.021L68.9669 132.293C68.9669 132.293 67.1698 150.616 53.9365 149.241C44.6107 148.273 38.5625 131.434 38.5625 131.434L57.1571 135.826Z" fill="#AECEEA"/>
<path d="M11.143 159.804C27.1839 166.628 50.5001 160.654 50.5001 160.654L49.7889 158.447L49.6798 158.105L43.6158 139.232L59.5624 139.052C59.5624 139.052 48.8785 125.042 42.6564 121.634C41.0311 120.744 38.8531 120.073 36.389 119.651C36.1973 119.62 36.0018 119.588 35.8058 119.56C31.7991 118.948 27.1123 118.99 22.8422 119.834C22.6915 119.862 22.5413 119.894 22.3944 119.926C19.9983 120.432 17.7486 121.195 15.8414 122.243C15.8414 122.243 16.9852 128.262 15.3825 132.351C11.7373 141.647 11.1878 152.751 11.1314 157.483C11.1277 157.617 11.1277 157.743 11.1277 157.866C11.1167 159.097 11.143 159.804 11.143 159.804Z" fill="#AECEEA"/>
<path d="M25.168 162.903C25.4051 162.92 25.6427 162.937 25.8797 162.953C26.052 162.964 26.2238 162.975 26.396 162.981C38.8766 163.635 50.5025 160.652 50.5025 160.652L49.7907 158.446L49.6838 158.107L44.9717 143.383C44.1766 142.624 40.18 136.538 39.5572 134.076C39.5572 134.076 39.2922 140.375 41.4123 145.541C42.7505 148.802 44.252 153.647 42.4723 156.724C40.1647 160.711 25.3692 162.848 25.168 162.903Z" fill="#9CC0DB"/>
<path d="M52.1414 129.901L51.8281 130.14L58.4956 137.787L58.8089 137.548L52.1414 129.901Z" fill="#2D313D"/>
<path d="M33.8294 116.434C35.8509 116.577 37.0263 115.677 37.0927 115.624L36.8324 115.336C36.7486 115.401 34.7429 116.92 31.388 115.394L31.2109 115.733C32.1935 116.18 33.0712 116.38 33.8294 116.434Z" fill="#2D313D"/>
<path d="M11.1289 157.866C17.302 160.239 23.9118 161.016 29.9311 161.016C39.193 161.016 47.0589 159.17 49.7901 158.446L49.681 158.105C45.197 159.3 26.7257 163.544 11.1326 157.482C11.1289 157.616 11.1289 157.743 11.1289 157.866Z" fill="#2D313D"/>
<path d="M11.3455 159.804C11.3455 159.643 11.4019 143.593 15.5735 132.413L15.1925 132.289C10.9978 143.53 10.9414 159.643 10.9414 159.804H11.3455Z" fill="#2D313D"/>
<path d="M22.4023 119.925C24.1515 121.497 26.213 122.031 28.2182 122.031C32.0816 122.031 35.7158 120.042 36.3965 119.651C36.2047 119.62 36.0092 119.588 35.8133 119.56C33.9777 120.548 27.3563 123.638 22.8496 119.834C22.6995 119.862 22.5488 119.894 22.4023 119.925Z" fill="#2D313D"/>
<path d="M60.3906 243.023L79.4731 242.907C79.2897 241.061 76.8114 240.193 74.4964 239.642C74.3405 239.605 74.1882 239.572 74.036 239.536C73.7041 239.463 73.3801 239.397 73.0719 239.331C72.9117 239.298 72.7557 239.266 72.6072 239.236C71.8069 239.069 71.1436 238.926 70.7611 238.758C70.4176 238.605 69.9998 238.383 69.6368 238.178C69.5119 238.109 69.3987 238.04 69.2933 237.978C68.9498 237.777 68.7038 237.624 68.7038 237.624C67.4546 238.007 65.5732 239.105 61.4438 237.357L61.3189 238.029L61.2489 238.408L60.3906 243.023Z" fill="#2D313D"/>
<path d="M74.0312 239.537C74.32 240.161 74.351 240.832 74.351 240.84L74.7414 240.825C74.7377 240.788 74.714 240.241 74.4917 239.643C74.3358 239.606 74.1835 239.574 74.0312 239.537Z" fill="#2D313D"/>
<path d="M72.6016 239.237C72.9219 239.883 72.953 240.598 72.953 240.605L73.3434 240.594C73.3434 240.554 73.316 239.96 73.0663 239.332C72.9061 239.299 72.7496 239.267 72.6016 239.237Z" fill="#2D313D"/>
<path d="M61.2539 238.409C62.9556 239.201 64.4113 239.474 65.6178 239.474C67.8463 239.474 69.2088 238.533 69.6418 238.179C69.517 238.109 69.4037 238.041 69.2983 237.979C68.5723 238.559 65.9144 240.215 61.3245 238.03L61.2539 238.409Z" fill="#2D313D"/>
<path d="M39.3247 135.748L39.0195 135.995L41.2198 138.371L41.525 138.124L39.3247 135.748Z" fill="#2D313D"/>
<path d="M12.9883 157.831H13.3918C13.3918 154.158 13.8671 149.546 13.8718 149.5L13.4698 149.464C13.4651 149.51 12.9883 154.139 12.9883 157.831Z" fill="#2D313D"/>
<path d="M8.85222 128.044C12.625 130.973 22.5945 131.854 27.4273 124.653C30.9883 119.347 30.7839 112.718 30.4693 110.835L32.0773 107.809C32.0773 107.809 37.8642 106.387 37.4796 100.349C37.4796 100.349 36.8078 100.706 34.9971 100.296C33.9908 100.065 31.4514 98.7347 28.7017 98.878C28.696 98.877 28.6844 98.8755 28.6775 98.8799C26.2261 98.8199 20.9492 99.6436 19.1979 107.002C17.7523 113.07 12.1803 112.931 9.18413 115.018C3.18702 119.188 4.58896 124.734 8.85222 128.044Z" fill="#2D313D"/>
<path d="M29.3891 108.992C29.2352 109.913 29.9096 110.776 30.8943 110.919C31.8795 111.063 32.803 110.433 32.9569 109.512C33.1107 108.591 32.4369 107.728 31.4517 107.585C30.4665 107.441 29.5429 108.071 29.3891 108.992Z" fill="#F0AB8F"/>
<path d="M4.34453 117.608C5.02048 116.102 6.31916 114.778 8.20317 113.672C9.08564 113.153 10.1725 112.827 11.3221 112.481C14.1518 111.633 17.3587 110.671 18.748 106.443C21.0625 99.3905 26.303 99.1216 28.4489 99.3329L28.5406 99.3314C30.501 99.4013 32.2601 100.2 33.4297 100.732C33.8607 100.928 34.201 101.082 34.4629 101.163L34.6025 100.768C34.368 100.696 34.0235 100.539 33.6246 100.358C32.4024 99.8021 30.5547 98.9636 28.5016 98.9178L28.4752 98.9173C26.2071 98.6986 20.7269 98.9951 18.3223 106.321C17.001 110.341 14.0449 111.228 11.1862 112.085C10.0081 112.438 8.89597 112.772 7.96608 113.319C6.00305 114.471 4.64642 115.86 3.93359 117.446L4.34453 117.608Z" fill="#2D313D"/>
<path d="M15.6719 233.674C20.0969 234.256 25.3701 233.819 30.952 232.998C33.0521 218.945 33.3429 203.141 33.0584 188.832C33.0468 188.997 28.4643 175.196 28.4643 175.196C28.4643 175.196 30.461 185.977 29.7767 192.465C29.0696 199.165 26.4449 201.146 25.4349 208.695C24.8448 213.108 27.2019 216.433 26.3437 221.057C25.4407 225.924 21.4493 228.934 17.5522 232.205C16.989 232.682 16.2888 233.159 15.6719 233.674Z" fill="#C9544B"/>
<path d="M33.2885 189.642L33.7089 189.505C31.8407 184.494 30.0479 179.326 28.3793 174.145L27.9531 174.265C29.6243 179.451 31.4193 184.625 33.2885 189.642Z" fill="#2D313D"/>
<path d="M52.3438 230.694C52.6936 231.32 53.0497 231.947 53.4117 232.573C58.952 233.682 65.3342 233.472 72.1559 232.573C72.1559 232.573 67.3036 210.725 57.0954 185.162C56.6207 189.847 57.8546 194.726 59.3255 199.299C61.2654 205.314 63.632 211.44 63.0388 217.699C62.6115 222.234 60.1084 227.068 55.8494 229.502C54.8347 230.084 53.6013 230.411 52.3438 230.694Z" fill="#C9544B"/>
<path d="M64.0012 204.794L64.4264 204.672C59.1864 188.821 53.2319 174.368 46.729 161.715L46.3281 161.895C52.821 174.529 58.7675 188.963 64.0012 204.794Z" fill="#2D313D"/>
<path d="M55.3232 149.501C54.8632 149.501 54.3943 149.476 53.917 149.427C46.6223 148.669 41.3038 138.307 39.3555 133.888L39.7206 133.747C41.642 138.106 46.8757 148.323 53.9607 149.059C56.9538 149.372 59.5949 148.672 61.8103 146.982C67.7062 142.487 68.7625 132.379 68.7726 132.277L69.1661 132.311C69.1556 132.414 68.085 142.674 62.0605 147.268C60.1143 148.752 57.8526 149.501 55.3232 149.501Z" fill="#2D313D"/>
<path d="M84.2195 56.5597V79.1992C84.2195 82.2684 81.5574 84.756 78.274 84.756H45.0679L37.7473 90.8376V84.756H37.5861C34.3023 84.756 31.6406 82.2679 31.6406 79.1992V56.5597C31.6406 53.4905 34.3028 51.0029 37.5861 51.0029H78.2735C81.5579 51.0029 84.2195 53.491 84.2195 56.5597Z" fill="white"/>
<path d="M53.6857 71.0732C55.5692 70.6925 57.0939 69.7063 57.6644 68.4989C58.0511 67.6795 57.9853 66.7691 57.4785 65.9355C56.813 64.8404 55.5181 64.0835 54.0139 63.9117C52.4097 63.7295 50.6142 64.153 49.208 65.0481C47.9473 65.8513 47.4957 66.2609 46.9336 67.4284L47.7534 67.7731C48.2149 66.8144 48.5078 66.5106 49.7138 65.7429C50.9261 64.9708 52.5298 64.5897 53.9043 64.7458C55.1082 64.8837 56.1782 65.4987 56.6961 66.3505C57.0591 66.9473 57.1102 67.5899 56.841 68.1596C56.3916 69.1109 55.0787 69.9323 53.495 70.2518L53.6857 71.0732Z" fill="#363347"/>
<path d="M43.701 74.3975C42.6263 73.2906 42.0125 71.9287 41.9261 70.4923C41.7575 70.1865 41.6126 69.8709 41.4914 69.5464C40.776 67.6241 41.0036 65.6161 42.1326 63.8912C44.6109 60.1061 51.1106 57.8209 56.9323 58.6885C62.6528 59.5413 66.9909 63.2304 67.2474 67.4606C67.4914 71.486 63.8956 75.5567 58.6972 77.1387C57.0888 77.6282 55.3676 77.8611 53.6637 77.8611C49.7092 77.8611 45.8464 76.6074 43.701 74.3975ZM42.8992 64.3299C42.052 65.624 41.7859 67.1012 42.1247 68.5572C42.5746 66.8545 43.7295 65.2369 45.4038 64.0054C46.8927 62.9103 49.5791 61.8064 51.0405 61.6897C53.0737 61.5272 56.0277 61.5602 58.5523 62.642C60.6629 63.546 62.098 65.171 62.4905 67.1007C62.863 68.9309 62.2397 70.7937 60.782 72.2118C57.8137 75.0987 51.6907 76.1741 47.1319 74.6083C45.6045 74.0844 44.2895 73.2778 43.278 72.2719C43.5361 72.8293 43.9002 73.3532 44.3664 73.8333C47.2167 76.7699 53.3898 77.8714 58.4191 76.3401C63.236 74.8737 66.5715 71.1595 66.3502 67.5079C66.121 63.7312 62.0116 60.2962 56.7911 59.5182C56.0282 59.4045 55.2485 59.3498 54.4661 59.3498C49.7124 59.3498 44.8432 61.3608 42.8992 64.3299ZM51.1175 62.5263C49.8198 62.6302 47.3136 63.6696 45.9601 64.6658C44.1394 66.0051 43.0003 67.8319 42.8349 69.6774C42.817 69.8749 42.8101 70.0708 42.8143 70.2648C43.7426 71.8445 45.3764 73.1109 47.4422 73.82C51.6248 75.2558 57.437 74.2533 60.1345 71.6298C61.3878 70.4106 61.9252 68.8167 61.6081 67.2573C61.2704 65.5984 60.0207 64.194 58.1788 63.4047C56.7279 62.7833 54.8533 62.4583 52.7828 62.4583C52.2397 62.4588 51.6833 62.481 51.1175 62.5263Z" fill="#363347"/>
<path d="M72.4091 71.5668C73.6667 70.5692 74.5955 69.3279 75.0961 67.9772C75.9622 65.6777 75.5275 63.3034 73.9038 61.4652C72.8106 60.2283 70.6315 59.0323 68.0753 58.2656L67.8008 59.0658C70.2006 59.7852 72.2232 60.8822 73.211 62C74.6287 63.6052 75.007 65.6831 74.2473 67.7C73.7984 68.9108 72.9623 70.0256 71.827 70.9262L72.4091 71.5668Z" fill="#363347"/>
<path d="M65.19 75.2273C69.4069 75.2273 72.3409 73.8284 73.9046 72.1089C74.9083 71.0055 75.305 69.5957 75.1169 67.799C74.8719 65.462 73.2566 63.3181 70.7957 62.0645L70.3658 62.8021C72.5654 63.9228 74.0074 65.8215 74.2223 67.8807C74.3851 69.4391 74.0574 70.644 73.2203 71.5648C71.0581 73.9421 65.9598 75.6271 58.1319 73.2257L57.8516 74.0239C60.6149 74.8718 63.0658 75.2268 65.19 75.2273Z" fill="#363347"/>
<path d="M48.8838 75.0337L49.5492 74.469C52.2546 77.255 58.3629 79.291 63.5139 77.7232C68.5943 76.1761 72.2669 72.395 72.0567 68.927C71.8275 65.1503 67.7181 61.7153 62.4976 60.9373C57.1006 60.1312 50.8701 62.2914 48.6057 65.7495C47.6199 67.2548 47.4213 69.0092 48.0467 70.6893C48.8059 72.7283 50.6651 74.3867 53.1487 75.2396C57.3324 76.6754 63.144 75.6724 65.841 73.0494C67.0943 71.8302 67.6312 70.2368 67.3146 68.6773C66.9774 67.0179 65.7272 65.6141 63.8853 64.8248C61.8148 63.9375 59.0757 63.8105 56.9077 64.5008C54.7571 65.1852 53.204 66.6777 53.0602 68.1721C53.5775 67.4936 54.1971 66.9234 54.9126 66.4674C56.3182 65.5723 58.1147 65.1458 59.7179 65.331C61.2216 65.5028 62.5171 66.2597 63.1825 67.3548C63.6893 68.1889 63.7552 69.0988 63.3685 69.9182C62.4928 71.7721 59.4503 72.9888 56.7233 72.5732C55.028 72.3157 53.6155 71.4791 52.8273 70.383C52.4037 71.4747 52.3927 72.424 52.7962 73.2099C53.0275 73.6604 53.4506 74.0824 53.9885 74.3985L53.5096 75.1101C52.8305 74.7107 52.2889 74.1646 51.9854 73.5733C51.4027 72.4373 51.4817 71.0827 52.2214 69.5464C52.2493 69.4878 52.2783 69.4297 52.3078 69.3726C52.1956 69.0294 52.1408 68.6729 52.1514 68.31C52.2046 66.4187 54.0412 64.5244 56.618 63.7046C59.0288 62.9374 61.9571 63.0733 64.2599 64.0601C66.3705 64.9641 67.8056 66.5896 68.1981 68.5193C68.5701 70.3495 67.9473 72.2123 66.4895 73.6304C63.5218 76.5168 57.3982 77.5922 52.8394 76.0274C50.1024 75.0879 48.0462 73.2424 47.1985 70.9645C46.483 69.0427 46.7106 67.0347 47.8396 65.3103C50.3184 61.5252 56.8213 59.2395 62.6398 60.1076C68.3604 60.9604 72.6984 64.6495 72.955 68.8792C73.1879 72.7155 69.2491 76.861 63.7931 78.5219C62.476 78.9227 61.0999 79.1024 59.7285 79.1019C55.3804 79.1024 51.0829 77.2988 48.8838 75.0337ZM55.4178 67.1617C54.5422 67.7191 53.8278 68.4774 53.2883 69.4204C53.8225 70.5539 55.196 71.4894 56.8677 71.744C59.1816 72.0971 61.8343 71.0842 62.5455 69.5784C62.8148 69.0087 62.7631 68.3661 62.4001 67.7694C61.8822 66.917 60.8122 66.3025 59.6078 66.1646C59.4039 66.141 59.1948 66.1297 58.9825 66.1297C57.767 66.1302 56.4499 66.5044 55.4178 67.1617Z" fill="#363347"/>
<path d="M45.8719 71.1536C44.6475 69.8926 44.1691 68.1278 44.5248 66.1833C44.6438 65.5329 44.8472 64.8903 45.1243 64.2684C44.8672 62.7306 45.196 61.1874 46.09 59.8215C48.4519 56.2142 54.4105 54.3372 60.5778 55.2575C66.6945 56.1694 70.9652 59.4374 71.2049 63.3899C71.4488 67.4153 67.8531 71.4855 62.6546 73.0686C60.6258 73.6865 58.1944 74.0085 55.7861 74.0085C51.7405 74.0085 47.7607 73.0991 45.8719 71.1536ZM46.8571 60.2602C46.3434 61.0446 46.0437 61.896 45.9625 62.7695C46.9893 61.2574 48.4661 59.9505 50.2205 59.0647L50.6478 59.8038C48.6252 60.8255 46.9667 62.5125 46.0589 64.3821C46.1169 64.6559 46.1964 64.9292 46.2976 65.2C47.0568 67.239 48.916 68.8974 51.3996 69.7498C55.5828 71.1856 61.395 70.1831 64.0919 67.5596C65.3453 66.3404 65.8821 64.747 65.5655 63.1871C65.2283 61.5282 63.9781 60.1238 62.1362 59.335C60.0657 58.4487 57.3272 58.3207 55.1587 59.011C52.9306 59.7201 51.3443 61.2958 51.3011 62.8434L50.4028 62.8212C50.4555 60.9294 52.2926 59.0356 54.8694 58.2158C57.2803 57.4486 60.2085 57.5845 62.5108 58.5708C64.6214 59.4749 66.0565 61.1003 66.449 63.03C66.821 64.8602 66.1982 66.723 64.7404 68.1411C61.7727 71.0276 55.6497 72.1025 51.0903 70.5376C48.4545 69.6326 46.4504 67.888 45.5484 65.7264C45.4936 65.9253 45.4478 66.1247 45.4109 66.3241C45.1032 68.0082 45.5036 69.5223 46.5378 70.5883C49.327 73.461 57.2002 73.8451 62.377 72.2694C67.194 70.8025 70.5294 67.0884 70.3082 63.4372C70.0927 59.889 66.1261 56.9346 60.4372 56.0867C59.4651 55.9414 58.4941 55.872 57.5405 55.872C52.8753 55.8725 48.6357 57.5437 46.8571 60.2602Z" fill="#363347"/>
<path d="M53.875 80.9725C54.248 80.6667 54.6337 80.3506 55.0436 80.0522C56.6336 78.8946 58.3564 78.0727 60.1645 77.6089C68.7258 75.4138 67.5478 69.9092 67.4935 69.6773L68.3707 69.4941C68.386 69.5591 69.8143 76.0061 60.4026 78.4194C58.7093 78.8537 57.0925 79.6258 55.5962 80.715C55.2069 80.9986 54.8312 81.3063 54.4677 81.6042L53.875 80.9725Z" fill="#363347"/>
<path d="M38.0121 90.8372H37.4852V85.0013H37.2608C34.6139 85.0013 32.2547 83.431 31.3906 81.0941L31.8885 80.9336C32.6793 83.0721 34.8383 84.5089 37.2608 84.5089H38.0121V90.8372Z" fill="#2D313D"/>
<path d="M31.5776 76.4971H31.0508V56.5588C31.0508 53.3587 33.8362 50.7559 37.2602 50.7559H47.0764V51.2483H37.2602C34.1271 51.2483 31.5776 53.6305 31.5776 56.5588V76.4971Z" fill="#2D313D"/>
<path d="M62.0201 50.7559H52.6602V51.2483H62.0201V50.7559Z" fill="#2D313D"/>
<path d="M234.497 60.7205V64.5725H97.2539V60.7205C97.2539 57.3933 100.262 54.6797 103.946 54.6797H227.812C231.489 54.6797 234.497 57.3933 234.497 60.7205Z" fill="#5D76AD"/>
<path d="M234.497 64.5732V157.032C234.497 160.353 231.49 163.067 227.812 163.067H103.946C100.262 163.067 97.2539 160.353 97.2539 157.032V64.5732H234.497Z" fill="#AECEEA"/>
<path d="M165.137 64.0084C165.137 64.0084 162.709 61.3651 164.103 59.5492C164.103 59.5492 160.205 51.2197 168.361 50.9543C168.361 50.9543 169.766 43.523 182.784 50.1699C182.784 50.1699 193.722 48.4574 189.23 64.7199C189.888 68.3183 190.248 72.5781 185.902 72.6766L165.137 64.0084Z" fill="#2D313D"/>
<path d="M187.97 82.8996L185.742 67.8721L174.285 74.066L173.239 83.1636L167.773 84.979C171.557 89.5766 185.238 90.7194 191.522 83.8239L187.97 82.8996Z" fill="#F0AB8F"/>
<path d="M173.457 81.0066C180.205 78.9395 181.596 73.8604 181.596 73.8604L174.028 76.0343L173.457 81.0066Z" fill="#2D313D"/>
<path d="M184.215 64.9652C184.215 64.9652 185.443 57.6546 180.918 55.2379C176.393 52.8212 167.435 52.6981 165.618 58.4202C164.588 61.6647 165.384 70.3733 166.181 73.8604C166.896 76.9911 169.457 79.3463 172.786 79.3448C180.699 79.3409 183.892 69.9798 183.892 69.9798L184.215 64.9652Z" fill="#F0AB8F"/>
<path d="M207.708 163.223H155.723C156.497 156.33 157.142 150.842 157.579 147.593H206.762L207.708 163.223Z" fill="#253B3E"/>
<path d="M189.988 83.293C189.988 83.293 172.375 91.0266 171.134 83.8632L168.303 84.746L163.469 152.341C172.206 155.113 184.809 154.14 198.263 152.341L198.752 90.128L195.005 84.2699L189.988 83.293Z" fill="#5D76AD"/>
<path d="M171.36 163.478H152.336L154.246 137.532L158.979 95.4741C159.009 95.9271 171.132 83.8633 171.132 83.8633C171.132 83.8633 171.457 97.5308 171.889 107.004C172.546 121.423 171.36 163.478 171.36 163.478Z" fill="white"/>
<path d="M185.592 163.477C185.592 163.477 184.628 120.666 185.083 107.788C185.45 97.2982 187.301 90.0693 188.602 86.1951C188.945 85.1837 189.246 84.3988 189.471 83.8463C189.537 83.6917 189.596 83.5587 189.643 83.4371C189.661 83.4095 189.673 83.3761 189.685 83.3485C189.75 83.2101 189.797 83.0998 189.833 83.0166C189.892 82.9004 189.921 82.8398 189.921 82.8398L190.536 83.3982L190.791 83.6361L191.282 84.0782L198.75 90.9039L199.974 92.0261L200.388 92.4018L207.064 98.4977L211.044 119.925L214.291 137.413L216.68 150.284V150.29L216.751 150.677L219.081 163.478H185.592V163.477Z" fill="white"/>
<path d="M134.545 106.902C133.966 106.282 132.036 104.352 131.851 103.548C131.68 102.802 131.31 98.6611 130.377 98.8137C129.4 98.9742 130.29 101.774 129.496 101.777C129.007 101.78 127.166 96.3182 126.156 96.9145C125.493 97.306 127.09 100.472 126.666 100.553C126.272 100.629 125.175 96.3453 124.162 96.8791C123.1 97.4379 126.019 101.488 125.515 101.72C125.264 101.835 123.099 96.8633 122.283 97.3198C121.194 97.9298 124.113 101.699 123.642 102.016C123.41 102.172 122.633 100.669 122.049 99.8295C121.725 99.3642 121.272 99.5326 121.307 99.9088C121.667 103.801 126.961 108.495 127.228 109.111C127.625 110.026 128.034 110.913 128.457 111.774L134.545 106.902Z" fill="#F0AB8F"/>
<path d="M176.167 87.2129C181.755 87.2129 189.715 83.7523 190.127 83.5716L189.847 83.0146C189.726 83.0678 177.699 88.2991 173.108 86.0331C172.177 85.5737 171.637 84.8483 171.459 83.8143L170.809 83.9128C171.02 85.1334 171.691 86.0301 172.801 86.5777C173.715 87.0287 174.878 87.2129 176.167 87.2129Z" fill="#5D567C"/>
<path d="M184.276 70.5493C184.276 70.5493 188.379 70.8772 188.349 67.4998C188.321 64.4533 184.354 64.0658 183.457 65.5844L184.276 70.5493Z" fill="#F0AB8F"/>
<path d="M162.393 134.067C162.393 134.067 141.289 146.665 132.174 125.332C129.783 119.737 126.645 110.342 126.645 110.342L134.306 104.821L145.391 114.947C145.391 114.947 148.466 106.61 150.787 99.932C153.922 90.9112 161.169 86.0197 171.36 83.4326L162.393 134.067Z" fill="white"/>
<path d="M185.066 64.72C185.066 64.72 183.421 65.3581 183.684 66.953C183.684 66.953 181.653 67.118 181.595 65.1745C181.538 63.231 181.353 60.121 181.353 60.121C181.353 60.121 180.789 57.6333 176.963 57.4778C176.963 57.4778 175.549 61.3648 171.722 60.0432C171.722 60.0432 169.622 63.6165 165.13 61.676C165.13 61.676 163.722 53.9014 171.133 52.5798C178.543 51.2582 183.458 53.1239 184.033 55.5342C184.745 58.5162 185.066 64.72 185.066 64.72Z" fill="#2D313D"/>
<path d="M171.404 106.908C171.406 101.384 168.156 94.7185 167.677 93.7667L168.594 91.9556L165.95 91.7144C166.826 89.2342 169.587 86.623 169.616 86.5959L169.218 86.2256C169.092 86.3447 166.098 89.1756 165.313 91.8754L165.227 92.1748L167.746 92.4052L167.056 93.7692L167.115 93.8824C167.152 93.9538 170.846 101.098 170.844 106.909H171.404V106.908Z" fill="#2D313D"/>
<path d="M159.753 115.649L157.844 131.047L158.401 131.107L160.31 115.709L159.753 115.649Z" fill="#433A60"/>
<path d="M169.998 119.163C169.318 119.163 168.762 119.683 168.762 120.313C168.762 120.949 169.318 121.463 169.998 121.463C170.672 121.463 171.228 120.949 171.228 120.313C171.228 119.683 170.672 119.163 169.998 119.163ZM169.998 120.849C169.678 120.849 169.424 120.611 169.424 120.312C169.424 120.019 169.678 119.782 169.998 119.782C170.311 119.782 170.566 120.019 170.566 120.312C170.566 120.611 170.311 120.849 169.998 120.849Z" fill="#323847"/>
<path d="M189.484 64.8342C189.654 64.5073 193.613 56.7815 190.579 52.5296C189.208 50.6078 186.628 49.7259 182.912 49.9007C182.446 49.3886 180.333 47.2806 176.977 47.0531C174.093 46.8572 171.131 48.1064 168.168 50.7649L168.556 51.143C171.396 48.5944 174.214 47.3973 176.929 47.5751C180.42 47.809 182.543 50.3054 182.564 50.3306L182.655 50.4389L182.802 50.431C186.383 50.2375 188.841 51.0401 190.112 52.8196C192.968 56.8214 189.02 64.5274 188.98 64.6048L189.484 64.8342Z" fill="#2D313D"/>
<path d="M160.496 103.709C160.498 103.691 160.771 101.911 160.771 99.6404C160.771 96.6643 160.302 92.6739 158.067 90.5654L157.648 90.9529C159.743 92.9285 160.183 96.7677 160.183 99.6404C160.183 101.868 159.915 103.612 159.913 103.629L160.496 103.709Z" fill="#2D313D"/>
<path d="M176.913 140.164L152.122 139.988C151.3 139.982 150.608 139.411 150.499 138.649L145.691 105.047C145.557 104.118 146.336 103.293 147.34 103.3L172.131 103.477C172.953 103.483 173.645 104.053 173.754 104.815L178.562 138.417C178.695 139.347 177.917 140.171 176.913 140.164Z" fill="#DF6659"/>
<path d="M179.956 121.303C179.116 121.06 176.388 120.365 175.778 119.772C175.213 119.221 172.569 115.881 171.862 116.469C171.121 117.085 173.453 119.03 172.78 119.422C172.365 119.665 167.727 115.923 167.203 116.926C166.859 117.585 169.998 119.494 169.683 119.772C169.392 120.03 166.049 116.924 165.487 117.876C164.899 118.873 169.66 120.884 169.36 121.329C169.212 121.55 164.574 118.384 164.137 119.173C163.553 120.228 168.156 122 167.934 122.502C167.825 122.749 166.318 121.851 165.35 121.424C164.812 121.187 164.521 121.553 164.762 121.856C167.258 124.99 174.401 126.383 174.975 126.776C175.826 127.359 176.675 127.913 177.518 128.438L179.956 121.303Z" fill="#F0AB8F"/>
<path d="M200.953 122.191L178.608 119.463L174.984 128.917C174.984 128.917 186.312 138.543 199.595 142.041C205.284 143.539 212.817 144.328 218.467 140.206C230.848 131.175 225.261 111.843 214.692 94.9101C208.704 85.3156 189.919 82.8389 189.919 82.8389L200.953 122.191Z" fill="white"/>
<path d="M186.184 107.59C188.121 98.3827 192.962 94.1859 193.011 94.1451L193.168 94.0111L191.963 91.7756L194.617 91.8387L194.587 91.5447C194.189 87.5843 190.836 84.7988 190.693 84.6826L190.323 85.077C190.355 85.1036 193.48 87.7035 193.993 91.3L191.04 91.2301L192.478 93.8964C191.604 94.7025 187.435 98.9228 185.633 107.489L186.184 107.59Z" fill="#2D313D"/>
<path d="M198.52 103.625L199.102 103.54C198.845 101.987 198.715 100.526 198.715 99.1965C198.715 89.2421 205.82 88.992 206.121 88.986L206.111 88.4355C206.031 88.437 198.125 88.6847 198.125 99.1965C198.126 100.554 198.259 102.044 198.52 103.625Z" fill="#2D313D"/>
<path d="M178.635 119.209L178.566 119.697L200.912 122.425L200.981 121.937L178.635 119.209Z" fill="#2D313D"/>
<path d="M208.089 143.497C205.474 143.497 202.613 143.091 199.523 142.277L199.667 141.803C205.635 143.374 210.721 143.406 214.784 141.895C216.056 141.421 217.242 140.788 218.306 140.012L218.63 140.4C217.526 141.205 216.298 141.862 214.978 142.353C212.924 143.116 210.622 143.497 208.089 143.497Z" fill="#2D313D"/>
<path d="M199.525 142.278C186.335 138.804 174.922 129.197 174.809 129.1L175.163 128.735C175.276 128.831 186.599 138.363 199.667 141.804L199.525 142.278Z" fill="#2D313D"/>
<path d="M201.398 110.29L200.883 110.393L203.499 121.869L204.015 121.767L201.398 110.29Z" fill="#2D313D"/>
<path d="M108.454 59.6265C108.454 60.8216 107.418 61.7901 106.139 61.7901C104.861 61.7901 103.824 60.8216 103.824 59.6265C103.824 58.4314 104.861 57.4629 106.139 57.4629C107.418 57.4629 108.454 58.4314 108.454 59.6265Z" fill="white"/>
<path d="M115.224 59.6265C115.224 60.8216 114.187 61.7901 112.909 61.7901C111.63 61.7901 110.594 60.8216 110.594 59.6265C110.594 58.4314 111.63 57.4629 112.909 57.4629C114.187 57.4629 115.224 58.4314 115.224 59.6265Z" fill="white"/>
<path d="M121.989 59.6265C121.989 60.8216 120.953 61.7901 119.674 61.7901C118.396 61.7901 117.359 60.8216 117.359 59.6265C117.359 58.4314 118.396 57.4629 119.674 57.4629C120.952 57.4629 121.989 58.4314 121.989 59.6265Z" fill="white"/>
<path d="M154.441 105.008C153.91 105.008 153.459 104.644 153.382 104.152L153.046 101.992C152.986 101.572 153.338 101.199 153.791 101.202L165.003 101.282C165.375 101.284 165.688 101.543 165.738 101.887L166.022 103.874C166.108 104.474 165.608 105.007 164.961 105.007L154.441 105.008Z" fill="#2D313D"/>
<path d="M150.514 119.063L149.992 119.128L150.571 123.174L151.093 123.108L150.514 119.063Z" fill="#2D313D"/>
<path d="M158.982 137.73L154.312 137.671C153.366 137.664 152.557 136.997 152.431 136.119L150.961 125.847L151.483 125.781L152.953 136.054C153.044 136.69 153.631 137.173 154.317 137.178L158.989 137.238L158.982 137.73Z" fill="#2D313D"/>
<path d="M162.206 137.28L162.199 137.772L168.131 137.848L168.138 137.356L162.206 137.28Z" fill="#2D313D"/>
<path d="M159.569 64.3271H102.621V64.8195H159.569V64.3271Z" fill="#2D313D"/>
<path d="M234.761 60.7211H234.234C234.234 57.5259 231.353 54.926 227.812 54.926H198.219V54.4336H227.812C231.644 54.4341 234.761 57.2546 234.761 60.7211Z" fill="#2D313D"/>
<path d="M97.5151 60.7211H96.9883C96.9883 57.2546 100.108 54.4336 103.944 54.4336H155.832V54.926H103.944C100.399 54.9265 97.5151 57.5259 97.5151 60.7211Z" fill="#2D313D"/>
<path d="M97.5151 79.9512H96.9883V93.793H97.5151V79.9512Z" fill="#2D313D"/>
<path d="M234.757 157.032H234.231V64.8195H195.414V64.3271H234.757V157.032Z" fill="#2D313D"/>
<path d="M227.809 163.313H103.944C100.108 163.313 96.9883 160.495 96.9883 157.032V102.344H97.5151V157.032C97.5151 160.223 100.399 162.821 103.944 162.821H227.809V163.313Z" fill="#2D313D"/>
<path d="M76.096 178.149L67.5078 180.373L67.7891 181.322L76.3773 179.098L76.096 178.149Z" fill="white"/>
<path d="M275.23 65.1258L274.688 65.9697L282.325 70.2608L282.868 69.4168L275.23 65.1258Z" fill="#8DBEE2"/>
<path d="M66.4091 31.2988L65.6641 31.9951L71.9655 37.8845L72.7105 37.1882L66.4091 31.2988Z" fill="#8DBEE2"/>
<g opacity="0.6">
<path d="M65.1826 97.105L64.1875 97.4287L67.1168 105.295L68.1119 104.971L65.1826 97.105Z" fill="#DF6659"/>
</g>
<g opacity="0.6">
<path d="M91.5521 178.747L90.5625 179.084L93.6129 186.91L94.6025 186.573L91.5521 178.747Z" fill="#DF6659"/>
</g>
<path d="M190.925 17.2925L185.816 24.1172L186.68 24.6818L191.789 17.857L190.925 17.2925Z" fill="white"/>
<g opacity="0.6">
<path d="M266.613 78.6522L263.691 86.5205L264.686 86.8432L267.608 78.9748L266.613 78.6522Z" fill="#DF6659"/>
</g>
<path d="M114.379 6.08645V29.8812C114.379 33.1069 117.176 35.7216 120.628 35.7216H155.528L163.222 42.1139V35.7216H163.392C166.843 35.7216 169.641 33.1064 169.641 29.8812V6.08645C169.641 2.86074 166.843 0.246094 163.392 0.246094H120.628C117.176 0.246094 114.379 2.86074 114.379 6.08645Z" fill="#AECEEA"/>
<path d="M160.047 8.31836H123.977V9.30316H160.047V8.31836Z" fill="white"/>
<path d="M160.047 14.4707H123.977V15.4555H160.047V14.4707Z" fill="white"/>
<path d="M160.047 20.6221H123.977V21.6069H160.047V20.6221Z" fill="white"/>
<path d="M149.627 26.7725H123.977V27.7573H149.627V26.7725Z" fill="white"/>
<path d="M114.64 29.8813H114.113V6.08656C114.113 2.73036 117.035 0 120.626 0H163.389V0.4924H120.626C117.325 0.4924 114.64 3.00216 114.64 6.08656V29.8813Z" fill="#2D313D"/>
<path d="M163.484 42.6624L155.352 35.9062L155.701 35.5384L162.957 41.5663V35.4763H163.39C166.69 35.4763 169.375 32.9666 169.375 29.8822V6.08691H169.902V29.8817C169.902 33.2083 167.031 35.921 163.483 35.9677L163.484 42.6624Z" fill="#2D313D"/>
<path d="M148.395 35.4756H120.625V35.968H148.395V35.4756Z" fill="#2D313D"/>
</svg>
