<svg xmlns="http://www.w3.org/2000/svg" width="1024" height="1024" viewBox="0 0 1024 1024">
<g>
<path d="M 275.50 657.88 C272.75,657.96 268.92,658.21 267.00,658.44 C257.63,659.55 227.30,654.12 210.66,648.35 C146.32,626.03 115.30,574.16 118.38,494.00 C119.79,457.28 127.09,430.93 142.28,407.76 C164.81,373.37 207.63,351.26 257.41,348.32 C265.58,347.84 268.14,347.97 267.60,348.84 C267.14,349.58 267.63,350.00 268.94,350.00 C270.83,350.00 271.00,350.60 271.00,357.35 C271.00,363.93 271.31,365.13 274.00,368.84 C275.65,371.12 277.00,373.45 277.00,374.01 C277.00,374.58 278.13,376.83 279.51,379.02 C281.74,382.54 282.47,383.00 285.91,383.00 C288.17,383.00 289.99,383.54 290.29,384.30 C290.57,385.05 294.21,386.16 298.89,386.92 C303.35,387.65 307.00,388.63 307.00,389.12 C307.00,389.60 307.64,390.00 308.43,390.00 C309.21,390.00 310.58,390.73 311.47,391.62 C312.52,392.66 314.05,393.04 315.79,392.70 C319.41,391.99 327.79,394.21 330.46,396.59 C332.96,398.81 333.38,399.00 335.85,399.00 C337.69,399.00 340.14,400.73 345.18,405.61 C346.66,407.03 348.32,407.92 348.87,407.58 C349.42,407.24 350.32,407.75 350.86,408.72 C351.41,409.69 352.67,410.49 353.68,410.49 C354.76,410.50 355.50,411.23 355.51,412.29 C355.52,414.54 357.64,415.91 360.11,415.26 C361.15,414.99 362.00,415.24 362.00,415.81 C362.00,416.39 365.83,420.63 370.50,425.24 C375.81,430.49 379.00,434.42 379.00,435.73 C379.00,436.89 381.03,440.22 383.52,443.13 C386.00,446.04 388.52,450.24 389.10,452.46 C389.69,454.68 390.76,458.52 391.49,461.00 C394.62,471.69 395.81,515.11 393.06,518.43 C392.19,519.47 391.96,521.33 392.37,523.90 C392.77,526.39 392.45,529.07 391.49,531.36 C390.33,534.15 390.00,539.56 390.00,555.89 C390.00,567.41 390.28,577.57 390.62,578.46 C391.19,579.94 391.44,579.92 393.37,578.29 C395.48,576.52 395.48,576.52 393.75,578.58 C392.79,579.72 392.00,581.10 392.00,581.64 C392.00,582.18 390.76,583.81 389.25,585.25 C386.68,587.71 385.67,587.93 373.87,588.58 C366.93,588.96 360.04,588.98 358.57,588.61 L 355.90 587.94 L 360.33 582.72 C376.66,563.47 383.97,539.09 383.99,503.79 C384.02,454.13 368.92,422.01 338.09,406.15 C321.53,397.64 306.67,394.62 281.50,394.67 C266.86,394.70 261.55,395.12 253.04,396.91 C213.07,405.35 189.80,429.37 182.40,469.82 C180.25,481.57 179.45,511.00 180.90,524.88 C183.30,547.81 190.42,566.96 201.53,580.35 C204.65,584.11 206.82,587.55 206.35,587.99 C205.88,588.42 202.89,589.52 199.70,590.43 C196.39,591.38 193.63,592.79 193.27,593.73 C192.65,595.36 195.30,604.06 199.19,613.18 C201.37,618.30 205.40,621.00 210.84,621.00 C215.16,621.00 215.82,619.11 212.51,616.26 L 209.71 613.84 L 210.97 606.67 C212.37,598.76 213.47,596.00 215.24,596.00 C215.89,596.00 218.99,597.81 222.14,600.02 C225.29,602.23 231.17,605.60 235.19,607.52 C242.27,610.88 259.95,616.00 264.46,616.00 C267.16,616.00 268.03,616.77 267.34,618.55 C267.02,619.40 264.27,620.15 259.89,620.58 C256.08,620.96 252.71,621.65 252.42,622.13 C252.12,622.61 251.00,623.00 249.92,623.00 C248.74,623.00 247.57,624.00 247.00,625.50 C246.48,626.88 245.38,628.00 244.56,628.00 C242.15,628.00 240.88,631.66 241.20,637.67 C241.47,642.80 241.83,643.56 245.24,646.31 C247.72,648.32 250.75,649.61 254.24,650.16 C268.24,652.36 274.67,653.69 276.50,654.77 C278.42,655.89 278.39,655.95 276.00,656.10 C273.98,656.23 274.17,656.40 277.00,657.00 C280.34,657.70 280.27,657.74 275.50,657.88 ZM 322.00 619.02 C322.97,619.63 314.12,619.93 297.00,619.87 C282.42,619.81 271.85,619.44 273.50,619.04 L 276.50 618.32 L 273.00 617.82 C271.08,617.55 287.27,617.35 309.00,617.38 C330.73,617.41 342.20,617.58 334.50,617.75 C325.14,617.96 321.00,618.38 322.00,619.02 Z" fill="rgb(77,54,134)"/>
<path d="M 206.35 587.99 C206.81,587.56 204.72,584.22 201.67,580.52 L 207.38 587.41 L 212.94 580.99 C221.30,571.35 228.94,563.90 234.51,560.00 C238.48,557.21 240.18,555.07 242.82,549.50 C244.64,545.65 248.06,539.12 250.43,535.00 C253.52,529.59 254.93,525.83 255.46,521.50 C256.35,514.31 256.89,513.19 263.20,505.60 C265.90,502.36 268.70,498.53 269.44,497.10 C271.25,493.56 281.34,464.97 280.87,464.68 C280.67,464.55 277.68,463.74 274.23,462.88 L 267.97 461.32 L 260.41 468.21 C250.13,477.58 247.00,481.32 247.00,484.23 C247.00,489.35 245.05,492.77 241.87,493.23 C238.54,493.72 233.22,491.43 231.63,488.83 C230.15,486.40 232.29,482.35 236.30,479.98 C238.19,478.87 242.18,474.26 245.54,469.31 C254.11,456.69 260.60,450.08 265.50,448.96 C272.04,447.47 295.01,447.80 300.55,449.47 C307.09,451.43 308.98,449.96 308.24,443.48 C307.96,440.98 308.30,437.70 309.00,436.00 C312.81,426.80 326.21,424.06 333.20,431.05 C336.06,433.91 336.10,434.07 335.69,443.36 C335.32,451.86 335.03,453.06 332.64,455.63 C331.19,457.20 330.00,459.02 330.00,459.68 C330.00,461.72 328.01,462.25 325.03,461.01 C322.91,460.13 321.65,460.12 320.09,460.95 L 317.99 462.07 L 320.07 464.88 C321.21,466.43 323.62,472.03 325.42,477.33 L 328.69 486.96 L 332.87 483.38 C337.90,479.08 340.00,475.30 340.00,470.58 C340.00,464.63 346.45,463.30 351.68,468.18 C354.34,470.66 353.88,472.25 348.99,477.50 C346.94,479.70 343.00,484.90 340.23,489.06 C334.77,497.26 328.97,503.00 326.15,503.00 C323.86,503.00 320.01,498.83 316.45,492.50 C314.91,489.75 313.49,487.31 313.31,487.07 C312.85,486.49 303.29,497.20 299.25,502.83 C297.46,505.32 296.00,508.06 296.00,508.93 C296.00,509.95 298.23,511.36 302.25,512.89 C319.46,519.44 334.00,531.92 334.00,540.14 C334.00,544.26 325.30,551.03 309.22,559.42 C300.88,563.77 292.46,568.64 290.52,570.24 C287.39,572.82 287.00,573.66 287.04,577.82 C287.06,580.40 287.88,584.75 288.86,587.50 L 290.63 592.50 L 327.07 593.00 L 363.50 593.50 L 363.62 597.64 C363.69,599.92 364.10,602.35 364.53,603.05 C365.14,604.03 363.71,604.17 357.90,603.69 C353.83,603.35 337.90,602.36 322.50,601.47 C303.80,600.40 293.10,599.37 290.28,598.36 C287.62,597.41 284.36,594.97 281.48,591.77 C276.58,586.32 267.00,571.44 267.00,569.28 C267.00,567.55 272.90,564.01 275.78,564.00 C280.64,564.00 285.49,560.69 294.84,551.02 C300.16,545.51 305.08,541.00 305.76,541.00 C306.44,541.00 307.00,540.55 307.00,540.00 C307.00,539.45 304.60,539.00 301.66,539.00 C298.72,539.00 292.80,538.10 288.49,537.00 C284.19,535.90 280.59,535.11 280.50,535.25 C270.27,550.79 256.30,565.38 242.92,574.50 C231.56,582.24 216.00,594.04 216.00,594.92 C216.00,596.30 227.59,603.91 235.19,607.52 C231.17,605.60 225.29,602.23 222.14,600.02 C218.99,597.81 215.89,596.00 215.24,596.00 C213.47,596.00 212.37,598.76 210.97,606.67 L 209.71 613.84 L 212.51 616.26 C215.82,619.11 215.16,621.00 210.84,621.00 C205.40,621.00 201.37,618.30 199.19,613.18 C195.30,604.06 192.65,595.36 193.27,593.73 C193.63,592.79 196.39,591.38 199.70,590.43 C202.89,589.52 205.88,588.42 206.35,587.99 ZM 862.00 458.00 L 862.00 599.00 L 826.00 599.00 L 826.00 458.00 L 774.00 458.00 L 774.00 428.00 L 913.00 428.00 L 913.00 458.00 ZM 755.00 428.00 L 755.00 599.00 L 720.00 599.00 L 720.00 428.00 ZM 699.00 428.00 L 699.00 458.00 L 671.75 457.84 C656.76,457.75 645.97,457.50 647.77,457.28 C649.57,457.05 650.78,456.45 650.46,455.94 C650.14,455.42 650.36,455.00 650.94,455.00 C651.63,455.00 652.00,450.91 652.00,443.43 C652.00,437.07 652.47,431.00 653.04,429.93 C654.01,428.11 655.35,428.00 676.54,428.00 ZM 688.00 497.00 L 688.00 527.00 L 667.47 527.00 C651.13,527.00 646.83,526.72 646.42,525.65 C645.42,523.05 648.62,499.86 650.10,498.93 C650.94,498.41 643.67,497.95 632.00,497.78 L 612.50 497.50 L 612.43 460.50 L 612.74 478.75 L 613.04 497.00 Z" fill="rgb(97,195,165)"/>
<path d="M 363.48 603.93 C364.61,603.85 364.85,603.56 364.53,603.05 C364.10,602.35 363.69,599.92 363.62,597.64 L 363.50 593.50 L 327.07 593.00 L 388.66 593.00 L 405.51 572.95 C418.60,557.38 422.83,552.97 424.43,553.20 C426.14,553.45 428.37,558.33 437.50,581.75 C443.55,597.28 448.73,610.00 449.02,610.00 C449.30,610.00 455.28,579.96 462.32,543.25 C478.30,459.79 501.17,349.50 502.50,349.50 C503.67,349.50 504.48,354.55 510.46,399.00 C519.28,464.63 540.00,627.56 540.00,631.27 C540.00,636.74 541.74,633.82 542.39,627.25 C544.31,607.91 555.28,521.95 556.57,516.13 C556.86,514.83 557.31,513.97 557.56,514.23 C557.82,514.49 562.27,529.28 567.46,547.10 L 576.88 579.50 L 576.94 503.75 L 577.00 428.00 L 676.54 428.00 C655.35,428.00 654.01,428.11 653.04,429.93 C652.47,431.00 652.00,437.07 652.00,443.43 C652.00,450.91 651.63,455.00 650.94,455.00 C650.36,455.00 650.14,455.42 650.46,455.94 C650.78,456.45 649.57,457.05 647.77,457.28 C645.97,457.50 656.76,457.75 671.75,457.84 L 699.00 458.00 L 613.00 458.00 L 613.00 494.36 L 612.74 478.75 L 612.43 460.50 L 612.50 497.50 L 632.00 497.78 C643.67,497.95 650.94,498.41 650.10,498.93 C648.62,499.86 645.42,523.05 646.42,525.65 C646.83,526.72 651.13,527.00 667.47,527.00 L 613.00 527.00 L 613.00 599.00 L 576.19 599.00 L 569.38 581.91 C564.56,569.84 562.36,565.36 561.88,566.66 C561.51,567.67 556.60,592.12 550.97,621.00 C545.35,649.88 540.40,673.88 539.97,674.35 C539.55,674.82 538.95,674.37 538.64,673.35 C535.91,664.28 518.96,556.69 505.78,464.75 C502.88,444.54 500.25,428.00 499.94,428.00 C499.62,428.00 498.56,431.49 497.57,435.75 C485.09,489.72 452.04,625.27 451.14,626.23 C450.76,626.63 444.17,614.36 436.49,598.98 C428.81,583.59 422.22,571.00 421.85,571.00 C421.48,571.00 414.05,578.71 405.34,588.14 L 389.51 605.28 L 377.00 604.64 C372.33,604.40 367.82,604.16 363.48,603.93 ZM 391.82 582.16 C391.94,581.94 392.00,581.76 392.00,581.64 C392.00,581.10 392.79,579.72 393.75,578.58 C395.48,576.52 395.48,576.52 393.37,578.29 C391.44,579.92 391.19,579.94 390.62,578.46 C390.28,577.57 390.00,567.41 390.00,555.89 C390.00,539.56 390.33,534.15 391.49,531.36 C392.45,529.07 392.77,526.39 392.37,523.90 C391.96,521.33 392.19,519.47 393.06,518.43 C395.81,515.11 394.62,471.69 391.49,461.00 C390.76,458.52 389.69,454.68 389.10,452.46 C388.52,450.24 386.00,446.04 383.52,443.13 C381.03,440.22 379.00,436.89 379.00,435.73 C379.00,434.42 375.81,430.49 370.50,425.24 C365.83,420.63 362.00,416.39 362.00,415.81 C362.00,415.24 361.15,414.99 360.11,415.26 C357.64,415.91 355.52,414.54 355.51,412.29 C355.50,411.23 354.76,410.50 353.68,410.49 C352.67,410.49 351.41,409.69 350.86,408.72 C350.32,407.75 349.42,407.24 348.87,407.58 C348.32,407.92 346.66,407.03 345.18,405.61 C340.14,400.73 337.69,399.00 335.85,399.00 C333.38,399.00 332.96,398.81 330.46,396.59 C327.79,394.21 319.41,391.99 315.79,392.70 C314.05,393.04 312.52,392.66 311.47,391.62 C310.58,390.73 309.21,390.00 308.43,390.00 C307.64,390.00 307.00,389.60 307.00,389.12 C307.00,388.63 303.35,387.65 298.89,386.92 C294.21,386.16 290.57,385.05 290.29,384.30 C289.99,383.54 288.17,383.00 285.91,383.00 C282.47,383.00 281.74,382.54 279.51,379.02 C278.13,376.83 277.00,374.58 277.00,374.01 C277.00,373.45 275.65,371.12 274.00,368.84 C271.31,365.13 271.00,363.93 271.00,357.35 C271.00,350.60 270.83,350.00 268.94,350.00 C267.63,350.00 267.14,349.58 267.60,348.84 C268.14,347.97 265.58,347.84 257.41,348.32 C249.26,348.80 241.30,349.80 233.58,351.28 C254.28,347.34 288.27,345.99 309.00,348.04 C374.54,354.55 418.80,386.31 436.44,439.49 C447.30,472.25 448.41,521.40 439.10,556.88 C438.05,560.87 436.99,564.35 436.74,564.59 C436.49,564.84 434.31,560.43 431.88,554.79 C429.14,548.40 426.86,544.40 425.82,544.20 C424.71,543.99 418.14,551.02 405.66,565.79 ZM 275.50 657.88 C280.27,657.74 280.34,657.70 277.00,657.00 C274.17,656.40 273.98,656.23 276.00,656.10 C278.39,655.95 278.42,655.89 276.50,654.77 C274.67,653.69 268.24,652.36 254.24,650.16 C250.75,649.61 247.72,648.32 245.24,646.31 C241.83,643.56 241.47,642.80 241.20,637.67 C240.88,631.66 242.15,628.00 244.56,628.00 C245.38,628.00 246.48,626.88 247.00,625.50 C247.57,624.00 248.74,623.00 249.92,623.00 C251.00,623.00 252.12,622.61 252.42,622.13 C252.71,621.65 256.08,620.96 259.89,620.58 C264.27,620.15 267.02,619.40 267.34,618.55 C268.03,616.77 267.16,616.00 264.46,616.00 L 377.12 616.00 L 381.31 619.86 C383.61,621.99 398.44,635.31 414.25,649.47 C430.06,663.63 443.00,675.55 443.00,675.96 C443.00,676.37 439.56,677.00 435.35,677.35 C431.14,677.71 413.53,678.00 396.21,678.00 L 364.72 678.00 L 345.38 659.00 L 305.94 658.99 C290.66,658.99 278.29,658.81 267.82,658.35 C269.88,658.15 273.10,657.95 275.50,657.88 ZM 322.00 619.02 C321.00,618.38 325.14,617.96 334.50,617.75 C342.20,617.58 330.73,617.41 309.00,617.38 C287.27,617.35 271.08,617.55 273.00,617.82 L 276.50 618.32 L 273.50 619.04 C271.85,619.44 282.42,619.81 297.00,619.87 C314.12,619.93 322.97,619.63 322.00,619.02 ZM 244.08 656.41 C231.86,654.80 222.03,652.28 210.88,648.42 C219.85,651.51 232.68,654.49 244.08,656.41 ZM 357.41 588.32 L 358.57 588.61 C360.04,588.98 366.93,588.96 373.87,588.58 C385.34,587.95 386.61,587.72 389.04,585.46 L 387.15 587.69 L 378.82 588.34 C368.35,589.16 359.63,589.18 357.59,588.40 C357.53,588.37 357.47,588.34 357.41,588.32 ZM 320.23 601.34 C320.97,601.38 321.73,601.43 322.50,601.47 C335.07,602.19 348.00,602.99 354.54,603.44 C341.18,602.70 329.68,601.99 320.23,601.34 ZM 192.69 364.71 C171.57,375.00 154.12,389.68 142.28,407.76 C154.15,389.63 171.39,375.02 192.69,364.71 ZM 288.50 586.39 C287.69,583.68 287.06,580.07 287.04,577.82 C287.04,577.28 287.04,576.80 287.05,576.36 C287.09,577.18 287.17,578.17 287.28,579.42 C287.47,581.60 287.94,584.24 288.50,586.39 ZM 289.77 590.07 L 290.81 592.50 L 290.63 592.50 ZM 290.43 570.32 L 290.52 570.24 C292.46,568.65 300.85,563.79 309.19,559.44 C300.89,563.77 292.49,568.64 290.43,570.32 ZM 376.14 555.63 C381.47,541.31 383.98,524.39 383.99,503.79 C383.98,524.41 381.48,541.31 376.14,555.63 ZM 258.17 614.96 C256.71,614.62 255.10,614.22 253.43,613.76 Z" fill="rgb(95,71,164)"/>
<path d="M 0.00 512.00 L 0.00 0.00 L 512.00 0.00 L 1024.00 0.00 L 1024.00 512.00 L 1024.00 1024.00 L 512.00 1024.00 L 0.00 1024.00 L 0.00 512.00 ZM 435.35 677.35 C439.56,677.00 443.00,676.37 443.00,675.96 C443.00,675.55 430.06,663.63 414.25,649.47 C398.44,635.31 383.61,621.99 381.31,619.86 L 377.12 616.00 L 319.69 616.00 L 262.26 616.00 L 252.39 613.50 C246.96,612.12 239.22,609.43 235.19,607.52 C227.59,603.91 216.00,596.30 216.00,594.92 C216.00,594.04 231.56,582.24 242.92,574.50 C256.30,565.38 270.27,550.79 280.50,535.25 C280.59,535.11 284.19,535.90 288.49,537.00 C292.80,538.10 298.72,539.00 301.66,539.00 C304.60,539.00 307.00,539.45 307.00,540.00 C307.00,540.55 306.44,541.00 305.76,541.00 C305.08,541.00 300.16,545.51 294.84,551.02 C285.49,560.69 280.64,564.00 275.78,564.00 C272.90,564.01 267.00,567.55 267.00,569.28 C267.00,571.44 276.58,586.32 281.48,591.77 C284.36,594.97 287.62,597.41 290.28,598.36 C294.12,599.73 325.71,602.02 377.00,604.64 L 389.51 605.28 L 405.34 588.14 C414.05,578.71 421.48,571.00 421.85,571.00 C422.22,571.00 428.81,583.59 436.49,598.98 C444.17,614.36 450.76,626.63 451.14,626.23 C452.04,625.27 485.09,489.72 497.57,435.75 C498.56,431.49 499.62,428.00 499.94,428.00 C500.25,428.00 502.88,444.54 505.78,464.75 C518.96,556.69 535.91,664.28 538.64,673.35 C538.95,674.37 539.55,674.82 539.97,674.35 C540.40,673.88 545.35,649.88 550.97,621.00 C556.60,592.12 561.51,567.67 561.88,566.66 C562.36,565.36 564.56,569.84 569.38,581.91 L 576.19 599.00 L 594.59 599.00 L 613.00 599.00 L 613.00 563.00 L 613.00 527.00 L 650.50 527.00 L 688.00 527.00 L 688.00 512.00 L 688.00 497.00 L 650.50 497.00 L 613.00 497.00 L 613.00 477.50 L 613.00 458.00 L 656.00 458.00 L 699.00 458.00 L 699.00 443.00 L 699.00 428.00 L 638.00 428.00 L 577.00 428.00 L 576.94 503.75 L 576.88 579.50 L 567.46 547.10 C562.27,529.28 557.82,514.49 557.56,514.23 C557.31,513.97 556.86,514.83 556.57,516.13 C555.28,521.95 544.31,607.91 542.39,627.25 C541.74,633.82 540.00,636.74 540.00,631.27 C540.00,627.56 519.28,464.63 510.46,399.00 C504.48,354.55 503.67,349.50 502.50,349.50 C501.17,349.50 478.30,459.79 462.32,543.25 C455.28,579.96 449.30,610.00 449.02,610.00 C448.73,610.00 443.55,597.28 437.50,581.75 C428.37,558.33 426.14,553.45 424.43,553.20 C422.83,552.97 418.60,557.38 405.51,572.95 L 388.66 593.00 L 339.84 593.00 L 291.03 593.00 L 289.42 589.25 C288.53,587.19 287.57,582.77 287.28,579.42 C286.76,573.41 286.79,573.32 290.40,570.34 C292.40,568.69 300.88,563.77 309.22,559.42 C325.30,551.03 334.00,544.26 334.00,540.14 C334.00,531.92 319.46,519.44 302.25,512.89 C298.23,511.36 296.00,509.95 296.00,508.93 C296.00,508.06 297.46,505.32 299.25,502.83 C303.29,497.20 312.85,486.49 313.31,487.07 C313.49,487.31 314.91,489.75 316.45,492.50 C320.01,498.83 323.86,503.00 326.15,503.00 C328.97,503.00 334.77,497.26 340.23,489.06 C343.00,484.90 346.94,479.70 348.99,477.50 C353.88,472.25 354.34,470.66 351.68,468.18 C346.45,463.30 340.00,464.63 340.00,470.58 C340.00,475.30 337.90,479.08 332.87,483.38 L 328.69 486.96 L 325.42 477.33 C323.62,472.03 321.21,466.43 320.07,464.88 L 317.99 462.07 L 320.09 460.95 C321.65,460.12 322.91,460.13 325.03,461.01 C328.01,462.25 330.00,461.72 330.00,459.68 C330.00,459.02 331.19,457.20 332.64,455.63 C335.03,453.06 335.32,451.86 335.69,443.36 C336.10,434.07 336.06,433.91 333.20,431.05 C326.21,424.06 312.81,426.80 309.00,436.00 C308.30,437.70 307.96,440.98 308.24,443.48 C308.98,449.96 307.09,451.43 300.55,449.47 C295.01,447.80 272.04,447.47 265.50,448.96 C260.60,450.08 254.11,456.69 245.54,469.31 C242.18,474.26 238.19,478.87 236.30,479.98 C232.29,482.35 230.15,486.40 231.63,488.83 C233.22,491.43 238.54,493.72 241.87,493.23 C245.05,492.77 247.00,489.35 247.00,484.23 C247.00,481.32 250.13,477.58 260.41,468.21 L 267.97 461.32 L 274.23 462.88 C277.68,463.74 280.67,464.55 280.87,464.68 C281.34,464.97 271.25,493.56 269.44,497.10 C268.70,498.53 265.90,502.36 263.20,505.60 C256.89,513.19 256.35,514.31 255.46,521.50 C254.93,525.83 253.52,529.59 250.43,535.00 C248.06,539.12 244.64,545.65 242.82,549.50 C240.18,555.07 238.48,557.21 234.51,560.00 C228.94,563.90 221.30,571.35 212.94,580.99 L 207.38 587.41 L 201.61 580.46 C190.42,566.95 183.31,547.88 180.90,524.88 C179.45,511.00 180.25,481.57 182.40,469.82 C189.80,429.37 213.07,405.35 253.04,396.91 C261.55,395.12 266.86,394.70 281.50,394.67 C306.67,394.62 321.53,397.64 338.09,406.15 C368.92,422.01 384.02,454.13 383.99,503.79 C383.97,539.03 376.65,563.48 360.39,582.65 C356.89,586.77 356.33,587.91 357.59,588.40 C359.63,589.18 368.35,589.16 378.82,588.34 L 387.15 587.69 L 405.66 565.79 C418.14,551.02 424.71,543.99 425.82,544.20 C426.86,544.40 429.14,548.40 431.88,554.79 C434.31,560.43 436.49,564.84 436.74,564.59 C436.99,564.35 438.05,560.87 439.10,556.88 C448.41,521.40 447.30,472.25 436.44,439.49 C418.80,386.31 374.54,354.55 309.00,348.04 C288.27,345.99 254.28,347.34 235.01,351.00 C193.93,358.79 161.26,378.79 142.28,407.76 C127.09,430.93 119.79,457.28 118.38,494.00 C115.30,574.12 146.32,626.03 210.59,648.32 C235.46,656.95 253.61,658.98 305.94,658.99 L 345.38 659.00 L 355.05 668.50 L 364.72 678.00 L 396.21 678.00 C413.53,678.00 431.14,677.71 435.35,677.35 ZM 755.00 513.50 L 755.00 428.00 L 737.50 428.00 L 720.00 428.00 L 720.00 513.50 L 720.00 599.00 L 737.50 599.00 L 755.00 599.00 L 755.00 513.50 ZM 862.00 528.50 L 862.00 458.00 L 887.50 458.00 L 913.00 458.00 L 913.00 443.00 L 913.00 428.00 L 843.50 428.00 L 774.00 428.00 L 774.00 443.00 L 774.00 458.00 L 800.00 458.00 L 826.00 458.00 L 826.00 528.50 L 826.00 599.00 L 844.00 599.00 L 862.00 599.00 L 862.00 528.50 Z" fill="rgb(254,254,254)"/>
</g>
</svg>