<svg width="26" height="26" viewBox="0 0 26 26" fill="none" xmlns="http://www.w3.org/2000/svg">
<path d="M12.9707 0C18.1519 0 20.7425 0.000712262 22.6084 1.23535C23.4416 1.78667 24.1557 2.4998 24.707 3.33301C25.9416 5.19891 25.9414 7.78973 25.9414 12.9707C25.9414 18.1515 25.9413 20.7425 24.707 22.6084C24.1557 23.4416 23.4416 24.1557 22.6084 24.707C20.7425 25.9416 18.1519 25.9414 12.9707 25.9414C7.78959 25.9414 5.19894 25.9416 3.33301 24.707C2.49977 24.1557 1.7857 23.4416 1.23438 22.6084C3.42309e-05 20.7425 0 18.1515 0 12.9707C6.10258e-10 7.7897 -0.000241342 5.19891 1.23438 3.33301C1.7857 2.49978 2.49978 1.78667 3.33301 1.23535C5.19895 0.000707771 7.78947 0 12.9707 0ZM12.9697 6.25391C9.26141 6.25413 6.25505 9.26042 6.25488 12.9688C6.25488 16.6772 9.26131 19.6834 12.9697 19.6836C16.6783 19.6836 19.6855 16.6774 19.6855 12.9688C19.6854 9.26028 16.6782 6.25391 12.9697 6.25391ZM12.9697 8.52637C15.4235 8.52637 17.4129 10.515 17.4131 12.9688C17.4131 15.4226 15.4236 17.4121 12.9697 17.4121C10.516 17.4119 8.52734 15.4225 8.52734 12.9688C8.52751 10.5151 10.5161 8.52659 12.9697 8.52637ZM19.9502 4.33984C19.079 4.34009 18.373 5.04671 18.373 5.91797C18.3731 6.78915 19.0791 7.49585 19.9502 7.49609C20.8215 7.49609 21.5282 6.7893 21.5283 5.91797C21.5283 5.04656 20.8216 4.33984 19.9502 4.33984Z" fill="#5528A9"/>
</svg>
