<svg width="28" height="26" viewBox="0 0 28 26" fill="none" xmlns="http://www.w3.org/2000/svg">
<path d="M1.22461 4.05444C1.22461 3.22258 1.51675 2.53631 2.101 1.99562C2.68525 1.45491 3.44481 1.18457 4.37962 1.18457C5.29775 1.18457 6.04058 1.45074 6.60816 1.98314C7.19241 2.53216 7.48455 3.24754 7.48455 4.12931C7.48455 4.92788 7.20077 5.59335 6.63319 6.12575C6.04894 6.67476 5.28105 6.94927 4.32954 6.94927H4.3045C3.38637 6.94927 2.64354 6.67476 2.07596 6.12575C1.50838 5.57673 1.22461 4.88628 1.22461 4.05444ZM1.55013 25.8904V9.22022H7.10895V25.8904H1.55013ZM10.1888 25.8904H15.7477V16.5821C15.7477 15.9998 15.8144 15.5506 15.948 15.2345C16.1817 14.6688 16.5364 14.1905 17.0122 13.7995C17.4879 13.4086 18.0847 13.2131 18.8025 13.2131C20.6722 13.2131 21.607 14.4692 21.607 16.9814V25.8904H27.1658V16.3325C27.1658 13.8702 26.5815 12.0027 25.413 10.73C24.2445 9.45729 22.7004 8.82093 20.7807 8.82093C18.6272 8.82093 16.9496 9.74428 15.7477 11.591V11.6409H15.7226L15.7477 11.591V9.22022H10.1888C10.2222 9.75259 10.2389 11.408 10.2389 14.1863C10.2389 16.9647 10.2222 20.8661 10.1888 25.8904Z" fill="#5528A9"/>
</svg>
