<svg width="171" height="171" viewBox="0 0 171 171" fill="none" xmlns="http://www.w3.org/2000/svg">
<path d="M106.157 55.3648L116.087 55.6436C118.474 55.711 120.8 54.8872 122.612 53.3328C124.425 51.7783 125.593 49.6047 125.89 47.2355L126.901 39.1694L103.946 42.179C103.183 42.2801 102.431 42.4554 101.702 42.7023L101.128 49.7612C101.072 50.4633 101.159 51.1695 101.384 51.8369C101.61 52.5042 101.969 53.1187 102.439 53.6429C102.91 54.1671 103.482 54.5901 104.121 54.8861C104.76 55.1822 105.453 55.345 106.157 55.3648Z" fill="#E5B4AC"/>
<path d="M131.229 38.6012L126.901 39.169L125.89 47.235C125.593 49.6042 124.425 51.7778 122.612 53.3323C120.8 54.8867 118.474 55.7105 116.087 55.6431L106.157 55.3644C105.453 55.3446 104.76 55.1817 104.121 54.8857C103.482 54.5896 102.91 54.1666 102.439 53.6424C101.969 53.1182 101.61 52.5037 101.384 51.8364C101.159 51.1691 101.072 50.4628 101.128 49.7607L101.702 42.7104C99.3861 43.4978 97.3744 44.9906 95.9496 46.9794C94.5248 48.9682 93.7583 51.3532 93.7578 53.7997V60.5029H99.4521V81.2435H127.296V60.4944H144.464V50.2138C144.464 48.5472 144.108 46.8998 143.421 45.3817C142.733 43.8636 141.729 42.5098 140.476 41.4106C139.223 40.3114 137.751 39.4922 136.156 39.0078C134.561 38.5233 132.882 38.3847 131.229 38.6012Z" fill="#34CA8D"/>
<path d="M144.464 60.4944H127.296V81.2435H144.464V60.4944Z" fill="#E5B4AC"/>
<path d="M99.4521 60.4944H93.7578V81.2435H99.4521V60.4944Z" fill="#E5B4AC"/>
<path d="M115.996 62.3823C115.996 62.3823 114.286 58.5297 112.138 59.3676C111.112 59.7643 111.283 61.0673 111.583 61.8898C112.361 64.0342 112.903 64.2701 114.573 67.9723C115.222 69.3356 116.032 70.6159 116.986 71.7856C117.171 72.0016 117.389 72.1868 117.633 72.3345C117.966 72.5727 118.327 72.7697 118.708 72.921C119.673 75.1782 120.646 77.4383 121.629 79.7012C121.857 80.2165 122.08 80.7295 122.299 81.2402H136.538L131.039 70.0003C130.972 69.8653 131.224 69.1813 131.246 69.0257C131.375 68.026 131.384 67.0145 131.273 66.0126C130.897 62.1976 128.879 57.8679 128.879 57.8679C128.235 56.4202 127.507 55.0115 126.697 53.6493C126.013 52.6387 124.972 52.2899 124.358 52.6233C124.266 52.6729 123.939 52.8713 123.777 53.4578C123.069 51.6589 122.768 49.506 121.299 48.1141C120.923 47.7567 120.381 47.5156 119.885 47.6643C119.213 47.8661 118.824 48.6903 118.669 49.323C118.735 49.0528 118.187 48.4578 118.026 48.297C117.756 48.0403 117.424 47.8588 117.062 47.7706C116.7 47.6824 116.321 47.6905 115.964 47.7943C114.734 48.191 114.902 49.7078 115.124 50.7098C115.139 50.7851 115.18 50.9561 115.114 50.9988C114.996 51.0741 114.466 50.5269 114.356 50.4636C113.924 50.2174 113.346 50.1661 113.012 50.6038C112.83 50.8781 112.731 51.1995 112.728 51.5289C112.607 53.3193 113.534 55.0532 114.096 56.7085C114.712 58.5793 115.199 60.5851 115.996 62.3823Z" fill="#E5B4AC"/>
<path d="M123.335 59.1162C123.335 59.1162 120.924 65.8468 126.492 69.7524" stroke="#3B1534" stroke-width="0.855" stroke-miterlimit="10" stroke-linecap="round"/>
<path d="M118.601 48.9763L121.186 56.5978" stroke="#3B1534" stroke-width="0.855" stroke-miterlimit="10" stroke-linecap="round"/>
<path d="M115.153 50.8384L117.739 58.4616" stroke="#3B1534" stroke-width="0.855" stroke-miterlimit="10" stroke-linecap="round"/>
<path d="M144.464 156.231H88.4189V146.376C88.4194 143.271 89.6532 140.294 91.8489 138.098C94.0445 135.903 97.0224 134.669 100.127 134.669H132.756C135.861 134.669 138.839 135.903 141.034 138.098C143.23 140.294 144.464 143.271 144.464 146.376V156.231Z" fill="#5528A9"/>
<path d="M150.258 99.2738C150.258 97.3821 149.507 95.5679 148.169 94.2298C146.832 92.8917 145.019 92.1393 143.127 92.1379H81.1532C80.2162 92.1379 79.2883 92.3225 78.4227 92.6812C77.557 93.0398 76.7705 93.5654 76.108 94.2281C75.4455 94.8907 74.92 95.6774 74.5616 96.5431C74.2032 97.4089 74.0188 98.3368 74.019 99.2738V100.254H150.258V99.2738Z" stroke="#77C8D6" stroke-width="0.855" stroke-miterlimit="10" stroke-linecap="round"/>
<path d="M74.019 100.254V149.097C74.019 150.989 74.7707 152.804 76.1086 154.141C77.4465 155.479 79.2611 156.231 81.1532 156.231H143.127C144.064 156.231 144.992 156.047 145.858 155.688C146.723 155.33 147.51 154.805 148.173 154.142C148.835 153.48 149.361 152.693 149.72 151.827C150.078 150.962 150.263 150.034 150.263 149.097V100.254H74.019Z" stroke="#77C8D6" stroke-width="0.855" stroke-miterlimit="10" stroke-linecap="round"/>
<path d="M132.106 98.3676C133.076 98.3676 133.862 97.5813 133.862 96.6114C133.862 95.6415 133.076 94.8552 132.106 94.8552C131.136 94.8552 130.35 95.6415 130.35 96.6114C130.35 97.5813 131.136 98.3676 132.106 98.3676Z" fill="#FFB6DB"/>
<path d="M137.711 98.3676C138.681 98.3676 139.467 97.5813 139.467 96.6114C139.467 95.6415 138.681 94.8552 137.711 94.8552C136.741 94.8552 135.955 95.6415 135.955 96.6114C135.955 97.5813 136.741 98.3676 137.711 98.3676Z" fill="#FFB6DB"/>
<path d="M143.319 98.3676C144.289 98.3676 145.075 97.5813 145.075 96.6114C145.075 95.6415 144.289 94.8552 143.319 94.8552C142.349 94.8552 141.562 95.6415 141.562 96.6114C141.562 97.5813 142.349 98.3676 143.319 98.3676Z" fill="#FFB6DB"/>
<path d="M150.258 24.2821C150.257 22.3912 149.505 20.578 148.168 19.2409C146.831 17.9038 145.018 17.1523 143.127 17.1514H81.1532C79.2617 17.1514 77.4476 17.9025 76.1098 19.2397C74.772 20.5769 74.0199 22.3906 74.019 24.2821V25.2636H150.258V24.2821Z" stroke="#77C8D6" stroke-width="0.855" stroke-miterlimit="10" stroke-linecap="round"/>
<path d="M74.019 25.2671V74.1098C74.019 76.0019 74.7707 77.8165 76.1086 79.1544C77.4465 80.4923 79.2611 81.2439 81.1532 81.2439H143.127C144.064 81.2442 144.992 81.0598 145.858 80.7014C146.723 80.343 147.51 79.8175 148.173 79.155C148.835 78.4925 149.361 77.706 149.72 76.8403C150.078 75.9747 150.263 75.0468 150.263 74.1098V25.2671H74.019Z" stroke="#77C8D6" stroke-width="0.855" stroke-miterlimit="10" stroke-linecap="round"/>
<path d="M132.106 23.3795C133.076 23.3795 133.862 22.5933 133.862 21.6234C133.862 20.6535 133.076 19.8672 132.106 19.8672C131.136 19.8672 130.35 20.6535 130.35 21.6234C130.35 22.5933 131.136 23.3795 132.106 23.3795Z" fill="#FFB6DB"/>
<path d="M137.711 23.3795C138.681 23.3795 139.467 22.5933 139.467 21.6234C139.467 20.6535 138.681 19.8672 137.711 19.8672C136.741 19.8672 135.955 20.6535 135.955 21.6234C135.955 22.5933 136.741 23.3795 137.711 23.3795Z" fill="#FFB6DB"/>
<path d="M143.319 23.3795C144.289 23.3795 145.075 22.5933 145.075 21.6234C145.075 20.6535 144.289 19.8672 143.319 19.8672C142.349 19.8672 141.562 20.6535 141.562 21.6234C141.562 22.5933 142.349 23.3795 143.319 23.3795Z" fill="#FFB6DB"/>
<path d="M87.41 61.4007C87.41 59.5086 86.6584 57.694 85.3205 56.3561C83.9826 55.0182 82.168 54.2666 80.2759 54.2666H18.3072C17.3702 54.2664 16.4423 54.4507 15.5766 54.8092C14.7108 55.1676 13.9242 55.693 13.2615 56.3555C12.5989 57.018 12.0732 57.8046 11.7146 58.6702C11.356 59.5359 11.1714 60.4637 11.1714 61.4007V62.3823H87.41V61.4007Z" fill="white"/>
<path d="M87.41 61.4007C87.41 59.5086 86.6584 57.694 85.3205 56.3561C83.9826 55.0182 82.168 54.2666 80.2759 54.2666H18.3072C17.3702 54.2664 16.4423 54.4507 15.5766 54.8092C14.7108 55.1676 13.9242 55.693 13.2615 56.3555C12.5989 57.018 12.0732 57.8046 11.7146 58.6702C11.356 59.5359 11.1714 60.4637 11.1714 61.4007V62.3823H87.41V61.4007Z" stroke="#77C8D6" stroke-width="0.855" stroke-miterlimit="10" stroke-linecap="round"/>
<path d="M11.1714 62.3823V111.225C11.1714 112.162 11.356 113.09 11.7146 113.956C12.0732 114.821 12.5989 115.608 13.2615 116.27C13.9242 116.933 14.7108 117.458 15.5766 117.817C16.4423 118.175 17.3702 118.359 18.3072 118.359H80.2759C82.168 118.359 83.9826 117.608 85.3205 116.27C86.6584 114.932 87.41 113.117 87.41 111.225V62.3823H11.1714Z" fill="white"/>
<path d="M11.1714 62.3823V111.225C11.1714 112.162 11.356 113.09 11.7146 113.956C12.0732 114.821 12.5989 115.608 13.2615 116.27C13.9242 116.933 14.7108 117.458 15.5766 117.817C16.4423 118.175 17.3702 118.359 18.3072 118.359H80.2759C82.168 118.359 83.9826 117.608 85.3205 116.27C86.6584 114.932 87.41 113.117 87.41 111.225V62.3823H11.1714Z" stroke="#77C8D6" stroke-width="0.855" stroke-miterlimit="10" stroke-linecap="round"/>
<path d="M69.2586 60.4948C70.2285 60.4948 71.0148 59.7085 71.0148 58.7386C71.0148 57.7687 70.2285 56.9824 69.2586 56.9824C68.2887 56.9824 67.5024 57.7687 67.5024 58.7386C67.5024 59.7085 68.2887 60.4948 69.2586 60.4948Z" fill="#FFB6DB"/>
<path d="M74.8655 60.4948C75.8354 60.4948 76.6217 59.7085 76.6217 58.7386C76.6217 57.7687 75.8354 56.9824 74.8655 56.9824C73.8956 56.9824 73.1094 57.7687 73.1094 58.7386C73.1094 59.7085 73.8956 60.4948 74.8655 60.4948Z" fill="#FFB6DB"/>
<path d="M80.4725 60.4948C81.4424 60.4948 82.2286 59.7085 82.2286 58.7386C82.2286 57.7687 81.4424 56.9824 80.4725 56.9824C79.5026 56.9824 78.7163 57.7687 78.7163 58.7386C78.7163 59.7085 79.5026 60.4948 80.4725 60.4948Z" fill="#FFB6DB"/>
<path d="M123.007 127.317L122.744 127.272L125.796 109.317L131.848 110.343L129.779 122.506C129.65 123.267 129.373 123.995 128.964 124.649C128.554 125.302 128.019 125.869 127.39 126.315C126.761 126.762 126.05 127.081 125.298 127.252C124.546 127.424 123.768 127.446 123.007 127.317Z" fill="#3B1534"/>
<path d="M125.124 129.153L107.498 128.801C104.726 128.744 102.74 125.995 103.464 123.213L107.328 108.336C107.947 105.954 110.193 104.438 112.537 104.822L130.35 107.729L125.124 129.153Z" fill="#E5B4AC"/>
<path d="M123.679 135.09C122.976 135.566 118.995 137.787 114.543 136.619C113.12 136.239 111.798 135.552 110.669 134.606C111.637 131.535 112.606 128.464 113.576 125.393L125.969 125.685L123.679 135.09Z" fill="#E5B4AC"/>
<path d="M132.106 109.269C132.106 108.075 131.632 106.93 130.787 106.085C129.943 105.241 128.798 104.767 127.604 104.767H127.45L113.086 101.509C112.448 100.422 111.477 99.5685 110.316 99.0753C109.156 98.5822 107.868 98.4753 106.642 98.7705C105.417 99.0657 104.318 99.7474 103.51 100.715C102.701 101.682 102.225 102.884 102.152 104.142C102.079 105.401 102.413 106.65 103.104 107.704C103.796 108.758 104.808 109.563 105.991 109.998C107.174 110.432 108.466 110.475 109.676 110.12C110.885 109.764 111.948 109.029 112.708 108.022L122.094 110.157C122.047 111.525 122.497 112.863 123.362 113.924C124.227 114.985 125.447 115.696 126.796 115.926L128.83 116.268L129.312 113.428C130.137 113.09 130.844 112.514 131.341 111.773C131.839 111.033 132.105 110.161 132.106 109.269Z" fill="#3B1534"/>
<path d="M110.671 122.59C110.671 122.59 112.039 123.931 113.896 122.301" stroke="#3B1534" stroke-width="0.855" stroke-miterlimit="10" stroke-linecap="round"/>
<path d="M112.453 128.905L118.306 129.022C118.362 129.023 118.416 129.044 118.458 129.08C118.501 129.117 118.53 129.166 118.54 129.221C118.551 129.276 118.542 129.333 118.516 129.383C118.49 129.432 118.448 129.471 118.397 129.494L111.372 132.476L112.453 128.905Z" fill="#3B1534"/>
<path d="M131.408 29.1911C131.407 28.0352 131.114 26.8983 130.556 25.886C129.998 24.8737 129.193 24.019 128.216 23.4012C127.239 22.7834 126.122 22.4226 124.968 22.3523C123.814 22.282 122.662 22.5045 121.617 22.9992L104.331 26.6859L107.125 39.7862L124.681 36.0413C126.477 36.0086 128.187 35.2726 129.445 33.9915C130.703 32.7104 131.408 30.9866 131.408 29.1911Z" fill="#3B1534"/>
<path d="M120.763 18.6018L110.734 21.0725L114.37 35.8281L124.398 33.3574L120.763 18.6018Z" fill="#3B1534"/>
<path d="M121.366 21.0756L95.49 27.4522L94.276 22.524C93.7923 20.5591 94.1087 18.4826 95.1557 16.751C96.2026 15.0194 97.8944 13.7745 99.8591 13.29L110.918 10.566C111.891 10.326 112.901 10.2801 113.892 10.4308C114.883 10.5815 115.834 10.926 116.691 11.4445C117.549 11.9629 118.296 12.6453 118.89 13.4525C119.483 14.2598 119.912 15.1761 120.152 16.1491L121.366 21.0756Z" fill="#3B1534"/>
<path d="M118.936 37.4129L104.194 42.7789C102.854 43.1088 101.438 42.8931 100.258 42.1793C99.0769 41.4655 98.228 40.312 97.8976 38.9724L93.9868 23.0985L113.635 15.9028L118.936 37.4129Z" fill="#E5B4AC"/>
<path d="M115.572 30.7529C117.608 30.7529 119.259 29.1023 119.259 27.0662C119.259 25.03 117.608 23.3794 115.572 23.3794C113.536 23.3794 111.885 25.03 111.885 27.0662C111.885 29.1023 113.536 30.7529 115.572 30.7529Z" fill="#E5B4AC"/>
<path d="M118.643 37.8282L107.466 40.7087L109.307 47.8511L120.483 44.9706L118.643 37.8282Z" fill="#E5B4AC"/>
<path d="M115.756 28.5842C116.329 28.5842 116.793 28.1203 116.793 27.548C116.793 26.9757 116.329 26.5117 115.756 26.5117C115.184 26.5117 114.72 26.9757 114.72 27.548C114.72 28.1203 115.184 28.5842 115.756 28.5842Z" stroke="#3B1534" stroke-width="0.855" stroke-miterlimit="10" stroke-linecap="round"/>
<path d="M117.051 25.5457C117.051 25.5457 115.144 25.8158 114.828 27.0847" stroke="#3B1534" stroke-width="0.855" stroke-miterlimit="10" stroke-linecap="round"/>
<path d="M102.62 34.5724L106.093 33.3087C106.184 33.2754 106.281 33.2617 106.377 33.2685C106.474 33.2754 106.567 33.3025 106.653 33.3482C106.738 33.394 106.812 33.4572 106.871 33.5338C106.93 33.6104 106.972 33.6986 106.994 33.7927C107.41 35.5557 107.082 37.8967 104.848 37.9121C103.378 37.9257 102.437 36.6621 102.179 35.33C102.152 35.172 102.182 35.0097 102.262 34.8712C102.343 34.7328 102.47 34.627 102.62 34.5724Z" fill="#3B1534"/>
<path d="M118.051 22.8696L111.796 24.7951C109.668 25.4496 107.367 25.2323 105.399 24.1907C103.431 23.1492 101.957 21.3688 101.302 19.241L101.11 18.6186L115.391 14.2222L118.051 22.8696Z" fill="#3B1534"/>
<path d="M38.1481 67.7552L31.1157 69.2551L33.9336 82.467L40.966 80.967L38.1481 67.7552Z" fill="#3B1534"/>
<path d="M58.0443 90.8127L41.4043 94.3626L36.1152 69.5676L59.3148 64.6206L63.2051 82.8612C63.5746 84.5999 63.2386 86.4143 62.2708 87.9053C61.3031 89.3964 59.7828 90.4421 58.0443 90.8127Z" fill="#E5B4AC"/>
<path d="M38.0681 86.5296C40.3697 86.5296 42.2354 84.6639 42.2354 82.3623C42.2354 80.0608 40.3697 78.1951 38.0681 78.1951C35.7666 78.1951 33.9009 80.0608 33.9009 82.3623C33.9009 84.6639 35.7666 86.5296 38.0681 86.5296Z" fill="#E5B4AC"/>
<path d="M38.3484 83.9373C39.0473 83.9373 39.6138 83.3708 39.6138 82.6719C39.6138 81.973 39.0473 81.4065 38.3484 81.4065C37.6495 81.4065 37.083 81.973 37.083 82.6719C37.083 83.3708 37.6495 83.9373 38.3484 83.9373Z" stroke="#3B1534" stroke-width="0.855" stroke-miterlimit="10" stroke-linecap="round"/>
<path d="M36.7651 80.23C36.7651 80.23 39.0924 80.56 39.4738 82.111" stroke="#3B1534" stroke-width="0.855" stroke-miterlimit="10" stroke-linecap="round"/>
<path d="M59.6789 57.3259C58.7682 57.325 57.8675 57.5155 57.0352 57.8851C55.58 55.6262 52.449 54.0632 48.8272 54.0632C44.3983 54.0632 40.7116 56.3923 39.9062 59.472C38.2778 58.7071 36.4309 58.5447 34.6941 59.0137C30.8141 60.0397 28.4321 63.7641 29.3743 67.3397C30.1489 70.2809 32.9311 72.2012 36.0433 72.2217C37.0762 72.8962 38.2843 73.2529 39.518 73.2477C42.1223 73.2477 44.3385 71.7087 45.161 69.5644C45.7744 70.2182 46.5164 70.738 47.3404 71.0912C48.1644 71.4443 49.0525 71.6231 49.949 71.6164C52.4148 71.6164 54.5489 70.3048 55.592 68.3947C56.7486 69.3291 58.1921 69.8359 59.6789 69.8294C63.21 69.8294 66.0726 67.0319 66.0726 63.5777C66.0726 60.1235 63.2049 57.3259 59.6789 57.3259Z" fill="#3B1534"/>
<path d="M81.3141 118.285H22.9638L22.6218 115.35C22.2658 112.342 23.1029 109.315 24.9536 106.917C26.8043 104.519 29.521 102.943 32.521 102.525L66.6628 97.7766C69.6822 97.3569 72.7452 98.145 75.187 99.9698C77.6287 101.795 79.2522 104.509 79.705 107.524L81.3141 118.285Z" fill="#77C8D6"/>
<path d="M54.6295 89.7461L40.8691 92.0118L41.7754 97.5112L55.4794 94.9034L54.6295 89.7461Z" fill="#E5B4AC"/>
<path d="M41.7754 97.5113L42.5073 101.959L56.2676 99.6933L55.4793 94.9036L41.7754 97.5113Z" fill="#77C8D6"/>
<path d="M46.8726 96.5413L47.5856 101.122" stroke="#3B1534" stroke-width="0.855" stroke-miterlimit="10" stroke-linecap="round"/>
<path d="M50.7461 95.8525L51.4592 100.434" stroke="#3B1534" stroke-width="0.855" stroke-miterlimit="10" stroke-linecap="round"/>
<path d="M54.9149 91.4849L48.5041 92.8529C48.4566 92.8626 48.4139 92.8884 48.3833 92.9259C48.3527 92.9635 48.3359 93.0105 48.3359 93.0589C48.3359 93.1074 48.3527 93.1543 48.3833 93.1919C48.4139 93.2294 48.4566 93.2552 48.5041 93.265L55.4792 94.9049L54.9149 91.4849Z" fill="#3B1534"/>
<path d="M107.73 40.9236L112.569 39.1366C112.624 39.1167 112.684 39.1159 112.74 39.1345C112.795 39.1531 112.842 39.1899 112.874 39.2389C112.906 39.2879 112.92 39.3463 112.914 39.4044C112.909 39.4625 112.884 39.517 112.843 39.559L108.397 44.1435L107.73 40.9236Z" fill="#3B1534"/>
<path d="M135.827 80.433L131.039 70.002C131.036 66.7982 130.652 63.6062 129.897 60.4927C129.897 60.4927 129.425 58.5998 128.118 55.98C126.812 53.3603 126.066 52.9311 125.461 52.8576C124.765 52.7755 124.149 53.1585 123.77 53.4595L123.012 51.1972C122.694 50.219 122.243 49.0409 121.473 48.3261C121.131 48.0186 120.68 47.8595 120.221 47.8835C119.761 47.9075 119.33 48.1128 119.021 48.4543L119.007 48.4697C118.845 48.6621 118.708 48.8748 118.6 49.1024C118.588 49.0668 118.573 49.0319 118.556 48.9981C118.556 48.9981 118.517 48.9126 118.469 48.8271C118.127 48.2132 117.626 47.5857 116.908 47.4061C116.232 47.2351 115.351 47.5001 114.992 48.126C114.842 48.4118 114.776 48.7343 114.801 49.0563C114.837 49.4718 114.91 49.8833 115.02 50.2857C115.056 50.4362 115.191 50.7492 115.145 50.9065C115.133 50.9407 115.145 50.992 115.109 51.0074C115.03 51.0501 114.862 50.8364 114.673 50.6654C114.487 50.5062 114.264 50.3966 114.025 50.3467C113.786 50.2967 113.538 50.3081 113.305 50.3798C112.386 50.6671 112.59 51.7478 112.792 52.4694C113.069 53.5091 113.371 54.5334 113.665 55.5662" stroke="#3B1534" stroke-width="0.855" stroke-miterlimit="10" stroke-linecap="round"/>
<path d="M100.89 42.4814C100.89 42.4814 102.45 43.2782 105.548 42.1206C106.256 41.8555 106.974 41.6212 107.696 41.3938L107.73 41.3818" stroke="#3B1534" stroke-width="0.855" stroke-miterlimit="10" stroke-linecap="round"/>
<path d="M53.5637 82.5929L57.1547 81.7191C57.2485 81.6961 57.346 81.6933 57.4409 81.7107C57.5358 81.7282 57.6259 81.7655 57.7054 81.8202C57.7849 81.875 57.8518 81.9459 57.9019 82.0284C57.952 82.1109 57.9841 82.203 57.996 82.2988C58.2166 84.096 57.6318 86.3822 55.4122 86.1582C53.9485 86.0095 53.1516 84.65 53.0422 83.2974C53.0329 83.1375 53.08 82.9794 53.1753 82.8506C53.2706 82.7219 53.4081 82.6306 53.5637 82.5929Z" fill="#3B1534"/>
<path d="M127.461 122.535C129.55 122.535 131.242 120.843 131.242 118.754C131.242 116.666 129.55 114.974 127.461 114.974C125.373 114.974 123.681 116.666 123.681 118.754C123.681 120.843 125.373 122.535 127.461 122.535Z" fill="#E5B4AC"/>
<path d="M127.295 120.42C128.029 120.42 128.624 119.825 128.624 119.091C128.624 118.358 128.029 117.763 127.295 117.763C126.562 117.763 125.967 118.358 125.967 119.091C125.967 119.825 126.562 120.42 127.295 120.42Z" stroke="#3B1534" stroke-width="0.855" stroke-miterlimit="10" stroke-linecap="round"/>
<path d="M128.954 116.526C128.954 116.526 126.511 116.868 126.109 118.495" stroke="#3B1534" stroke-width="0.855" stroke-miterlimit="10" stroke-linecap="round"/>
</svg>
