<svg width="166" height="166" viewBox="0 0 166 166" fill="none" xmlns="http://www.w3.org/2000/svg">
<path d="M144.694 78.6307C144.848 77.7978 144.925 76.9528 144.927 76.1059C144.927 68.6973 139.117 62.6914 131.967 62.6914C124.817 62.6914 119.007 68.6973 119.007 76.1059C119.007 82.55 123.4 87.9317 129.253 89.2199C128.605 91.0311 128.275 92.9404 128.277 94.8639C128.277 103.844 135.31 111.132 143.985 111.132C152.661 111.132 159.694 103.851 159.694 94.8639C159.692 86.1389 153.041 79.0158 144.694 78.6307Z" fill="#3B1534"/>
<path d="M144.673 78.7519C141.74 78.5882 138.823 79.268 136.265 80.7107" stroke="#3B1534" stroke-width="0.83" stroke-miterlimit="10" stroke-linecap="round"/>
<path d="M62.6067 60.4092H37.2402V104.183H62.6067V60.4092Z" fill="#F2EADA"/>
<path d="M91.7997 33.5637H11.7511C8.73857 33.5637 6.29639 36.0059 6.29639 39.0185V98.9478C6.29639 101.96 8.73857 104.403 11.7511 104.403H91.7997C94.8122 104.403 97.2544 101.96 97.2544 98.9478V39.0185C97.2544 36.0059 94.8122 33.5637 91.7997 33.5637Z" stroke="#77C8D6" stroke-width="0.83" stroke-miterlimit="10" stroke-linecap="round"/>
<path d="M61.5228 51.5565L45.7628 48.2747L43.8057 57.6703L59.6636 60.474L61.5228 51.5565Z" fill="#E5B4AC"/>
<path d="M51.6609 51.3121L43.5883 49.6338C42.9078 49.4921 42.2619 49.2178 41.6874 48.8264C41.1129 48.435 40.6212 47.9343 40.2403 47.3528C39.8594 46.7713 39.5968 46.1205 39.4674 45.4375C39.3381 44.7546 39.3446 44.0528 39.4865 43.3723L42.9028 26.9732C43.3829 24.6699 44.7582 22.6516 46.7263 21.3622C48.6943 20.0728 51.0939 19.6179 53.3973 20.0974L57.9656 21.0503L51.6609 51.3121Z" fill="#3B1534"/>
<path d="M64.4842 59.051L44.4248 55.4438L49.6638 26.3457L75.168 30.9373L70.9084 54.5923C70.647 56.035 69.8236 57.315 68.619 58.151C67.4145 58.9871 65.9273 59.3108 64.4842 59.051Z" fill="#E5B4AC"/>
<path d="M46.2276 46.1397C48.9046 46.1397 51.0748 43.9695 51.0748 41.2925C51.0748 38.6155 48.9046 36.4453 46.2276 36.4453C43.5505 36.4453 41.3804 38.6155 41.3804 41.2925C41.3804 43.9695 43.5505 46.1397 46.2276 46.1397Z" fill="#E5B4AC"/>
<path d="M78.0895 22.7055C76.9078 22.6626 75.7344 22.919 74.6782 23.4508C74.4289 22.4217 73.8649 21.496 73.0647 20.8027C72.2644 20.1093 71.2679 19.6827 70.2138 19.5825C69.1598 19.4822 68.1006 19.7131 67.184 20.2431C66.2674 20.7732 65.5389 21.5759 65.1 22.5395L56.136 20.672L53.3738 20.1142C52.2433 19.8855 51.0683 20.1095 50.1013 20.7381C49.1343 21.3667 48.4527 22.3497 48.2029 23.4757L48.1946 23.5172L45.5386 36.2992L47.4758 36.7009C49.3708 37.0936 51.3441 36.7183 52.9625 35.6573C54.581 34.5963 55.7122 32.9363 56.1078 31.042L56.1825 30.6884L61.9178 31.8836C62.3062 34.2176 64.9207 36.3656 68.3918 36.9947C70.8204 37.433 73.1195 37.0213 74.6832 36.0303C75.6228 36.5006 76.6557 36.7544 77.7063 36.7732C78.7568 36.792 79.7982 36.5753 80.754 36.1389C81.7098 35.7025 82.5557 35.0575 83.2296 34.2514C83.9035 33.4453 84.3882 32.4985 84.6483 31.4805C84.9083 30.4625 84.9371 29.3991 84.7324 28.3686C84.5276 27.338 84.0947 26.3664 83.4653 25.5251C82.8359 24.6838 82.0261 23.9941 81.0952 23.5067C80.1644 23.0194 79.1362 22.7467 78.0862 22.7088L78.0895 22.7055Z" fill="#3B1534"/>
<path d="M46.5795 43.2909C47.467 43.2909 48.1864 42.5715 48.1864 41.684C48.1864 40.7966 47.467 40.0771 46.5795 40.0771C45.6921 40.0771 44.9727 40.7966 44.9727 41.684C44.9727 42.5715 45.6921 43.2909 46.5795 43.2909Z" stroke="#3B1534" stroke-width="0.83" stroke-miterlimit="10" stroke-linecap="round"/>
<path d="M44.5742 38.5833C44.5742 38.5833 47.529 39.0016 48.0137 40.9637" stroke="#3B1534" stroke-width="0.83" stroke-miterlimit="10" stroke-linecap="round"/>
<path d="M49.3253 75.4899C49.9542 75.4899 50.464 74.9801 50.464 74.3512C50.464 73.7222 49.9542 73.2124 49.3253 73.2124C48.6964 73.2124 48.1865 73.7222 48.1865 74.3512C48.1865 74.9801 48.6964 75.4899 49.3253 75.4899Z" fill="#3B1534"/>
<path d="M29.85 60.4092C20.046 60.4092 12.0996 68.2494 12.0996 77.9205V104.183H37.2403V60.4092H29.85Z" fill="#77C8D6"/>
<path d="M86.0428 77.9205C86.0428 68.2494 78.0964 60.4092 68.2924 60.4092H62.6069V104.183H86.0428V77.9205Z" fill="#77C8D6"/>
<path d="M43.8058 57.6699L43.2563 60.306L59.0164 63.5878L59.6638 60.4737L43.8058 57.6699Z" fill="#F2EADA"/>
<path d="M59.7251 60.1833L58.6162 65.6214L52.6402 64.2437C52.5295 63.0385 52.4144 61.8339 52.2949 60.6298L49.9825 63.588L42.9458 61.6258L43.6247 58.5432" stroke="#3B1534" stroke-width="0.83" stroke-miterlimit="10" stroke-linecap="round"/>
<path d="M26.9649 60.9502C26.9649 60.9502 26.0934 72.1602 32.0229 79.3762L30.1421 82.2364C29.6481 82.9876 29.3768 83.8633 29.3598 84.7623C29.3428 85.6612 29.5806 86.5466 30.0459 87.316L37.2469 99.2945" stroke="#F2EADA" stroke-width="0.83" stroke-miterlimit="10" stroke-linecap="round"/>
<path d="M72.9917 61.2922C72.9917 61.2922 73.8649 72.5022 67.9337 79.7182L69.8161 82.5784C70.3092 83.3286 70.5804 84.2028 70.5983 85.1003C70.6162 85.9978 70.3802 86.8822 69.9174 87.6514L62.7163 99.6316" stroke="#F2EADA" stroke-width="0.83" stroke-miterlimit="10" stroke-linecap="round"/>
<path d="M63.8816 87.1585C66.2112 87.1585 68.0997 85.27 68.0997 82.9405C68.0997 80.6109 66.2112 78.7224 63.8816 78.7224C61.5521 78.7224 59.6636 80.6109 59.6636 82.9405C59.6636 85.27 61.5521 87.1585 63.8816 87.1585Z" fill="#FFB6DB"/>
<path d="M43.2562 95.2242C40.7662 91.8162 37.8828 86.725 38.9817 82.3658C40.1271 77.8257 44.6423 77.9419 47.7 80.4502C50.522 82.7609 52.1555 86.3581 53.3556 89.708" stroke="#3B1534" stroke-width="0.83" stroke-miterlimit="10" stroke-linecap="round"/>
<path d="M41.1678 79.2415C38.5998 73.6257 37.7167 66.9575 39.1327 60.9085C39.8714 57.7545 41.7887 55.1101 44.6605 53.6045" stroke="#3B1534" stroke-width="0.83" stroke-miterlimit="10" stroke-linecap="round"/>
<path d="M64.6004 78.7854C64.6004 78.7854 65.4188 67.2252 62.6084 59.2688" stroke="#3B1534" stroke-width="0.83" stroke-miterlimit="10" stroke-linecap="round"/>
<path d="M62.607 54.1243C64.16 54.1243 65.419 52.8653 65.419 51.3123C65.419 49.7592 64.16 48.5002 62.607 48.5002C61.0539 48.5002 59.7949 49.7592 59.7949 51.3123C59.7949 52.8653 61.0539 54.1243 62.607 54.1243Z" fill="#3B1534"/>
<path d="M60.1252 58.2659L50.3312 56.503C50.2874 56.4952 50.2422 56.504 50.2045 56.5277C50.1668 56.5514 50.1393 56.5883 50.1273 56.6312C50.1152 56.674 50.1196 56.7198 50.1395 56.7597C50.1594 56.7995 50.1934 56.8305 50.2349 56.8466L59.667 60.4737L60.1252 58.2659Z" fill="#3B1534"/>
<path d="M130.766 65.0105L129.106 50.756C128.919 49.1417 128.416 47.58 127.625 46.1601C126.835 44.7402 125.772 43.49 124.498 42.4808C123.224 41.4716 121.764 40.7232 120.201 40.2784C118.638 39.8335 117.003 39.7008 115.388 39.888L100.022 41.6659C98.4622 41.8465 96.9899 42.4797 95.7864 43.4874C94.5828 44.4951 93.7006 45.8331 93.2487 47.3364C91.6717 47.5353 90.2279 48.3222 89.2061 49.5398C88.1843 50.7573 87.6598 52.3158 87.7375 53.9034L88.1725 62.9139C88.2108 63.7431 88.4124 64.5567 88.7657 65.3079C89.1191 66.0591 89.6173 66.7331 90.2317 67.2914C90.8461 67.8497 91.5647 68.2812 92.3462 68.5612C93.1277 68.8412 93.9568 68.9642 94.7859 68.9231L95.088 68.9081L95.2374 70.1897C95.5641 73.0073 96.9968 75.5797 99.2201 77.3411C101.443 79.1025 104.275 79.9085 107.093 79.5819L120.451 78.0331C121.984 77.8555 123.466 77.3777 124.814 76.6271C126.162 75.8765 127.348 74.8677 128.306 73.6584C129.264 72.4491 129.974 71.063 130.397 69.5792C130.819 68.0953 130.944 66.5429 130.766 65.0105Z" fill="#3B1534"/>
<path d="M118.82 80.2975L101.994 81.7683C101.107 81.8458 100.214 81.7479 99.3658 81.4803C98.5171 81.2127 97.7295 80.7805 97.0479 80.2085C96.3662 79.6364 95.804 78.9357 95.3931 78.1464C94.9823 77.3571 94.7309 76.4945 94.6534 75.608L92.9602 56.2491C92.9008 55.5705 92.9756 54.8867 93.1804 54.237C93.3852 53.5873 93.7161 52.9843 94.1541 52.4625C94.592 51.9406 95.1285 51.5102 95.7329 51.1958C96.3372 50.8814 96.9976 50.6891 97.6763 50.63L116.087 49.0215L118.82 80.2975Z" fill="#E5B4AC"/>
<path d="M132.051 143.27H83.6324C81.3708 143.27 79.2018 142.371 77.6026 140.772C76.0034 139.173 75.105 137.004 75.105 134.742V101.3C75.105 97.1672 76.7467 93.2038 79.669 90.2815C82.5912 87.3592 86.5547 85.7175 90.6874 85.7175H128.403C132.535 85.7175 136.499 87.3592 139.421 90.2815C142.343 93.2038 143.985 97.1672 143.985 101.3V131.336C143.985 134.501 142.728 137.536 140.49 139.774C138.252 142.012 135.216 143.27 132.051 143.27Z" fill="#5528A9"/>
<path d="M119.963 69.8477C122.54 69.8477 124.629 67.7585 124.629 65.1814C124.629 62.6043 122.54 60.5151 119.963 60.5151C117.386 60.5151 115.297 62.6043 115.297 65.1814C115.297 67.7585 117.386 69.8477 119.963 69.8477Z" fill="#E5B4AC"/>
<path d="M118.566 76.6246L103.459 77.9436L104.522 90.1132L119.628 88.7942L118.566 76.6246Z" fill="#E5B4AC"/>
<path d="M103.785 76.813C105.082 76.813 106.134 75.6707 106.134 74.2616C106.134 72.8525 105.082 71.7102 103.785 71.7102C102.488 71.7102 101.436 72.8525 101.436 74.2616C101.436 75.6707 102.488 76.813 103.785 76.813Z" fill="#3B1534"/>
<path d="M125.471 61.0481L112.855 62.5106C111.486 62.6686 110.099 62.5553 108.773 62.1772C107.448 61.7991 106.21 61.1636 105.13 60.307C104.05 59.4504 103.149 58.3895 102.479 57.1848C101.809 55.9801 101.383 54.6553 101.225 53.286L100.596 47.8677L123.634 45.1968L125.471 61.0481Z" fill="#3B1534"/>
<path d="M103.79 81.672L110.465 80.4419C110.535 80.4281 110.607 80.4398 110.669 80.4748C110.731 80.5098 110.778 80.5658 110.802 80.6327C110.826 80.6996 110.826 80.7729 110.8 80.8393C110.775 80.9057 110.727 80.9609 110.664 80.9947L104.051 84.66L103.79 81.672Z" fill="#3B1534"/>
<path d="M119.771 67.954C120.624 67.954 121.316 67.262 121.316 66.4085C121.316 65.555 120.624 64.863 119.771 64.863C118.917 64.863 118.225 65.555 118.225 66.4085C118.225 67.262 118.917 67.954 119.771 67.954Z" stroke="#3B1534" stroke-width="0.83" stroke-miterlimit="10" stroke-linecap="round"/>
<path d="M121.699 63.4253C121.699 63.4253 118.858 63.8287 118.391 65.7161" stroke="#3B1534" stroke-width="0.83" stroke-miterlimit="10" stroke-linecap="round"/>
<path d="M117.745 66.1093L111.576 87.9244C111.381 88.6161 111.783 89.3353 112.475 89.5309L122.305 92.3107C122.996 92.5063 123.716 92.1042 123.911 91.4125L130.08 69.5974C130.276 68.9057 129.874 68.1865 129.182 67.9909L119.352 65.2111C118.66 65.0155 117.941 65.4176 117.745 66.1093Z" fill="#F2EADA"/>
<path d="M125.013 71.0576L124.071 74.3913C123.912 74.9506 124.238 75.5323 124.797 75.6904L124.987 75.7442C125.546 75.9024 126.128 75.5772 126.286 75.0178L127.229 71.6842C127.387 71.1248 127.062 70.5432 126.502 70.385L126.312 70.3313C125.753 70.1731 125.171 70.4983 125.013 71.0576Z" stroke="#77C8D6" stroke-width="0.83" stroke-miterlimit="10" stroke-linecap="round"/>
<path d="M149.425 44.2756C149.922 43.2091 149.975 41.9887 149.573 40.883C149.17 39.7772 148.345 38.8766 147.278 38.3793C146.212 37.8827 144.991 37.8299 143.886 38.2327C142.78 38.6355 141.879 39.4609 141.382 40.5274L138.892 45.8543L146.935 49.6026L149.425 44.2756Z" fill="#F2EADA"/>
<path d="M144.46 54.9295L146.95 49.6025L138.907 45.8542L136.417 51.1828C136.171 51.7109 136.031 52.2823 136.006 52.8644C135.981 53.4464 136.071 54.0278 136.27 54.5752C136.47 55.1226 136.775 55.6253 137.169 56.0546C137.562 56.484 138.037 56.8316 138.565 57.0775C139.093 57.3236 139.665 57.4633 140.247 57.4885C140.829 57.5138 141.41 57.4241 141.957 57.2246C142.505 57.0251 143.008 56.7198 143.437 56.326C143.866 55.9322 144.214 55.4576 144.46 54.9295Z" fill="#FFB6DB"/>
<path d="M48.9916 134.586C51.8813 134.586 54.2239 132.243 54.2239 129.354C54.2239 126.464 51.8813 124.121 48.9916 124.121C46.1019 124.121 43.7593 126.464 43.7593 129.354C43.7593 132.243 46.1019 134.586 48.9916 134.586Z" fill="#F2EADA"/>
<path d="M51.173 125.21L46.8105 133.497" stroke="#77C8D6" stroke-width="0.83" stroke-miterlimit="10" stroke-linecap="round"/>
<path d="M49.3253 90.2175C49.9542 90.2175 50.464 89.7076 50.464 89.0787C50.464 88.4498 49.9542 87.9399 49.3253 87.9399C48.6964 87.9399 48.1865 88.4498 48.1865 89.0787C48.1865 89.7076 48.6964 90.2175 49.3253 90.2175Z" fill="#3B1534"/>
<path d="M53.3559 94.3759C54.6449 94.3759 55.6899 93.331 55.6899 92.042C55.6899 90.753 54.6449 89.708 53.3559 89.708C52.0669 89.708 51.022 90.753 51.022 92.042C51.022 93.331 52.0669 94.3759 53.3559 94.3759Z" fill="#FFB6DB"/>
<path d="M44.8598 99.2531C46.1488 99.2531 47.1938 98.2082 47.1938 96.9192C47.1938 95.6302 46.1488 94.5852 44.8598 94.5852C43.5708 94.5852 42.5259 95.6302 42.5259 96.9192C42.5259 98.2082 43.5708 99.2531 44.8598 99.2531Z" fill="#FFB6DB"/>
<path d="M29.5731 101.668C29.1269 100.579 28.2665 99.712 27.181 99.2572C26.0955 98.8024 24.8739 98.7973 23.7847 99.243C23.2455 99.4637 22.7551 99.7885 22.3415 100.199C21.9279 100.609 21.5992 101.097 21.3741 101.634C21.149 102.172 21.0321 102.748 21.0298 103.331C21.0276 103.913 21.1401 104.491 21.3611 105.03L23.5871 110.47L31.7991 107.106L29.5731 101.668Z" fill="#F2EADA"/>
<path d="M23.5869 110.47L25.8146 115.908C26.0352 116.447 26.3599 116.938 26.7702 117.352C27.1804 117.766 27.6682 118.095 28.2056 118.32C28.7431 118.546 29.3196 118.663 29.9024 118.666C30.4852 118.668 31.0628 118.556 31.6022 118.336C32.1417 118.115 32.6323 117.79 33.0463 117.38C33.4602 116.97 33.7893 116.482 34.0147 115.945C34.2402 115.407 34.3576 114.831 34.3602 114.248C34.3628 113.665 34.2506 113.087 34.03 112.548L31.8039 107.108L23.5869 110.47Z" fill="#77C8D6"/>
<path d="M84.6566 78.9803L76.7772 84.1285C74.672 85.5041 74.0804 88.3258 75.4559 90.431L83.6959 103.042C85.0714 105.147 87.8931 105.739 89.9983 104.363L97.8777 99.2151C99.983 97.8396 100.574 95.0179 99.199 92.9127L90.959 80.3015C89.5835 78.1963 86.7618 77.6047 84.6566 78.9803Z" fill="#77C8D6"/>
<path d="M86.101 78.8087L75.5683 85.6894L74.4644 83.9962C74.386 83.8763 74.332 83.7422 74.3054 83.6014C74.2789 83.4607 74.2804 83.3161 74.3099 83.1759C74.3393 83.0357 74.3962 82.9028 74.4771 82.7846C74.558 82.6664 74.6614 82.5654 74.7815 82.4872L83.4865 76.7984C83.6064 76.72 83.7405 76.6659 83.8812 76.6394C84.022 76.6129 84.1666 76.6144 84.3068 76.6439C84.4469 76.6733 84.5799 76.7301 84.6981 76.8111C84.8163 76.892 84.9173 76.9954 84.9955 77.1155L86.101 78.8087Z" fill="#F2EADA"/>
<path d="M91.569 81.2387L76.0659 91.3682L82.6851 101.499L98.1882 91.3693L91.569 81.2387Z" fill="#F2EADA"/>
<path d="M75.5796 82.2861L76.9607 84.3993" stroke="#3B1534" stroke-width="0.83" stroke-miterlimit="10" stroke-linecap="round"/>
<path d="M77.4375 81.0713L78.8186 83.1861" stroke="#3B1534" stroke-width="0.83" stroke-miterlimit="10" stroke-linecap="round"/>
<path d="M79.2949 79.8577L80.676 81.9725" stroke="#3B1534" stroke-width="0.83" stroke-miterlimit="10" stroke-linecap="round"/>
<path d="M81.1523 78.644L82.5335 80.7589" stroke="#3B1534" stroke-width="0.83" stroke-miterlimit="10" stroke-linecap="round"/>
<path d="M83.0098 77.4307L84.3909 79.5455" stroke="#3B1534" stroke-width="0.83" stroke-miterlimit="10" stroke-linecap="round"/>
<path d="M74.5342 108.372C74.1341 102.686 73.7225 91.5741 72.9838 86.1277L72.9472 85.8587C72.8941 85.4686 72.9107 84.9806 73.1132 84.637C73.8237 83.475 74.9957 84.9557 75.3808 85.5865C76.0731 86.7167 76.6071 87.9365 76.9678 89.2119C77.2865 90.359 77.3695 91.6372 78.1198 92.6133C78.2949 92.8842 78.5619 93.0828 78.8718 93.1727C80.1218 93.4433 81.463 91.5724 82.0938 90.7391C83.372 89.0542 84.1539 87.1552 84.8992 85.1947C84.8992 85.1947 85.8073 82.8077 87.2232 83.0235C87.2232 83.0235 87.9022 83.1015 88.0781 83.621C88.3769 82.7263 88.5911 81.4298 89.2119 80.7077C90.2312 79.5258 91.7467 80.6745 91.8812 81.883C91.858 81.6689 92.3443 81.3253 92.4921 81.2539C93.1644 80.9219 93.8201 81.3684 94.1521 81.9561C94.4135 82.4497 94.5823 82.987 94.6501 83.5414C94.6932 83.8468 94.8725 86.1592 94.6003 86.2223C94.6003 86.2223 96.3433 85.8156 96.0744 89.1538C95.915 90.3615 95.6591 91.5544 95.3091 92.7212C94.4476 95.593 92.7046 98.0647 91.4098 100.742C90.0087 103.641 89.6452 106.859 88.5131 109.854L74.5342 108.372Z" fill="#E5B4AC"/>
<path d="M88.0963 83.6145C88.0963 83.6145 88.3437 88.7323 85.4536 92.8325" stroke="#3B1534" stroke-width="0.83" stroke-miterlimit="10" stroke-linecap="round"/>
<path d="M91.7348 81.9062C91.7348 81.9062 93.1375 89.2103 88.6538 94.2185" stroke="#3B1534" stroke-width="0.83" stroke-miterlimit="10" stroke-linecap="round"/>
<path d="M94.5335 86.0508C94.5335 86.0508 94.0952 92.3588 91.1753 95.8597" stroke="#3B1534" stroke-width="0.83" stroke-miterlimit="10" stroke-linecap="round"/>
<path d="M132.275 97.3224C132.275 97.3224 130.665 90.2856 130.383 84.6715C130.297 83.1848 130.462 81.6941 130.873 80.2626C131.258 78.9761 132.611 77.404 132.275 76.0163C132.233 75.8507 132.157 75.6957 132.052 75.5611C131.947 75.4265 131.815 75.3153 131.665 75.2344C130.914 74.8925 129.888 75.7324 129.463 76.0843C129.038 76.4363 128.338 77.1019 127.458 78.8233C127.458 78.8233 126.987 79.7446 125.875 82.8073C123.603 82.4377 121.445 81.5556 119.565 80.228C117.685 78.9004 116.131 77.162 115.023 75.1448C114.452 75.2102 113.923 75.4761 113.529 75.8951C112.636 76.8728 113.006 78.2091 113.031 78.2905C113.031 78.2905 110.921 79.3645 111.808 81.6453C111.808 81.6453 110.33 83.2107 111.59 85.1778L112.618 86.7034C112.618 86.7034 112.634 87.6479 112.636 87.7541C112.679 89.5801 114.323 92.4968 114.779 93.2803C114.884 93.4596 114.925 93.5276 115.002 93.6554C115.832 95.0465 116.869 97.1946 117.838 100.534L132.275 97.3224Z" fill="#E5B4AC"/>
<path d="M113.033 78.2971C113.033 78.2971 115.239 83.8465 119.55 84.0059" stroke="#3B1534" stroke-width="0.83" stroke-miterlimit="10" stroke-linecap="round"/>
<path d="M111.809 81.6521C111.809 81.6521 113.801 87.1982 118.781 87.3061" stroke="#3B1534" stroke-width="0.83" stroke-miterlimit="10" stroke-linecap="round"/>
<path d="M112.619 86.7102C113.302 87.674 114.184 88.48 115.205 89.074C116.227 89.6679 117.363 90.0359 118.539 90.1531" stroke="#3B1534" stroke-width="0.83" stroke-miterlimit="10" stroke-linecap="round"/>
<path d="M75.6315 145.756L73.5266 145.424C70.5578 144.946 67.9007 143.308 66.1397 140.87C64.3786 138.433 63.6579 135.395 64.136 132.427L67.705 110.269C67.7873 109.757 67.9698 109.266 68.242 108.824C68.5142 108.382 68.8707 107.998 69.2913 107.695C69.7118 107.391 70.1881 107.173 70.693 107.053C71.1978 106.933 71.7213 106.914 72.2335 106.997L88.9248 109.685C89.9581 109.851 90.883 110.421 91.4965 111.269C92.1099 112.118 92.3617 113.174 92.1966 114.208L88.6276 136.364C88.3911 137.834 87.8672 139.243 87.0861 140.511C86.3049 141.778 85.2817 142.88 84.0749 143.752C82.8681 144.624 81.5013 145.25 80.0525 145.594C78.6038 145.938 77.1015 145.993 75.6315 145.756Z" fill="#5528A9"/>
<path d="M69.4893 113.22L88.7718 115.969" stroke="#FFACD2" stroke-width="0.83" stroke-miterlimit="10" stroke-linecap="round"/>
<path d="M136.173 145.383L134.228 145.793C131.482 146.373 128.619 145.839 126.267 144.308C123.916 142.777 122.268 140.374 121.688 137.629L114.587 104.017C114.497 103.592 114.492 103.154 114.571 102.727C114.651 102.3 114.814 101.893 115.051 101.529C115.288 101.165 115.594 100.852 115.952 100.606C116.31 100.36 116.713 100.188 117.138 100.098L133.316 96.6801C134.174 96.4991 135.069 96.6662 135.804 97.1447C136.539 97.6231 137.054 98.3737 137.236 99.2315L144.337 132.843C144.917 135.589 144.383 138.452 142.852 140.804C141.321 143.155 138.919 144.802 136.173 145.383Z" fill="#5528A9"/>
<path d="M117.744 107.166L134.664 103.894" stroke="#FFACD2" stroke-width="0.83" stroke-miterlimit="10" stroke-linecap="round"/>
<path d="M84.4341 143.27C88.9061 138.527 89.263 132.425 90.2441 126.321L92.1365 114.573C92.1365 114.573 92.754 111.263 88.5559 109.62" stroke="#F2EADA" stroke-width="0.83" stroke-miterlimit="10" stroke-linecap="round"/>
<path d="M125.537 143.27C122.177 140.504 121.055 135.844 120.225 131.776C118.921 125.29 117.672 118.79 116.201 112.339C115.431 108.961 112.749 101.809 117.435 100.035" stroke="#F2EADA" stroke-width="0.83" stroke-miterlimit="10" stroke-linecap="round"/>
<path d="M130.507 62.7764C129.1 62.8828 127.746 63.3662 126.59 64.1757" stroke="#3B1534" stroke-width="0.83" stroke-miterlimit="10" stroke-linecap="round"/>
</svg>
