<svg width="186" height="186" viewBox="0 0 186 186" fill="none" xmlns="http://www.w3.org/2000/svg">
<path d="M140.964 68.0896L93.2235 74.7856C84.714 75.9797 78.3119 82.8822 78.0273 91.1722L75.7935 156.241H115.166L124.228 123.733C129.807 105.183 135.385 86.635 140.964 68.0896Z" fill="#34CA8D"/>
<path d="M149.022 66.9593L140.964 68.0902C135.384 86.6344 129.804 105.179 124.224 123.725C122.935 132.788 127.29 141.514 134.705 145.284C143.805 149.908 156.073 146.339 161.917 136.313C163.336 131.427 165.215 124.835 167.348 116.997C171.186 102.895 171.922 99.1597 172.153 94.4315C172.56 86.0615 172.874 78.9396 168.104 73.4135C162.042 66.3623 151.577 66.7864 149.022 66.9593Z" fill="#34CA8D"/>
<path d="M123.877 62.7028H120.46V33.8728H133.936V52.6383C133.937 53.9599 133.678 55.2687 133.173 56.49C132.668 57.7113 131.927 58.821 130.993 59.7557C130.058 60.6905 128.949 61.4319 127.728 61.9376C126.507 62.4433 125.198 62.7033 123.877 62.7028Z" fill="#3B1534"/>
<path d="M80.4281 155.346L76.0738 156.944C71.971 158.45 67.4378 158.265 63.4714 156.429C59.505 154.594 56.4303 151.257 54.9237 147.154L40.8733 108.877C40.2581 107.203 39.9788 105.424 40.0513 103.642C40.1237 101.86 40.5466 100.11 41.2957 98.4913C42.0449 96.8726 43.1055 95.4175 44.4172 94.2089C45.7288 93.0003 47.2657 92.0619 48.9401 91.4474L58.7312 87.8521C60.4053 87.2369 62.1842 86.9575 63.9663 87.03C65.7484 87.1025 67.4988 87.5254 69.1174 88.2745C70.736 89.0236 72.1912 90.0843 73.3998 91.3959C74.6084 92.7076 75.5467 94.2445 76.1612 95.9189L90.2098 134.196C91.7167 138.298 91.5328 142.83 89.6984 146.796C87.8641 150.763 84.5295 153.838 80.4281 155.346Z" fill="#34CA8D"/>
<path d="M126.757 72.8148C123.246 75.2601 119.159 76.7486 114.898 77.1338C112.478 77.3379 110.042 77.1736 107.672 76.6464C106.593 71.2698 105.514 65.8931 104.434 60.5165L123.519 56.6868L126.757 72.8148Z" fill="#E5B4AC"/>
<path d="M105.637 66.5113L117.014 64.1696C117.117 64.1492 117.223 64.1649 117.315 64.2141C117.407 64.2633 117.48 64.3428 117.52 64.4393C117.56 64.5358 117.565 64.6431 117.535 64.7432C117.505 64.8432 117.441 64.9297 117.355 64.988L106.742 72.0188L105.637 66.5113Z" fill="#3B1534"/>
<path d="M123.039 35.8035L114.308 35.969L102.672 36.1885L96.8519 36.3001L93.9429 36.354C93.5411 36.354 92.7897 36.2275 92.4251 36.3819C92.0606 36.5363 92.1871 37.0143 92.1778 37.4328C92.0662 42.3767 91.8839 47.328 91.7667 52.2775L91.683 61.9755C91.683 61.9997 91.683 62.0239 91.683 62.0481C91.6514 62.9186 91.8174 63.785 92.1686 64.5822C92.5198 65.3793 93.047 66.0866 93.7107 66.6508C94.3744 67.2149 95.1574 67.6214 96.0007 67.8397C96.844 68.0579 97.7258 68.0822 98.5799 67.9108L107.694 66.0861L124.763 62.5651C124.191 53.6446 123.617 44.724 123.039 35.8035Z" fill="#E5B4AC"/>
<path d="M111.658 45.2346L121.069 41.1426" stroke="#3B1534" stroke-width="0.93" stroke-miterlimit="10" stroke-linecap="round"/>
<path d="M114.821 56.8076L122.693 49.9907" stroke="#3B1534" stroke-width="0.93" stroke-miterlimit="10" stroke-linecap="round"/>
<path d="M124.767 41.9132H118.296C116.915 41.9132 115.59 41.3645 114.614 40.3878C113.637 39.4111 113.088 38.0865 113.088 36.7052V33.519H124.765L124.767 41.9132Z" fill="#3B1534"/>
<path d="M124.147 50.8599C127.254 50.8599 129.772 48.3416 129.772 45.2352C129.772 42.1288 127.254 39.6106 124.147 39.6106C121.041 39.6106 118.522 42.1288 118.522 45.2352C118.522 48.3416 121.041 50.8599 124.147 50.8599Z" fill="#E5B4AC"/>
<path d="M123.922 47.6942C124.919 47.6942 125.728 46.8856 125.728 45.8881C125.728 44.8906 124.919 44.082 123.922 44.082C122.924 44.082 122.116 44.8906 122.116 45.8881C122.116 46.8856 122.924 47.6942 123.922 47.6942Z" stroke="#3B1534" stroke-width="0.93" stroke-miterlimit="10" stroke-linecap="round"/>
<path d="M133.935 36.6142H92.2446V33.2309C92.2446 30.2054 93.4465 27.3039 95.5858 25.1646C97.7251 23.0253 100.627 21.8235 103.652 21.8235H122.527C125.553 21.8235 128.454 23.0253 130.594 25.1646C132.733 27.3039 133.935 30.2054 133.935 33.2309V36.6142Z" fill="#689AFF"/>
<path d="M126.177 42.4077C126.177 42.4077 122.857 42.8783 122.312 45.0824" stroke="#3B1534" stroke-width="0.93" stroke-miterlimit="10" stroke-linecap="round"/>
<path d="M132.179 97.3413L124.227 123.724" stroke="#3B1534" stroke-width="0.93" stroke-miterlimit="10" stroke-linecap="round"/>
<path d="M102.784 77.0542C104.932 79.5615 107.137 80.724 108.643 81.3155C115.415 83.9381 124.094 80.9323 130.736 73.8755" stroke="#3B1534" stroke-width="0.93" stroke-miterlimit="10" stroke-linecap="round"/>
<path d="M49.6044 92.1484C49.6044 92.1484 47.3463 98.9802 50.2144 103.284" stroke="#3B1534" stroke-width="0.93" stroke-miterlimit="10" stroke-linecap="round"/>
<path d="M56.3042 90.7681C58.5278 94.1007 59.5185 98.1049 59.1054 102.09" stroke="#3B1534" stroke-width="0.93" stroke-miterlimit="10" stroke-linecap="round"/>
<path d="M82.3082 91.5981L80.2808 107.137" stroke="#3B1534" stroke-width="0.93" stroke-miterlimit="10" stroke-linecap="round"/>
<path d="M52.3239 67.1179C51.6729 67.0844 51.0219 67.0807 50.3709 67.0807L17.7334 67.0398C16.3589 67.0398 13.859 66.9431 13.0406 68.3176C12.1943 69.7387 13.1169 71.7103 14.3798 72.5082C15.7395 73.3657 17.4358 73.4252 19.0429 73.4587L25.3948 73.5907C24.9781 75.1792 26.5108 76.6951 28.1215 77.0447C29.7323 77.3944 31.384 76.9815 33.0226 76.9183C35.0277 76.8439 37.2448 77.3498 38.6845 78.8378C40.4719 80.6829 41.6196 83.0135 42.996 85.1618C43.8255 86.4508 44.67 87.7286 45.5051 89.0101C45.7469 89.3821 47.7892 92.9161 48.018 92.8659L66.804 88.2401C65.3513 82.2397 63.575 76.1296 59.788 71.2546C58.6944 69.8465 57.3979 68.5259 55.7574 67.8229C54.6842 67.3523 53.5068 67.1812 52.3239 67.1179Z" fill="#689AFF"/>
<path d="M67.4307 76.521H63.4131V83.6429H67.4307V76.521Z" stroke="#3B1534" stroke-width="0.93" stroke-miterlimit="10" stroke-linecap="round"/>
<path d="M71.2385 85.1438C71.2385 84.5257 70.9929 83.9329 70.5559 83.4958C70.1188 83.0588 69.526 82.8132 68.9079 82.8132H61.9385C61.3204 82.8132 60.7276 83.0588 60.2905 83.4958C59.8535 83.9329 59.6079 84.5257 59.6079 85.1438V88.5643H71.2385V85.1438Z" fill="#FFB6DB"/>
<path d="M71.2345 88.5637H59.6113V114.992H71.2345V88.5637Z" fill="#3B1534"/>
<path d="M71.2338 91.627H65.9941" stroke="#34CA8D" stroke-width="0.93" stroke-miterlimit="10" stroke-linecap="round"/>
<path d="M71.2338 95.6787H65.9941" stroke="#34CA8D" stroke-width="0.93" stroke-miterlimit="10" stroke-linecap="round"/>
<path d="M71.2338 99.9995H65.9941" stroke="#34CA8D" stroke-width="0.93" stroke-miterlimit="10" stroke-linecap="round"/>
<path d="M65.4214 76.52V67.3074" stroke="#3B1534" stroke-width="0.93" stroke-miterlimit="10" stroke-linecap="round"/>
<path d="M64.8022 62.0754C64.8274 62.0568 64.8499 62.0349 64.8692 62.0103C64.8925 61.9802 64.9102 61.9462 64.9213 61.9098C65.5555 59.7838 65.4328 56.7688 65.4328 56.7688C65.3658 55.1059 65.3081 54.0885 64.7092 53.0209C64.5552 52.709 64.2955 52.4618 63.9764 52.3234C62.9794 51.9179 62.36 53.2292 62.228 53.9974C61.8783 56.0434 62.5516 58.0336 63.2826 59.9271C63.3905 60.2135 64.3186 62.3841 64.8022 62.0754Z" fill="#689AFF"/>
<path d="M66.5359 64.8414C66.5666 64.848 66.5983 64.848 66.6289 64.8414C66.6667 64.834 66.7031 64.8208 66.7368 64.8023C68.6545 63.6863 70.6298 61.406 70.6298 61.406C71.7179 60.1486 72.3726 59.36 72.6758 58.1789C72.7751 57.8458 72.7547 57.4885 72.6181 57.1689C72.168 56.1905 70.8195 56.7243 70.2001 57.1968C68.5391 58.4523 67.6705 60.3588 66.9079 62.2392C66.774 62.5182 65.9723 64.7279 66.5359 64.8414Z" fill="#689AFF"/>
<path d="M68.6135 112.392C68.6135 112.392 64.9586 112.937 62.775 96.1318C62.775 96.1318 62.2003 88.8443 58.4728 91.1358C58.4728 91.1358 56.5403 92.1253 57.7976 102.597L58.8132 108.996C58.8132 108.996 58.7555 109.1 58.6607 109.289C57.8409 110.92 57.4084 112.718 57.3968 114.543C57.3851 116.369 57.7947 118.172 58.5937 119.813L63.3442 129.627C64.1056 131.221 65.1222 132.68 66.3536 133.947C67.2465 134.855 68.2457 135.652 69.3296 136.321C72.07 137.994 75.2475 138.81 78.4548 138.664L89.7264 126.831L85.5451 121.179C85.8354 120.188 86.0102 119.167 86.0659 118.136C86.1459 116.7 86.1961 115.783 85.6586 114.871C85.0206 113.789 83.9157 113.322 83.2852 113.123C83.2443 112.688 83.0043 110.534 81.1518 109.031C80.3011 108.351 79.2761 107.925 78.1944 107.801C78.1739 107.126 78.1386 106.142 78.0828 104.956C77.7815 98.6204 77.3686 97.257 76.366 96.3438C76.1317 96.1299 75.3114 95.384 74.1191 95.3543C73.9015 95.3543 73.0031 95.3264 72.3019 95.8955C71.4947 96.5595 71.4073 97.9713 71.357 100.772C71.2901 104.439 71.3738 104.719 71.3198 105.679C71.238 107.15 71.1376 112.697 68.6135 112.392Z" fill="#689AFF"/>
<path d="M76.1855 117.522C77.5538 114.499 78.2475 111.215 78.2185 107.897" stroke="#3B1534" stroke-width="0.93" stroke-miterlimit="10" stroke-linecap="round"/>
<path d="M81.1914 119.658C81.1914 119.658 82.6794 118.341 83.2858 113.124" stroke="#3B1534" stroke-width="0.93" stroke-miterlimit="10" stroke-linecap="round"/>
<path d="M82.8721 125.481C84.1938 124.364 85.1291 122.859 85.5449 121.179" stroke="#3B1534" stroke-width="0.93" stroke-miterlimit="10" stroke-linecap="round"/>
<path d="M44.2384 42.681C43.1445 41.9694 41.8666 41.593 40.5616 41.5979C39.2567 41.6029 37.9816 41.9891 36.8932 42.7089L36.8281 48.9343H44.4225C44.358 46.8499 44.2966 44.7655 44.2384 42.681Z" fill="#689AFF"/>
<path d="M40.5827 44.0483C42.5519 44.0483 44.1483 43.5012 44.1483 42.8263C44.1483 42.1514 42.5519 41.6042 40.5827 41.6042C38.6135 41.6042 37.0171 42.1514 37.0171 42.8263C37.0171 43.5012 38.6135 44.0483 40.5827 44.0483Z" stroke="#3B1534" stroke-width="0.93" stroke-miterlimit="10" stroke-linecap="round"/>
<path d="M41.7017 48.935V44.3352" stroke="#3B1534" stroke-width="0.93" stroke-miterlimit="10" stroke-linecap="round"/>
<path d="M39.1626 48.7929V44.1931" stroke="#3B1534" stroke-width="0.93" stroke-miterlimit="10" stroke-linecap="round"/>
<path d="M45.6309 48.9351H35.533C34.3239 48.9351 33.3438 49.9152 33.3438 51.1243V67.6429C33.3438 68.852 34.3239 69.8322 35.533 69.8322H45.6309C46.84 69.8322 47.8201 68.852 47.8201 67.6429V51.1243C47.8201 49.9152 46.84 48.9351 45.6309 48.9351Z" fill="#34CA8D"/>
<path d="M42.618 66.0804H33.6528V53.585H42.618C42.7232 53.585 42.8274 53.6057 42.9245 53.646C43.0217 53.6863 43.1099 53.7454 43.1842 53.8199C43.2585 53.8943 43.3174 53.9827 43.3575 54.08C43.3976 54.1772 43.4181 54.2814 43.4178 54.3866V65.2862C43.4164 65.4974 43.3314 65.6994 43.1816 65.8482C43.0318 65.9969 42.8292 66.0804 42.618 66.0804Z" fill="#FFB6DB"/>
<path d="M25.3945 73.5913C25.4931 71.2626 27.647 70.5223 29.6446 70.3624C32.4477 70.1373 35.3418 70.2936 38.1541 70.2619" stroke="#3B1534" stroke-width="0.93" stroke-miterlimit="10" stroke-linecap="round"/>
<path d="M95.0513 31.9602H130.929" stroke="#34CA8D" stroke-width="0.93" stroke-miterlimit="10" stroke-linecap="round"/>
<path d="M111.176 164.85L82.5837 155.219C74.5596 152.517 71.8868 142.508 77.4929 136.165L85.2267 127.423C86.4148 126.08 87.8928 125.023 89.5491 124.334C91.2053 123.645 92.9964 123.342 94.7871 123.447L149.89 123.408C151.702 123.408 153.491 123.817 155.124 124.605C156.757 125.393 158.19 126.538 159.319 127.957C160.448 129.375 161.242 131.03 161.643 132.797C162.043 134.565 162.04 136.4 161.634 138.167C155.559 159.867 132.534 172.05 111.176 164.85Z" fill="#34CA8D"/>
<path d="M79.6079 134.205C80.8153 136.36 82.4981 138.213 84.5286 139.621C86.559 141.029 88.8836 141.956 91.3259 142.331" stroke="#3B1534" stroke-width="0.93" stroke-miterlimit="10" stroke-linecap="round"/>
<path d="M83.9478 129.291C88.4439 129.842 92.5836 132.018 95.5876 135.408" stroke="#3B1534" stroke-width="0.93" stroke-miterlimit="10" stroke-linecap="round"/>
<path d="M145.556 123.418L119.554 123.79C114.087 123.869 108.42 123.915 102.875 123.818C99.997 123.766 97.1208 123.673 94.2465 123.537C92.1168 123.437 89.8383 123.288 88.2368 124.972" stroke="#3B1534" stroke-width="0.93" stroke-miterlimit="10" stroke-linecap="round"/>
<path d="M94.8493 159.35L82.5845 155.219C78.1558 153.945 74.8655 150.365 74.1773 146.064C73.3719 141.031 76.5004 137.337 76.9673 136.805" stroke="#3B1534" stroke-width="0.93" stroke-miterlimit="10" stroke-linecap="round"/>
<path d="M111.554 44.8823L91.7634 52.2777C91.6983 55.0361 91.6536 57.7926 91.6536 60.5472C91.622 61.9571 91.5978 63.4116 92.1279 64.7174C92.5985 65.8743 93.6159 66.8285 94.6929 67.4199C97.0328 68.7108 99.6349 67.7492 102.044 67.2525L104.331 66.7801L105.883 66.4602L106.757 66.2742C106.932 66.2388 107.592 66.2091 107.698 66.0882L115.134 57.0597L111.554 44.8823Z" fill="#34CA8D"/>
<path d="M91.6792 56.6866L107.034 51.2034" stroke="#689AFF" stroke-width="0.93" stroke-miterlimit="10" stroke-linecap="round"/>
<path d="M91.6792 61.9752L104.433 57.4871" stroke="#689AFF" stroke-width="0.93" stroke-miterlimit="10" stroke-linecap="round"/>
</svg>
