<svg width="186" height="186" viewBox="0 0 186 186" fill="none" xmlns="http://www.w3.org/2000/svg">
<path d="M110.444 91.7133C100.759 95.4166 93.059 98.4093 87.6911 100.375C85.8208 101.005 84.1181 102.052 82.7119 103.437C81.6856 104.473 80.8523 105.685 80.2511 107.014C79.2989 109.144 78.9292 111.488 79.1797 113.808L82.4831 146.161L111.685 147.236L158.888 146.317C148.671 125.777 138.455 105.239 128.243 84.7048L110.444 91.7133Z" fill="#5528A9"/>
<path d="M179.861 139.178L162.548 94.7037C157.965 82.9354 144.72 77.454 133.437 82.6583L128.242 84.7043L154.751 138.012C155.992 140.509 157.903 142.611 160.27 144.086C162.636 145.561 165.366 146.349 168.154 146.363L175.088 146.397C178.656 146.397 181.122 142.403 179.861 139.178Z" fill="#5528A9"/>
<path d="M114.478 76.7864L113.44 77.1305L104.11 49.0111L113.317 45.9551L119.937 65.9073C120.293 66.9801 120.434 68.1125 120.352 69.2398C120.27 70.3672 119.967 71.4674 119.46 72.4776C118.954 73.4879 118.253 74.3883 117.398 75.1277C116.543 75.867 115.55 76.4306 114.478 76.7864Z" fill="#3B1534"/>
<path d="M70.8177 66.7864H10.2784C7.75856 66.7864 5.71582 68.8291 5.71582 71.349V117.538C5.71582 120.058 7.75856 122.101 10.2784 122.101H70.8177C73.3375 122.101 75.3803 120.058 75.3803 117.538V71.349C75.3803 68.8291 73.3375 66.7864 70.8177 66.7864Z" stroke="#77C8D6" stroke-width="0.93" stroke-miterlimit="10" stroke-linecap="round"/>
<path d="M50.7231 76.0815H17.7416C16.1031 76.0815 14.7749 77.4098 14.7749 79.0482V102.914C14.7749 104.552 16.1031 105.881 17.7416 105.881H50.7231C52.3616 105.881 53.6898 104.552 53.6898 102.914V79.0482C53.6898 77.4098 52.3616 76.0815 50.7231 76.0815Z" fill="#77C8D6"/>
<path d="M75.3807 84.7428H58.8806C58.4939 84.7428 58.1229 84.5892 57.8495 84.3157C57.576 84.0422 57.4224 83.6713 57.4224 83.2846V66.7864H70.7418C71.9718 66.7864 73.1514 67.2749 74.0213 68.1444C74.8912 69.014 75.3802 70.1934 75.3807 71.4234V84.7428Z" fill="#3B1534"/>
<path d="M57.6958 90.8289H72.7172" stroke="#3B1534" stroke-width="0.93" stroke-miterlimit="10" stroke-linecap="round"/>
<path d="M57.6958 95.019H72.7172" stroke="#3B1534" stroke-width="0.93" stroke-miterlimit="10" stroke-linecap="round"/>
<path d="M57.6958 99.2083H68.0765" stroke="#3B1534" stroke-width="0.93" stroke-miterlimit="10" stroke-linecap="round"/>
<path d="M18.4043 117.422C20.3808 117.422 21.983 115.819 21.983 113.843C21.983 111.867 20.3808 110.264 18.4043 110.264C16.4279 110.264 14.8257 111.867 14.8257 113.843C14.8257 115.819 16.4279 117.422 18.4043 117.422Z" fill="#5528A9"/>
<path d="M41.4756 117.422C43.452 117.422 45.0543 115.819 45.0543 113.843C45.0543 111.867 43.452 110.264 41.4756 110.264C39.4992 110.264 37.897 111.867 37.897 113.843C37.897 115.819 39.4992 117.422 41.4756 117.422Z" fill="#5528A9"/>
<path d="M64.544 117.422C66.5204 117.422 68.1226 115.819 68.1226 113.843C68.1226 111.867 66.5204 110.264 64.544 110.264C62.5675 110.264 60.9653 111.867 60.9653 113.843C60.9653 115.819 62.5675 117.422 64.544 117.422Z" fill="#5528A9"/>
<path d="M66.4001 78.5087C68.1968 78.5087 69.6533 77.0522 69.6533 75.2556C69.6533 73.4589 68.1968 72.0024 66.4001 72.0024C64.6035 72.0024 63.147 73.4589 63.147 75.2556C63.147 77.0522 64.6035 78.5087 66.4001 78.5087Z" fill="#5528A9"/>
<path d="M71.0266 84.7443H61.7769V81.7516C61.7769 80.6637 62.2089 79.6203 62.978 78.8509C63.7471 78.0814 64.7902 77.6489 65.8782 77.6484H66.9235C68.0117 77.6484 69.0554 78.0807 69.8248 78.8502C70.5943 79.6197 71.0266 80.6634 71.0266 81.7516V84.7443Z" fill="#5528A9"/>
<path d="M115.423 79.1327L91.3262 87.7557C90.4808 88.0586 89.5841 88.192 88.6872 88.1482C87.7902 88.1044 86.9107 87.8843 86.0989 87.5005C85.2871 87.1167 84.5588 86.5767 83.9557 85.9113C83.3527 85.246 82.8866 84.4683 82.5842 83.6227L71.9487 53.9055L102.486 42.978L115.423 79.1327Z" fill="#E5B4AC"/>
<path d="M105.463 31.396C103.975 31.3945 102.502 31.6947 101.134 32.2785C99.7659 32.8622 98.5302 33.7174 97.5018 34.7924C94.4332 33.4284 90.9864 33.172 87.7498 34.067C82.8859 35.369 79.2756 38.8658 77.9346 42.9838C76.1129 42.6011 74.2203 42.7373 72.4722 43.377C70.724 44.0166 69.1905 45.1341 68.0461 46.6022C66.9016 48.0703 66.1921 49.8301 65.9984 51.6815C65.8046 53.5329 66.1343 55.4015 66.95 57.0747C67.7657 58.748 69.0346 60.1587 70.6124 61.1465C72.1902 62.1343 74.0135 62.6594 75.875 62.6622C77.7365 62.6649 79.5614 62.1452 81.1421 61.1621C82.7228 60.179 83.9959 58.772 84.8166 57.1012C87.7175 58.23 90.8995 58.4206 93.9145 57.6462C96.9295 56.8718 99.6257 55.1713 101.624 52.7841C103.138 53.348 104.758 53.5725 106.369 53.4417C107.98 53.3109 109.542 52.8281 110.946 52.0273C112.35 51.2264 113.561 50.1272 114.494 48.8071C115.426 47.487 116.057 45.9783 116.343 44.3876C116.628 42.7968 116.561 41.1627 116.146 39.6008C115.731 38.0388 114.978 36.587 113.94 35.348C112.902 34.1089 111.605 33.1128 110.141 32.4299C108.676 31.747 107.079 31.3941 105.463 31.396Z" fill="#3B1534"/>
<path d="M113.924 57.7158L106.59 60.7569C105.524 61.1986 104.326 61.1989 103.26 60.7577C102.194 60.3165 101.346 59.4699 100.904 58.404L98.062 51.5499L109.408 46.8423L113.924 57.7158Z" fill="#3B1534"/>
<path d="M113.659 74.7078L96.0132 81.5321L99.4319 90.3708L116.817 82.8787L113.659 74.7078Z" fill="#E5B4AC"/>
<path d="M90.938 78.7693C91.0087 78.8084 92.5618 79.6212 94.0553 78.7284C95.3573 77.9453 95.5433 76.5094 95.5526 76.3513" stroke="#3B1534" stroke-width="0.93" stroke-miterlimit="10" stroke-linecap="round"/>
<path d="M97.5562 85.5255L105.251 82.7708C105.354 82.7334 105.467 82.734 105.57 82.7723C105.673 82.8107 105.758 82.8844 105.812 82.9803C105.865 83.0761 105.882 83.1878 105.861 83.2953C105.839 83.4028 105.78 83.4991 105.694 83.5669L98.8954 88.9851L97.5562 85.5255Z" fill="#3B1534"/>
<path d="M99.4321 90.3717L101.898 96.7459L119.542 89.9216L116.818 82.8796L99.4321 90.3717Z" fill="#77C8D6"/>
<path d="M72.4069 128.866H33.598C32.8728 128.866 32.1774 129.155 31.6646 129.667C31.1518 130.18 30.8638 130.876 30.8638 131.601V138.756H72.4069V128.866Z" fill="#77C8D6"/>
<path d="M30.8638 138.756V145.899C30.8638 146.624 31.1518 147.319 31.6646 147.832C32.1774 148.345 32.8728 148.633 33.598 148.633H72.4069V138.756H30.8638Z" fill="#5528A9"/>
<path d="M72.4083 146.028H36.6237C36.0753 146.028 35.5492 145.811 35.1605 145.424C34.7718 145.037 34.5523 144.512 34.5498 143.963V143.435C34.5496 143.163 34.603 142.893 34.7071 142.641C34.8113 142.389 34.964 142.16 35.1566 141.967C35.3492 141.775 35.5779 141.622 35.8296 141.517C36.0814 141.413 36.3512 141.359 36.6237 141.359H72.4083V146.028Z" stroke="#E5B4AC" stroke-width="0.93" stroke-miterlimit="10"/>
<path d="M38.7381 128.866H36.2085V138.749H38.7381V128.866Z" fill="#F2EADA"/>
<path d="M44.7151 128.866H42.1855V138.749H44.7151V128.866Z" fill="#F2EADA"/>
<path d="M104.282 143.69C101.096 143.697 97.9797 142.758 95.3281 140.992C92.6765 139.226 90.6087 136.713 89.3868 133.771L89.3366 133.646C87.6184 129.425 86.6328 124.942 86.422 120.39C86.4024 119.989 86.2292 119.61 85.9384 119.333C85.6475 119.056 85.2613 118.902 84.8596 118.902H55.0568C54.8485 118.902 54.6424 118.943 54.4504 119.024C54.2584 119.105 54.0844 119.223 53.9387 119.372C53.793 119.521 53.6785 119.697 53.6019 119.891C53.5253 120.084 53.4881 120.291 53.4925 120.5C53.6023 125.988 54.7945 142.892 65.2105 147.557C66.4612 148.114 67.7887 148.479 69.1482 148.64H130.158C130.158 147.329 129.637 146.072 128.711 145.145C127.784 144.218 126.527 143.698 125.216 143.698L104.282 143.69Z" fill="#F2EADA"/>
<path d="M173.32 137.909C175.796 137.907 178.212 138.672 180.234 140.1C180.117 139.143 179.753 138.232 179.178 137.457C178.604 136.682 177.839 136.07 176.957 135.679L135.099 117.391L125.381 139.572L156.465 153.15C158.285 153.949 160.228 154.427 162.211 154.565C161.451 152.737 161.155 150.749 161.347 148.779C161.54 146.808 162.215 144.916 163.314 143.269C164.413 141.621 165.901 140.271 167.646 139.336C169.392 138.402 171.341 137.912 173.32 137.911V137.909Z" fill="#5528A9"/>
<path d="M140.607 109.726L147.29 122.72" stroke="#3B1534" stroke-width="0.93" stroke-miterlimit="10" stroke-linecap="round"/>
<path d="M110.057 70.0505C113.348 70.0505 116.016 67.3823 116.016 64.091C116.016 60.7997 113.348 58.1316 110.057 58.1316C106.765 58.1316 104.097 60.7997 104.097 64.091C104.097 67.3823 106.765 70.0505 110.057 70.0505Z" fill="#E5B4AC"/>
<path d="M109.262 66.1969C110.183 66.1969 110.93 65.45 110.93 64.5285C110.93 63.6071 110.183 62.8601 109.262 62.8601C108.34 62.8601 107.593 63.6071 107.593 64.5285C107.593 65.45 108.34 66.1969 109.262 66.1969Z" stroke="#3B1534" stroke-width="0.93" stroke-miterlimit="10" stroke-linecap="round"/>
<path d="M111.229 61.5437C111.229 61.5437 108.16 61.9789 107.656 64.0156" stroke="#3B1534" stroke-width="0.93" stroke-miterlimit="10" stroke-linecap="round"/>
<path d="M113.377 91.7254L107.232 87.5144" stroke="#3B1534" stroke-width="0.93" stroke-miterlimit="10" stroke-linecap="round"/>
<path d="M105.638 94.8L107.193 87.5144" stroke="#3B1534" stroke-width="0.93" stroke-miterlimit="10" stroke-linecap="round"/>
<path d="M126.268 117.484L119.994 111.785C118.253 110.202 116.129 109.101 113.832 108.592L112.63 108.326C111.151 107.997 109.626 107.927 108.123 108.121L100.782 109.064C99.9604 109.163 99.2037 109.56 98.656 110.18C98.0868 110.839 97.7706 111.739 98.9554 112.62C99.5892 113.081 100.347 113.34 101.13 113.364L115.768 114.008L126.268 117.484Z" fill="#E5B4AC"/>
<path d="M91.0741 129.024L95.8952 127.305L93.6521 124.498L90.8769 128.797C90.8007 128.91 90.9532 129.07 91.0741 129.024Z" fill="#F2EADA"/>
<path d="M124.323 104.676C124.691 104.388 124.93 103.967 124.989 103.504C125.048 103.041 124.922 102.573 124.638 102.202C124.354 101.832 123.935 101.588 123.473 101.524C123.01 101.46 122.541 101.582 122.167 101.862L119.359 104.012L121.524 106.828L124.323 104.676Z" fill="#F2EADA"/>
<path d="M119.419 103.975L114.54 107.86L95.0545 123.38L93.6558 124.494L95.8431 127.333L96.8308 126.546L117.322 110.226L121.524 106.826L119.419 103.975Z" fill="#F2EADA"/>
<path d="M121.429 106.48L119.53 104.343" stroke="#3B1534" stroke-width="0.93" stroke-miterlimit="10" stroke-linecap="round"/>
<path d="M95.6744 126.993C95.6022 126.49 95.3837 126.019 95.0461 125.639C94.7084 125.259 94.2666 124.987 93.7754 124.856" stroke="#3B1534" stroke-width="0.93" stroke-miterlimit="10" stroke-linecap="round"/>
<path d="M126.267 117.486L119.225 131.25L109.899 132.18C108.833 132.293 107.757 132.115 106.785 131.665C105.684 131.142 104.553 130.177 104.445 128.434C104.259 128.412 102.57 128.179 101.655 126.611C101.387 126.135 101.222 125.607 101.173 125.063C101.123 124.518 101.19 123.969 101.369 123.453C101.315 123.421 100.117 122.677 100.124 121.371C100.14 120.868 100.324 120.384 100.647 119.997L97.6488 121.158C97.0631 121.393 96.4108 121.402 95.8186 121.184C95.5752 121.097 95.3529 120.96 95.1663 120.782C94.9797 120.603 94.8331 120.387 94.7361 120.148C94.5684 119.71 94.5577 119.227 94.7059 118.782C94.8542 118.337 95.1521 117.957 95.5489 117.707C95.9765 117.434 96.4234 117.193 96.8862 116.986C98.1188 116.434 99.2809 115.736 100.348 114.908C100.709 114.631 101.049 114.329 101.367 114.004C101.743 113.596 102.176 113.247 102.654 112.966C104.43 111.973 106.452 111.506 108.483 111.619L114.779 111.562L126.267 117.486Z" fill="#E5B4AC"/>
<path d="M107.574 121.695L101.368 123.451" stroke="#3B1534" stroke-width="0.93" stroke-miterlimit="10" stroke-linecap="round"/>
<path d="M107.095 116.707C104.747 117.362 102.555 118.48 100.646 119.996" stroke="#3B1534" stroke-width="0.93" stroke-miterlimit="10" stroke-linecap="round"/>
<path d="M109.488 126.591L104.445 128.427" stroke="#3B1534" stroke-width="0.93" stroke-miterlimit="10" stroke-linecap="round"/>
<path d="M102.129 113.316C102.968 112.772 103.878 112.347 104.833 112.051C106.972 111.393 108.367 111.709 114.024 111.582L114.782 111.562" stroke="#3B1534" stroke-width="0.93" stroke-miterlimit="10" stroke-linecap="round"/>
<path d="M179.553 143.714L179.842 143.024C180.229 142.101 180.364 141.092 180.234 140.1C178.101 138.603 175.54 137.839 172.935 137.923C170.33 138.007 167.823 138.934 165.791 140.565C163.759 142.196 162.311 144.443 161.665 146.968C161.02 149.493 161.211 152.159 162.211 154.565C169.446 155.058 176.535 150.91 179.553 143.714Z" fill="#F2EADA"/>
<path d="M130.651 115.451C130.007 115.172 129.314 115.025 128.612 115.017C127.91 115.01 127.214 115.142 126.564 115.407C125.915 115.672 125.324 116.065 124.828 116.561C124.332 117.057 123.939 117.647 123.674 118.297L118.49 130.656C117.932 131.973 117.911 133.455 118.432 134.787C118.954 136.118 119.976 137.192 121.28 137.778L125.372 139.568L135.091 117.387L130.651 115.451Z" fill="#77C8D6"/>
<path d="M129.921 128.528L121.36 124.411" stroke="#3B1534" stroke-width="0.93" stroke-miterlimit="10" stroke-linecap="round"/>
<path d="M132.356 122.719L123.796 118.603" stroke="#3B1534" stroke-width="0.93" stroke-miterlimit="10" stroke-linecap="round"/>
<path d="M118.954 129.973L127.208 133.948" stroke="#3B1534" stroke-width="0.93" stroke-miterlimit="10" stroke-linecap="round"/>
<path d="M156.302 126.655L131.192 115.681C129.978 114.987 128.54 114.795 127.186 115.147C126.044 115.47 125.045 116.167 124.349 117.128" stroke="#3B1534" stroke-width="0.93" stroke-miterlimit="10" stroke-linecap="round"/>
<path d="M141.005 146.397L125.381 139.573" stroke="#3B1534" stroke-width="0.93" stroke-miterlimit="10" stroke-linecap="round"/>
</svg>
