<svg width="206" height="206" viewBox="0 0 206 206" fill="none" xmlns="http://www.w3.org/2000/svg">
<path d="M43.3364 90.0095L38.3162 89.5811L33.0776 150.38H49.5576L49.776 110.416C50.1844 103.057 47.8948 95.8013 43.3364 90.0095Z" fill="#34CA8D"/>
<path d="M84.9791 106.753C84.9787 103.155 83.6281 99.6884 81.1944 97.0384C78.7607 94.3885 75.4212 92.7483 71.8363 92.4423L69.5146 92.2363C71.1297 95.8475 73.2865 103.857 73.165 120.778V150.378H84.9749L84.9791 106.753Z" fill="#34CA8D"/>
<path d="M69.5149 92.2444L43.3364 90.0093C47.8919 95.7978 50.1813 103.048 49.776 110.403L49.5473 150.38H73.1693V120.779C73.2868 103.865 71.13 95.8556 69.5149 92.2444Z" fill="#3B1534"/>
<path d="M76.4254 84.872L48.3517 82.709C46.2519 82.5479 44.302 81.5594 42.931 79.9608C41.5599 78.3623 40.88 76.2845 41.0408 74.1847L42.2088 58.9757C42.3237 57.481 42.7319 56.0236 43.41 54.6867C44.0882 53.3498 45.0231 52.1596 46.1612 51.184C47.2994 50.2084 48.6186 49.4666 50.0435 49.0008C51.4684 48.5351 52.9711 48.3546 54.4658 48.4697L70.2454 49.6769C71.4064 49.7652 72.5385 50.0815 73.5772 50.6078C74.6158 51.134 75.5405 51.8599 76.2983 52.7438C77.0562 53.6277 77.6323 54.6524 77.9938 55.7592C78.3553 56.866 78.495 58.0332 78.405 59.1941L76.4254 84.872Z" fill="#F2EADA"/>
<path d="M35.5007 83.7791C40.1391 83.7791 43.8993 80.4985 43.8993 76.4517C43.8993 72.4049 40.1391 69.1243 35.5007 69.1243C30.8622 69.1243 27.1021 72.4049 27.1021 76.4517C27.1021 80.4985 30.8622 83.7791 35.5007 83.7791Z" fill="#F2EADA"/>
<path d="M129.386 130.017L119.451 128.728L123.299 103.027C123.713 100.259 125.069 97.7186 127.14 95.8348C129.21 93.9511 131.867 92.8396 134.662 92.6882L129.386 130.017Z" fill="#34CA8D"/>
<path d="M139.378 144.899L134.492 148.224C132.48 149.594 130.218 150.554 127.834 151.05C125.451 151.546 122.994 151.567 120.602 151.112C118.211 150.658 115.933 149.736 113.898 148.401C111.862 147.065 110.11 145.342 108.742 143.329L92.9228 120.066C92.3236 119.185 91.9038 118.195 91.6874 117.152C91.4709 116.109 91.4619 115.034 91.6611 113.987C91.8602 112.941 92.2635 111.944 92.8479 111.054C93.4324 110.163 94.1865 109.397 95.0673 108.798L101.865 104.177C102.746 103.577 103.736 103.157 104.779 102.94C105.821 102.724 106.897 102.714 107.943 102.913C108.99 103.112 109.987 103.516 110.877 104.1C111.768 104.684 112.534 105.439 113.133 106.319L139.378 144.899Z" fill="#34CA8D"/>
<path d="M105.744 102.794C105.744 102.794 106.144 98.1754 102.151 91.6864C100.773 89.1197 99.4281 86.5364 98.05 83.9717C96.8593 81.749 95.784 78.9227 94.0165 77.0934C92.9865 76.0181 91.2602 74.8933 90.0036 77.4601C89.4969 76.702 88.9888 75.9466 88.4792 75.1941C87.8901 74.3103 86.8827 73.235 85.7168 73.3936C83.3169 73.715 84.5343 77.2149 85.0576 78.5704C85.1544 78.8959 85.2492 79.2214 85.346 79.5448C85.346 79.5448 82.427 77.8206 82.3343 80.5315C82.3205 81.1396 82.4415 81.7432 82.6886 82.299L86.9322 92.1211C86.9322 92.1211 78.5624 93.458 76.0348 94.5457C75.8762 94.6137 75.7155 94.6775 75.5527 94.7311C75.011 94.9144 73.7132 95.483 73.7296 96.719C73.747 97.1811 73.9412 97.6189 74.272 97.9421C74.6028 98.2652 75.045 98.449 75.5074 98.4556C76.1934 98.4741 77.2255 98.3711 78.7684 97.988C79.58 97.782 80.3979 97.6151 81.2177 97.4585L82.8225 97.1495C83.7506 96.9614 84.7145 97.071 85.5767 97.4627C88.986 99.0571 88.1476 103.746 86.2895 106.183C85.6158 107.066 84.8475 107.874 84.1924 108.774C83.5744 109.623 82.7504 110.467 82.6 111.547C82.5159 112.045 82.6306 112.556 82.9193 112.97C83.1365 113.262 83.4399 113.478 83.7866 113.588C84.6003 113.817 85.4346 113.218 85.966 112.814C89.5958 110.107 89.9748 109.67 90.7844 109.499C91.9858 109.261 93.2329 109.46 94.3008 110.06L105.744 102.794Z" fill="#E5B4AC"/>
<path d="M95.3777 91.0227C95.3777 91.0227 91.9334 98.5458 98.9766 102.147" stroke="#3B1534" stroke-width="1.03" stroke-miterlimit="10" stroke-linecap="round"/>
<path d="M90.0029 77.4663L93.9787 86.1904" stroke="#3B1534" stroke-width="1.03" stroke-miterlimit="10" stroke-linecap="round"/>
<path d="M85.376 79.5916C86.7946 82.5291 88.2147 85.466 89.6361 88.4022" stroke="#3B1534" stroke-width="1.03" stroke-miterlimit="10" stroke-linecap="round"/>
<path d="M80.0847 99.2405H65.2795C64.1395 99.2405 63.2153 100.165 63.2153 101.305V113.988C63.2153 115.128 64.1395 116.052 65.2795 116.052H80.0847C81.2247 116.052 82.1488 115.128 82.1488 113.988V101.305C82.1488 100.165 81.2247 99.2405 80.0847 99.2405Z" fill="#F2EADA"/>
<path d="M66.0146 112.064C66.0395 112.362 66.1755 112.64 66.3957 112.842C66.6158 113.045 66.9041 113.157 67.2033 113.157C67.5025 113.157 67.7907 113.045 68.0109 112.842C68.2311 112.64 68.367 112.362 68.3919 112.064V107.55H66.0146V112.064Z" stroke="#34CA8D" stroke-width="1.03" stroke-miterlimit="10" stroke-linecap="round"/>
<path d="M68.3913 103.223C68.3913 102.906 68.2657 102.603 68.042 102.379C67.8183 102.155 67.5149 102.03 67.1986 102.03C66.8823 102.03 66.5789 102.155 66.3552 102.379C66.1315 102.603 66.0059 102.906 66.0059 103.223V106.519H68.3913V103.223Z" stroke="#34CA8D" stroke-width="1.03" stroke-miterlimit="10" stroke-linecap="round"/>
<path d="M73.9387 103.223C73.9387 102.906 73.813 102.603 73.5894 102.379C73.3657 102.155 73.0623 102.03 72.746 102.03C72.4296 102.03 72.1262 102.155 71.9026 102.379C71.6789 102.603 71.5532 102.906 71.5532 103.223V106.519H73.9387V103.223Z" stroke="#34CA8D" stroke-width="1.03" stroke-miterlimit="10" stroke-linecap="round"/>
<path d="M71.5532 112.064C71.5532 112.38 71.6789 112.683 71.9026 112.907C72.1262 113.131 72.4296 113.256 72.746 113.256C73.0623 113.256 73.3657 113.131 73.5894 112.907C73.813 112.683 73.9387 112.38 73.9387 112.064V107.55H71.5532V112.064Z" stroke="#34CA8D" stroke-width="1.03" stroke-miterlimit="10" stroke-linecap="round"/>
<path d="M79.4807 103.223C79.4807 102.906 79.355 102.603 79.1314 102.379C78.9077 102.155 78.6043 102.03 78.288 102.03C77.9716 102.03 77.6682 102.155 77.4446 102.379C77.2209 102.603 77.0952 102.906 77.0952 103.223V106.519H79.4807V103.223Z" stroke="#34CA8D" stroke-width="1.03" stroke-miterlimit="10" stroke-linecap="round"/>
<path d="M77.0952 112.064C77.0952 112.38 77.2209 112.683 77.4446 112.907C77.6682 113.131 77.9716 113.256 78.288 113.256C78.6043 113.256 78.9077 113.131 79.1314 112.907C79.355 112.683 79.4807 112.38 79.4807 112.064V107.55H77.0952V112.064Z" stroke="#34CA8D" stroke-width="1.03" stroke-miterlimit="10" stroke-linecap="round"/>
<path d="M68.9214 106.015H65.4956V108.082H68.9214V106.015Z" fill="#FFB6DB"/>
<path d="M74.4568 106.015H71.0352V108.082H74.4568V106.015Z" fill="#FFB6DB"/>
<path d="M79.9937 106.015H76.5762V108.082H79.9937V106.015Z" fill="#FFB6DB"/>
<path d="M158.79 82.659L156.648 82.9082L153.776 58.2336L164.445 56.9976L166.326 73.148C166.587 75.4083 165.94 77.6797 164.527 79.4632C163.114 81.2466 161.051 82.3961 158.79 82.659Z" fill="#3B1534"/>
<path d="M197.56 91.1995C200.612 86.649 195.797 78.0714 186.806 72.0409C177.814 66.0104 168.051 64.8105 164.999 69.361C161.947 73.9115 166.762 82.4891 175.753 88.5196C184.745 94.5501 194.508 95.75 197.56 91.1995Z" fill="#3B1534"/>
<path d="M159.14 85.6406L136.394 87.6594C135.611 87.7301 134.822 87.6457 134.072 87.4109C133.322 87.1761 132.625 86.7956 132.022 86.2911C131.419 85.7867 130.922 85.1682 130.559 84.4712C130.195 83.7742 129.973 83.0123 129.905 82.2293L128.154 62.5192L156.862 59.9709L159.14 85.6406Z" fill="#E5B4AC"/>
<path d="M157.966 75.0227C160.908 75.0227 163.293 72.6377 163.293 69.6956C163.293 66.7535 160.908 64.3684 157.966 64.3684C155.024 64.3684 152.639 66.7535 152.639 69.6956C152.639 72.6377 155.024 75.0227 157.966 75.0227Z" fill="#E5B4AC"/>
<path d="M157.765 72.0421C158.649 72.0421 159.366 71.3254 159.366 70.4414C159.366 69.5574 158.649 68.8408 157.765 68.8408C156.881 68.8408 156.165 69.5574 156.165 70.4414C156.165 71.3254 156.881 72.0421 157.765 72.0421Z" stroke="#3B1534" stroke-width="1.03" stroke-miterlimit="10" stroke-linecap="round"/>
<path d="M159.765 67.3623C159.765 67.3623 156.819 67.7743 156.337 69.7334" stroke="#3B1534" stroke-width="1.03" stroke-miterlimit="10" stroke-linecap="round"/>
<path d="M136.712 80.6384C136.712 80.6384 138.371 82.2535 140.598 80.2903" stroke="#3B1534" stroke-width="1.03" stroke-miterlimit="10" stroke-linecap="round"/>
<path d="M169.126 103.36C169.217 100.379 169.622 95.9336 172.766 92.1473C173.751 90.9587 176.33 89.8813 177.069 89.3745C173.18 89.5661 167.416 89.9328 163.411 90.1985C163.124 91.3604 162.837 92.5222 162.55 93.684C160.867 100.482 160.175 109.295 152.145 111.528C146.398 113.124 139.818 109.602 140.105 103.113C140.226 100.373 141.135 97.7567 141.796 95.1302C142.07 94.059 142.323 92.9816 142.573 91.9021C139.857 92.1658 137.171 92.4405 134.514 92.7261L127.213 115.25C127.213 115.25 124.947 124.43 127.213 132.253L132.034 152.917L172.354 153.982C173.17 146.369 173.986 138.755 174.803 131.141L169.921 110.776C169.32 108.351 169.053 105.856 169.126 103.36Z" fill="#F2EADA"/>
<path d="M140.109 103.114C139.823 109.603 146.402 113.125 152.15 111.529C160.184 109.296 160.872 100.483 162.555 93.6852C162.841 92.5234 163.128 91.3615 163.416 90.1997C160.859 90.3714 158.279 90.5575 155.677 90.758C151.237 91.1041 146.87 91.4858 142.577 91.9033C142.328 92.9828 142.074 94.0601 141.8 95.1313C141.131 97.7661 140.231 100.374 140.109 103.114Z" fill="#34CA8D"/>
<path d="M131.118 136.977C130.935 136.977 130.759 136.904 130.629 136.775C130.499 136.645 130.426 136.469 130.426 136.285V134.12H131.811V136.285C131.811 136.376 131.793 136.466 131.758 136.55C131.724 136.634 131.673 136.711 131.608 136.775C131.544 136.84 131.468 136.891 131.384 136.925C131.3 136.96 131.209 136.978 131.118 136.977Z" fill="#FFB6DB"/>
<path d="M132.652 122.131C132.652 121.724 132.49 121.335 132.203 121.048C131.915 120.76 131.526 120.599 131.12 120.598C130.713 120.599 130.324 120.76 130.036 121.048C129.749 121.335 129.587 121.724 129.587 122.131V131.038H132.652V122.131Z" fill="#3B1534"/>
<path d="M129.587 131.039V133.434C129.587 133.616 129.659 133.791 129.788 133.919C129.916 134.048 130.091 134.12 130.273 134.12H131.968C132.058 134.12 132.147 134.103 132.23 134.068C132.314 134.034 132.389 133.983 132.453 133.919C132.516 133.856 132.566 133.78 132.601 133.697C132.635 133.613 132.652 133.524 132.652 133.434V131.039H129.587Z" fill="#FFB6DB"/>
<path d="M147.022 152.496V129.645" stroke="#3B1534" stroke-width="1.03" stroke-miterlimit="10" stroke-linecap="round"/>
<path d="M157.14 125.814L150.792 115.745C150.339 115.011 149.692 114.417 148.923 114.027C148.081 113.615 146.978 113.374 145.938 114.095C145.938 114.095 143.275 111.623 140.957 113.055C140.957 113.055 138.073 111.574 135.892 113.376C134.905 114.2 133.91 115.001 132.851 115.722L129.162 118.229C129.162 118.229 127.549 119.179 128.82 120.347C128.82 120.347 129.438 121.021 131.481 120.18C131.846 120.028 132.21 119.875 132.581 119.735L135.03 118.816C135.457 118.656 135.925 118.645 136.359 118.786C136.792 118.926 137.165 119.21 137.416 119.591C137.659 119.958 137.818 120.373 137.885 120.808C137.951 121.242 137.922 121.686 137.799 122.109C137.677 122.531 137.464 122.921 137.175 123.253C136.887 123.585 136.53 123.85 136.128 124.03C135.778 124.185 135.412 124.341 135.035 124.49C133.625 125.045 132.143 125.397 130.634 125.536C129.833 125.61 128.717 125.802 127.979 126.29C127.776 126.429 127.612 126.618 127.502 126.839C127.393 127.059 127.341 127.304 127.353 127.55C127.365 127.796 127.44 128.035 127.571 128.244C127.701 128.453 127.883 128.625 128.099 128.744C128.97 129.243 129.942 129.538 130.943 129.609C133.706 129.811 136.379 130.68 138.732 132.141C141.841 134.038 145.889 136.055 148.285 135.437L157.14 125.814Z" fill="#E5B4AC"/>
<path d="M140.956 113.054L145.692 120.196" stroke="#3B1534" stroke-width="1.03" stroke-miterlimit="10" stroke-linecap="round"/>
<path d="M145.936 114.095L148.266 117.525" stroke="#3B1534" stroke-width="1.03" stroke-miterlimit="10" stroke-linecap="round"/>
<path d="M198.635 144.318C198.46 144.631 194.454 151.528 186.432 151.713C183.821 151.763 181.246 151.101 178.983 149.798C176.72 148.495 174.855 146.601 173.588 144.318C172.07 131.518 170.553 118.718 169.035 105.917C167.358 98.2353 170.525 90.5557 178.206 88.8809C179.634 88.611 183.26 88.1352 187.04 90.0015C193.86 93.3696 194.847 101.235 194.915 101.857C196.886 114.835 196.954 130.923 198.926 143.895C198.94 143.989 198.918 144.085 198.864 144.164C198.81 144.242 198.728 144.297 198.635 144.318Z" fill="#34CA8D"/>
<path d="M185.343 158.194C179.412 159.737 173.098 158.503 168.055 155.019L149.103 141.926C147.084 140.531 146.437 137.938 147.614 135.952L154.105 124.945C155.267 122.978 157.825 122.237 160.042 123.223L195.204 138.879C196.745 139.569 197.95 140.841 198.556 142.418C199.162 143.994 199.119 145.746 198.436 147.29C195.945 152.891 191.045 156.711 185.343 158.194Z" fill="#34CA8D"/>
<path d="M141.554 147.374C142.358 147.374 143.009 146.723 143.009 145.919C143.009 145.116 142.358 144.465 141.554 144.465C140.751 144.465 140.1 145.116 140.1 145.919C140.1 146.723 140.751 147.374 141.554 147.374Z" fill="#3B1534"/>
<path d="M141.554 137.392C142.358 137.392 143.009 136.741 143.009 135.938C143.009 135.135 142.358 134.483 141.554 134.483C140.751 134.483 140.1 135.135 140.1 135.938C140.1 136.741 140.751 137.392 141.554 137.392Z" fill="#3B1534"/>
<path d="M69.9818 88.927L48.0737 85.2849L51.0072 62.386C51.0873 61.7598 51.2913 61.1559 51.6071 60.6093C51.923 60.0628 52.3444 59.5845 52.8469 59.2024C53.3494 58.8203 53.9229 58.542 54.534 58.3837C55.1451 58.2254 55.7816 58.1903 56.4064 58.2804L75.0247 60.9769C75.8935 61.1023 76.6826 61.5517 77.2337 62.2349C77.7847 62.9182 78.0568 63.7846 77.9952 64.6602L76.6686 83.6493C76.611 84.4487 76.3875 85.2274 76.0122 85.9357C75.637 86.6439 75.1182 87.2661 74.489 87.7627C73.8599 88.2593 73.1342 88.6193 72.3581 88.8198C71.5821 89.0202 70.7728 89.0568 69.9818 88.927Z" fill="#E5B4AC"/>
<path d="M65.354 82.2843L48.7895 79.9668L47.708 87.6897L64.2519 90.1597L65.354 82.2843Z" fill="#E5B4AC"/>
<path d="M47.7078 87.6892L47.2031 91.2922L63.7676 93.6097L64.2517 90.1592L47.7078 87.6892Z" fill="#3B1534"/>
<path d="M53.7085 94.291L54.5057 89.209" stroke="#34CA8D" stroke-width="1.03" stroke-miterlimit="10" stroke-linecap="round"/>
<path d="M58.8276 95.0913L59.6249 90.0093" stroke="#34CA8D" stroke-width="1.03" stroke-miterlimit="10" stroke-linecap="round"/>
<path d="M59.9136 62.6606L74.7827 64.527" stroke="#3B1534" stroke-width="1.03" stroke-miterlimit="10" stroke-linecap="round"/>
<path d="M61.6377 65.8643L72.5907 67.0755" stroke="#3B1534" stroke-width="1.03" stroke-miterlimit="10" stroke-linecap="round"/>
<path d="M49.0999 75.0184C51.7382 75.0184 53.877 72.8796 53.877 70.2413C53.877 67.6029 51.7382 65.4641 49.0999 65.4641C46.4616 65.4641 44.3228 67.6029 44.3228 70.2413C44.3228 72.8796 46.4616 75.0184 49.0999 75.0184Z" fill="#E5B4AC"/>
<path d="M65.8579 80.2319C65.8579 80.2319 67.3123 82.1848 69.7451 80.7634" stroke="#3B1534" stroke-width="1.03" stroke-miterlimit="10" stroke-linecap="round"/>
<path d="M64.0659 75.8743C64.0659 75.8743 61.0521 79.6235 63.0359 84.4603" stroke="#3B1534" stroke-width="1.03" stroke-miterlimit="10" stroke-linecap="round"/>
<path d="M72.5389 77.0845C73.2616 78.859 73.3561 80.8273 72.8067 82.663C72.4677 83.7381 71.9062 84.7298 71.1587 85.5737" stroke="#3B1534" stroke-width="1.03" stroke-miterlimit="10" stroke-linecap="round"/>
<path d="M49.7749 72.3255C50.6589 72.3255 51.3756 71.6089 51.3756 70.7249C51.3756 69.8409 50.6589 69.1243 49.7749 69.1243C48.8909 69.1243 48.1743 69.8409 48.1743 70.7249C48.1743 71.6089 48.8909 72.3255 49.7749 72.3255Z" stroke="#3B1534" stroke-width="1.03" stroke-miterlimit="10" stroke-linecap="round"/>
<path d="M47.7773 67.6338C47.7773 67.6338 50.7211 68.0458 51.2052 70.0048" stroke="#3B1534" stroke-width="1.03" stroke-miterlimit="10" stroke-linecap="round"/>
<path d="M34.7755 135.72C32.6743 141.562 27.1659 145.437 21.1795 145.365C14.5649 145.285 8.70623 140.396 7.35693 133.623L8.79893 114.898C9.0746 111.297 10.0568 107.786 11.6894 104.565C13.322 101.344 15.5731 98.4762 18.3141 96.1252C21.0551 93.7743 24.2324 91.9862 27.6644 90.8632C31.0965 89.7402 34.7161 89.3042 38.3167 89.5801L34.7755 135.72Z" fill="#34CA8D"/>
<path d="M62.7054 155.088C62.6864 155.729 62.4245 156.339 61.9728 156.794C61.521 157.248 60.9132 157.514 60.2725 157.538L25.8808 158.802C23.2237 158.913 20.5733 158.46 18.1043 157.472C14.1671 155.88 10.9253 152.939 8.95997 149.174C7.42723 146.188 6.74184 142.84 6.97825 139.492C7.11558 137.432 7.25291 135.372 7.39025 133.312L60.8246 137.883C61.4709 137.935 62.0727 138.233 62.5056 138.715C62.9385 139.198 63.1693 139.829 63.1503 140.477L62.7054 155.088Z" fill="#34CA8D"/>
<path d="M56.5908 139.867V155.136" stroke="#3B1534" stroke-width="1.03" stroke-miterlimit="10" stroke-linecap="round"/>
<path d="M63.0016 139.571C63.0016 139.571 77.3392 138.723 86.4732 140.41C87.3817 140.577 88.2881 140.752 89.2027 140.888C90.4923 141.081 92.8098 141.79 92.853 144.377C93.7137 144.435 94.5492 144.692 95.2941 145.127C95.6544 145.341 95.9645 145.629 96.2034 145.974C96.4423 146.318 96.6043 146.709 96.6784 147.121C96.762 147.557 96.7206 148.008 96.559 148.421C96.0481 149.69 94.3712 150.448 92.7026 149.886C93.0487 151.048 92.75 151.74 92.6264 151.981C91.9198 153.345 89.8825 153.546 88.8113 153.59C88.2263 153.613 87.6404 153.593 87.0582 153.532L78.7255 152.687C78.7255 152.687 79.8936 155.749 75.4172 155.483C74.9702 155.458 74.5231 155.429 74.0761 155.417L62.6987 155.083L63.0016 139.571Z" fill="#E5B4AC"/>
<path d="M79.9526 143.198C82.323 143.42 84.6948 143.64 87.0679 143.857C88.9905 144.031 90.9187 144.205 92.8524 144.378" stroke="#3B1534" stroke-width="1.03" stroke-miterlimit="10" stroke-linecap="round"/>
<path d="M79.9873 148.065C81.8083 148.216 83.6926 148.413 85.6399 148.656C88.1119 148.971 90.4706 149.344 92.7099 149.754" stroke="#3B1534" stroke-width="1.03" stroke-miterlimit="10" stroke-linecap="round"/>
<path d="M72.5127 152.011C73.2502 152.085 73.9918 152.164 74.7354 152.242C76.0758 152.386 77.4066 152.537 78.7277 152.693" stroke="#3B1534" stroke-width="1.03" stroke-miterlimit="10" stroke-linecap="round"/>
<path d="M44.08 131.562C44.989 131.562 45.726 130.825 45.726 129.916C45.726 129.007 44.989 128.27 44.08 128.27C43.171 128.27 42.4341 129.007 42.4341 129.916C42.4341 130.825 43.171 131.562 44.08 131.562Z" fill="#3B1534"/>
<path d="M36.7211 115.69L34.7744 135.721" stroke="#3B1534" stroke-width="1.03" stroke-miterlimit="10" stroke-linecap="round"/>
<path d="M165.172 63.6951L134.025 66.4617C131.992 66.6418 129.97 66.0069 128.404 64.6966C126.838 63.3862 125.857 61.5078 125.676 59.4742L125.573 58.3247C125.393 56.291 126.028 54.2691 127.338 52.7034C128.648 51.1377 130.527 50.1565 132.561 49.9755L153.239 48.1401C154.614 48.0172 156 48.1666 157.317 48.5797C158.634 48.9927 159.857 49.6613 160.916 50.5473C161.975 51.4333 162.848 52.5193 163.487 53.7431C164.126 54.967 164.517 56.3047 164.639 57.6799L165.172 63.6951Z" fill="#3B1534"/>
<path d="M185.801 134.977L171.937 128.834" stroke="#3B1534" stroke-width="1.03" stroke-miterlimit="10" stroke-linecap="round"/>
<path d="M159.081 84.3093L142.341 85.7944L142.923 92.3586L159.663 90.8734L159.081 84.3093Z" fill="#E5B4AC"/>
<path d="M142.472 87.1379L151.14 86.1759C151.244 86.1665 151.347 86.1945 151.432 86.2547C151.516 86.315 151.577 86.4037 151.601 86.5045C151.626 86.6054 151.614 86.7119 151.567 86.8046C151.521 86.8974 151.442 86.9703 151.346 87.0102L142.772 90.6378L142.472 87.1379Z" fill="#3B1534"/>
<path d="M121.06 117.979L124.632 123.23" stroke="#3B1534" stroke-width="1.03" stroke-miterlimit="10" stroke-linecap="round"/>
<path d="M49.8235 136.992L24.5864 134.978" stroke="#3B1534" stroke-width="1.03" stroke-miterlimit="10" stroke-linecap="round"/>
<path d="M41.2759 71.1348C41.2759 71.1348 43.6675 73.0382 43.8282 75.5329" stroke="#3B1534" stroke-width="1.03" stroke-miterlimit="10" stroke-linecap="round"/>
<path d="M64.5494 88.0233L64.2507 90.1595L56.0107 87.053C55.9577 87.0345 55.9137 86.9965 55.8875 86.9469C55.8613 86.8972 55.8549 86.8395 55.8695 86.7852C55.8841 86.731 55.9186 86.6843 55.9662 86.6545C56.0138 86.6247 56.0709 86.614 56.1261 86.6246L64.5494 88.0233Z" fill="#3B1534"/>
</svg>
