<svg width="186" height="186" viewBox="0 0 186 186" fill="none" xmlns="http://www.w3.org/2000/svg">
<path d="M145.747 163.281H47.8008V97.1558C47.8008 92.1026 49.8075 87.2562 53.3799 83.6821C56.9522 80.108 61.7976 78.0989 66.8509 78.0964H126.689C129.192 78.0964 131.67 78.5894 133.982 79.5473C136.295 80.5051 138.396 81.9091 140.165 83.6789C141.935 85.4488 143.339 87.5499 144.296 89.8623C145.254 92.1747 145.747 94.653 145.747 97.1558V163.281Z" fill="#5528A9"/>
<path d="M114.357 35.9819H102.961V54.1951H114.357V35.9819Z" fill="#3B1534"/>
<path d="M95.8964 114.686L114.733 78.0964H77.062L95.8964 114.686Z" fill="#77C8D6"/>
<path d="M93.0011 45.8682C98.7146 45.8682 103.346 42.3798 103.346 38.0767C103.346 33.7735 98.7146 30.2852 93.0011 30.2852C87.2875 30.2852 82.6558 33.7735 82.6558 38.0767C82.6558 42.3798 87.2875 45.8682 93.0011 45.8682Z" fill="#3B1534"/>
<path d="M106.757 32.8145H71.2517L70.3291 56.1854L93.3373 52.7034V64.4717L85.1905 71.5936L106.331 66.5474L106.757 32.8145Z" fill="#E5B4AC"/>
<path d="M78.7117 25.9006C77.9868 24.8843 77.0257 24.0594 75.9112 23.4969C74.7968 22.9345 73.5623 22.6514 72.3141 22.6719C71.0659 22.6925 69.8414 23.0162 68.7461 23.615C67.6508 24.2139 66.7174 25.07 66.0264 26.1097C65.3354 27.1493 64.9074 28.3414 64.7794 29.5831C64.6514 30.8249 64.8271 32.0792 65.2914 33.238C65.7557 34.3968 66.4947 35.4254 67.4448 36.2351C68.3949 37.0449 69.5276 37.6116 70.7453 37.8864C71.4508 39.3417 72.5533 40.5678 73.9257 41.4235C75.298 42.2791 76.8843 42.7294 78.5015 42.7224C83.2333 42.7224 87.0687 38.9541 87.0687 34.3059C87.0687 29.7341 83.3468 26.0103 78.7117 25.9006Z" fill="#3B1534"/>
<path d="M106.431 60.3025H85.3667V73.3746H106.431V60.3025Z" fill="#E5B4AC"/>
<path d="M93.3374 52.7051L106.227 48.0234" stroke="#3B1534" stroke-width="0.93" stroke-miterlimit="10" stroke-linecap="round"/>
<path d="M93.3374 64.4728L106.813 58.4055" stroke="#3B1534" stroke-width="0.93" stroke-miterlimit="10" stroke-linecap="round"/>
<path d="M85.3735 71.442L94.1379 69.582C94.2102 69.5667 94.2857 69.5774 94.351 69.6122C94.4162 69.6471 94.4671 69.7038 94.4947 69.7725C94.5222 69.8411 94.5247 69.9173 94.5016 69.9876C94.4785 70.0579 94.4314 70.1178 94.3685 70.1567L85.3735 75.7126V71.442Z" fill="#3B1534"/>
<path d="M106.431 73.3738H85.3667V78.0963H106.431V73.3738Z" fill="#77C8D6"/>
<path d="M95.898 84.3721L106.431 78.0964H85.3667L95.898 84.3721Z" fill="#77C8D6"/>
<path d="M48.9279 90.6602L27.616 140.469C27.616 140.469 18.9093 156.969 33.4192 164.937L52.367 137.474L48.9279 90.6602Z" fill="#77C8D6"/>
<path d="M71.8336 87.693L68.477 112.228C68.3411 113.222 69.0362 114.137 70.0296 114.273L83.3606 116.097C84.354 116.233 85.2694 115.538 85.4053 114.544L88.7619 90.0089C88.8978 89.0155 88.2027 88.1001 87.2093 87.9642L73.8783 86.1404C72.8849 86.0045 71.9695 86.6996 71.8336 87.693Z" fill="#F2EADA"/>
<path d="M75.8946 90.7513C75.0811 90.6363 74.3283 91.2026 74.2132 92.0161C74.0982 92.8297 74.6644 93.5825 75.478 93.6976L77.1923 93.94C78.0059 94.0551 78.7587 93.4888 78.8738 92.6752C78.9888 91.8616 78.4226 91.1088 77.609 90.9938L75.8946 90.7513Z" fill="#3B1534"/>
<path d="M82.7077 91.2556C81.8935 91.1442 81.1432 91.714 81.0318 92.5282C80.9204 93.3424 81.4901 94.0927 82.3043 94.2041L84.02 94.4388C84.8342 94.5502 85.5846 93.9805 85.696 93.1663C85.8074 92.352 85.2376 91.6017 84.4234 91.4903L82.7077 91.2556Z" fill="#3B1534"/>
<path d="M74.9099 95.4697C74.0956 95.3583 73.3453 95.9281 73.2339 96.7423C73.1225 97.5565 73.6923 98.3069 74.5065 98.4182L76.2222 98.653C77.0364 98.7643 77.7867 98.1946 77.8981 97.3804C78.0095 96.5662 77.4398 95.8158 76.6255 95.7044L74.9099 95.4697Z" fill="#3B1534"/>
<path d="M81.9958 96.438C81.1816 96.3266 80.4312 96.8963 80.3199 97.7105C80.2085 98.5248 80.7782 99.2751 81.5924 99.3865L83.3081 99.6212C84.1223 99.7326 84.8727 99.1629 84.9841 98.3486C85.0955 97.5344 84.5257 96.7841 83.7115 96.6727L81.9958 96.438Z" fill="#3B1534"/>
<path d="M74.1999 100.65C73.3857 100.538 72.6353 101.108 72.524 101.922C72.4126 102.737 72.9823 103.487 73.7965 103.598L75.5122 103.833C76.3264 103.945 77.0768 103.375 77.1882 102.561C77.2996 101.746 76.7298 100.996 75.9156 100.885L74.1999 100.65Z" fill="#3B1534"/>
<path d="M81.2888 101.619C80.4746 101.508 79.7242 102.078 79.6128 102.892C79.5014 103.706 80.0712 104.457 80.8854 104.568L82.6011 104.803C83.4153 104.914 84.1656 104.344 84.277 103.53C84.3884 102.716 83.8187 101.965 83.0045 101.854L81.2888 101.619Z" fill="#3B1534"/>
<path d="M81.7682 93H68.3129C67.3103 93 66.4976 93.8128 66.4976 94.8154V119.579C66.4976 120.582 67.3103 121.395 68.3129 121.395H81.7682C82.7708 121.395 83.5835 120.582 83.5835 119.579V94.8154C83.5835 93.8128 82.7708 93 81.7682 93Z" fill="#F2EADA"/>
<path d="M72.3305 96.8679H70.5988C69.777 96.8679 69.1108 97.5341 69.1108 98.3559C69.1108 99.1777 69.777 99.8439 70.5988 99.8439H72.3305C73.1523 99.8439 73.8185 99.1777 73.8185 98.3559C73.8185 97.5341 73.1523 96.8679 72.3305 96.8679Z" fill="#FFB6DB"/>
<path d="M79.4848 96.8679H77.7531C76.9313 96.8679 76.2651 97.5341 76.2651 98.3559C76.2651 99.1777 76.9313 99.8439 77.7531 99.8439H79.4848C80.3066 99.8439 80.9728 99.1777 80.9728 98.3559C80.9728 97.5341 80.3066 96.8679 79.4848 96.8679Z" fill="#FFB6DB"/>
<path d="M72.3305 102.099H70.5988C69.777 102.099 69.1108 102.765 69.1108 103.587C69.1108 104.409 69.777 105.075 70.5988 105.075H72.3305C73.1523 105.075 73.8185 104.409 73.8185 103.587C73.8185 102.765 73.1523 102.099 72.3305 102.099Z" fill="#FFB6DB"/>
<path d="M79.4848 102.099H77.7531C76.9313 102.099 76.2651 102.765 76.2651 103.587C76.2651 104.409 76.9313 105.075 77.7531 105.075H79.4848C80.3066 105.075 80.9728 104.409 80.9728 103.587C80.9728 102.765 80.3066 102.099 79.4848 102.099Z" fill="#FFB6DB"/>
<path d="M72.3305 107.33H70.5988C69.777 107.33 69.1108 107.997 69.1108 108.818C69.1108 109.64 69.777 110.306 70.5988 110.306H72.3305C73.1523 110.306 73.8185 109.64 73.8185 108.818C73.8185 107.997 73.1523 107.33 72.3305 107.33Z" fill="#FFB6DB"/>
<path d="M79.4848 107.33H77.7531C76.9313 107.33 76.2651 107.997 76.2651 108.818C76.2651 109.64 76.9313 110.306 77.7531 110.306H79.4848C80.3066 110.306 80.9728 109.64 80.9728 108.818C80.9728 107.997 80.3066 107.33 79.4848 107.33Z" fill="#FFB6DB"/>
<path d="M144.402 90.6602L165.713 140.469C165.713 140.469 174.42 156.969 159.91 164.937L140.962 137.474L144.402 90.6602Z" fill="#77C8D6"/>
<path d="M111.099 102.259L101.178 115.88C99.4996 118.184 100.007 121.412 102.311 123.091L110.796 129.271C113.1 130.949 116.328 130.442 118.007 128.138L127.928 114.517C129.606 112.213 129.099 108.985 126.795 107.307L118.31 101.126C116.006 99.4478 112.778 99.9551 111.099 102.259Z" fill="#77C8D6"/>
<path d="M127.684 109.017L116.316 100.647L117.659 98.8209C117.851 98.56 118.139 98.386 118.46 98.3372C118.78 98.2884 119.107 98.3687 119.368 98.5605L128.767 105.478C128.896 105.573 129.005 105.692 129.089 105.829C129.172 105.967 129.227 106.119 129.251 106.278C129.275 106.436 129.268 106.598 129.23 106.754C129.191 106.91 129.122 107.056 129.027 107.185L127.684 109.017Z" fill="#F2EADA"/>
<path d="M110.224 104.055L102.179 114.991L118.914 127.302L126.959 116.367L110.224 104.055Z" fill="#F2EADA"/>
<path d="M120.075 99.0862L118.094 101.778" stroke="#3B1534" stroke-width="0.93" stroke-miterlimit="10" stroke-linecap="round"/>
<path d="M122.081 100.561L120.101 103.252" stroke="#3B1534" stroke-width="0.93" stroke-miterlimit="10" stroke-linecap="round"/>
<path d="M124.086 102.035L122.105 104.727" stroke="#3B1534" stroke-width="0.93" stroke-miterlimit="10" stroke-linecap="round"/>
<path d="M126.09 103.511L124.109 106.205" stroke="#3B1534" stroke-width="0.93" stroke-miterlimit="10" stroke-linecap="round"/>
<path d="M128.098 104.988L126.117 107.68" stroke="#3B1534" stroke-width="0.93" stroke-miterlimit="10" stroke-linecap="round"/>
<path d="M95.8978 82.3843C95.8841 79.4777 95.8699 76.5699 95.855 73.6609" stroke="#3B1534" stroke-width="0.93" stroke-miterlimit="10" stroke-linecap="round"/>
<path d="M143.775 124.629L122.234 138.561" stroke="#3B1534" stroke-width="0.93" stroke-miterlimit="10" stroke-linecap="round"/>
<path d="M137.984 119.609L119.689 131.784C119.32 132.031 119.064 132.414 118.977 132.849C118.891 133.285 118.981 133.736 119.227 134.105L122.252 138.584L143.859 124.523L140.21 119.955C139.948 119.63 139.575 119.415 139.164 119.351C138.752 119.287 138.331 119.379 137.984 119.609Z" fill="#F2EADA"/>
<path d="M137.027 120.246C133.829 114.688 132.377 108.846 130.226 102.762L130.12 102.461C130.12 102.461 129.343 100.229 127.942 101.531C127.942 101.531 126.745 102.422 127.877 109.212C127.916 109.436 127.961 109.659 128.013 109.88C128.186 110.624 128.582 112.586 128.069 112.869C128.069 112.869 126.767 114.556 121.159 109.683L114.761 104.332C114.761 104.332 112.529 102.325 111.161 103.312C111.161 103.312 110.494 103.759 110.589 104.395C109.796 103.619 108.879 102.381 107.843 101.96C106.143 101.27 105.178 103.283 105.684 104.618C105.594 104.38 104.901 104.283 104.707 104.287C103.831 104.308 103.385 105.119 103.351 105.911C103.345 106.566 103.459 107.217 103.686 107.832C103.803 108.175 104.854 110.686 105.174 110.606C105.174 110.606 103.128 111.115 105.206 114.459C107.43 117.675 110.333 120.363 113.71 122.335L114.982 123.036C117.997 124.695 120.675 127.013 123.317 129.371L137.027 120.246Z" fill="#E5B4AC"/>
<path d="M110.587 104.395C110.587 104.395 113.072 109.874 118.29 112.608" stroke="#3B1534" stroke-width="0.93" stroke-miterlimit="10" stroke-linecap="round"/>
<path d="M105.681 104.618C105.681 104.618 108.128 112.999 115.5 115.83" stroke="#3B1534" stroke-width="0.93" stroke-miterlimit="10" stroke-linecap="round"/>
<path d="M104.93 110.465C104.93 110.465 108.765 116.811 113.696 118.911" stroke="#3B1534" stroke-width="0.93" stroke-miterlimit="10" stroke-linecap="round"/>
<path d="M135.545 47.989C135.933 46.8485 135.853 45.6003 135.321 44.5191C134.79 43.4378 133.851 42.6119 132.71 42.223C131.569 41.8346 130.321 41.9152 129.24 42.4471C128.158 42.9791 127.333 43.9188 126.944 45.0595L125 50.7604L133.603 53.6918L135.545 47.989Z" fill="#F2EADA"/>
<path d="M125.001 50.7595L123.059 56.4586C122.867 57.0234 122.787 57.6206 122.826 58.2161C122.864 58.8117 123.019 59.3938 123.283 59.9293C123.814 61.0108 124.754 61.8368 125.895 62.2255C127.036 62.6142 128.284 62.5338 129.366 62.0021C130.447 61.4703 131.273 60.5307 131.662 59.3899L133.604 53.6909L125.001 50.7595Z" fill="#77C8D6"/>
<path d="M35.7319 31.8218C34.6394 31.3128 33.3895 31.2584 32.257 31.6707C31.1245 32.083 30.202 32.9281 29.6924 34.0203C29.1841 35.1131 29.1303 36.363 29.5428 37.4954C29.9554 38.6278 30.8006 39.5501 31.8928 40.0597L37.3501 42.5949L41.1872 34.357L35.7319 31.8218Z" fill="#F2EADA"/>
<path d="M46.6445 36.9069L41.1873 34.3643L37.3501 42.5948L42.8055 45.1374C43.8982 45.6463 45.1482 45.7003 46.2808 45.2877C47.4134 44.8751 48.3357 44.0295 48.8449 42.937C49.3514 41.8454 49.4041 40.5974 48.9916 39.4669C48.5791 38.3365 47.735 37.4158 46.6445 36.9069Z" fill="#FFB6DB"/>
<path d="M137.896 125.565C138.561 125.565 139.101 125.025 139.101 124.36C139.101 123.694 138.561 123.155 137.896 123.155C137.23 123.155 136.69 123.694 136.69 124.36C136.69 125.025 137.23 125.565 137.896 125.565Z" fill="#77C8D6"/>
<path d="M56.9727 76.5443C56.6865 76.0059 56.2948 75.5306 55.821 75.1467C55.3472 74.7628 54.801 74.4782 54.215 74.3099C53.6289 74.1416 53.0149 74.0929 52.4096 74.1668C51.8044 74.2407 51.2202 74.4357 50.6918 74.7402C50.1635 75.0446 49.7018 75.4523 49.3343 75.9389C48.9669 76.4255 48.7011 76.9811 48.5528 77.5725C48.4046 78.164 48.3769 78.7793 48.4714 79.3817C48.566 79.9841 48.7808 80.5613 49.1031 81.079L52.107 86.287L59.9822 81.7523L56.9727 76.5443Z" fill="#F2EADA"/>
<path d="M59.9788 81.7576L52.1035 86.2922L55.1074 91.5114C55.4045 92.0292 55.8008 92.4832 56.2736 92.8477C56.7464 93.2121 57.2864 93.4797 57.8627 93.6352C58.4391 93.7907 59.0404 93.831 59.6323 93.7538C60.2243 93.6766 60.7952 93.4835 61.3124 93.1854C61.8301 92.8883 62.2842 92.492 62.6486 92.0192C63.013 91.5464 63.2807 91.0064 63.4361 90.4301C63.5916 89.8537 63.6319 89.2524 63.5548 88.6605C63.4776 88.0686 63.2844 87.4977 62.9864 86.9805L59.9788 81.7576Z" fill="#FFB6DB"/>
<path d="M28.358 77.6332C32.0468 77.6332 35.0372 74.6428 35.0372 70.9539C35.0372 67.2651 32.0468 64.2747 28.358 64.2747C24.6691 64.2747 21.6787 67.2651 21.6787 70.9539C21.6787 74.6428 24.6691 77.6332 28.358 77.6332Z" fill="#F2EADA"/>
<path d="M30.751 65.478L25.1821 76.0558" stroke="#77C8D6" stroke-width="0.93" stroke-miterlimit="10" stroke-linecap="round"/>
<path d="M130.011 95.0072C133.7 95.0072 136.69 92.0168 136.69 88.3279C136.69 84.6391 133.7 81.6487 130.011 81.6487C126.322 81.6487 123.332 84.6391 123.332 88.3279C123.332 92.0168 126.322 95.0072 130.011 95.0072Z" fill="#F2EADA"/>
<path d="M124.419 85.5254L135.628 91.1426" stroke="#77C8D6" stroke-width="0.93" stroke-miterlimit="10" stroke-linecap="round"/>
<path d="M95.5013 96.3523C96.0684 96.3523 96.528 95.8926 96.528 95.3255C96.528 94.7585 96.0684 94.2988 95.5013 94.2988C94.9343 94.2988 94.4746 94.7585 94.4746 95.3255C94.4746 95.8926 94.9343 96.3523 95.5013 96.3523Z" fill="#F2EADA"/>
<path d="M95.5013 104.153C96.0684 104.153 96.528 103.693 96.528 103.126C96.528 102.559 96.0684 102.099 95.5013 102.099C94.9343 102.099 94.4746 102.559 94.4746 103.126C94.4746 103.693 94.9343 104.153 95.5013 104.153Z" fill="#F2EADA"/>
<path d="M114.359 37.0309C114.359 33.7638 113.061 30.6305 110.751 28.3202C108.44 26.01 105.307 24.7122 102.04 24.7122H76.7998V37.0309H100.885V41.4949C100.885 43.2511 101.583 44.9353 102.824 46.1771C104.066 47.4189 105.75 48.1165 107.507 48.1165H111.347V37.0309H114.359Z" fill="#3B1534"/>
<path d="M108.621 59.4437C112.093 59.4437 114.908 56.629 114.908 53.1569C114.908 49.6848 112.093 46.8701 108.621 46.8701C105.149 46.8701 102.334 49.6848 102.334 53.1569C102.334 56.629 105.149 59.4437 108.621 59.4437Z" fill="#E5B4AC"/>
<path d="M108.758 55.3112C109.632 55.3112 110.341 54.6026 110.341 53.7284C110.341 52.8542 109.632 52.1455 108.758 52.1455C107.883 52.1455 107.175 52.8542 107.175 53.7284C107.175 54.6026 107.883 55.3112 108.758 55.3112Z" stroke="#3B1534" stroke-width="0.93" stroke-miterlimit="10" stroke-linecap="round"/>
<path d="M110.734 50.6731C110.734 50.6731 107.821 51.086 107.343 53.0186" stroke="#3B1534" stroke-width="0.93" stroke-miterlimit="10" stroke-linecap="round"/>
<path d="M85.3667 77.9941L95.898 82.3819L106.431 77.9941" stroke="#3B1534" stroke-width="0.93" stroke-miterlimit="10" stroke-linecap="round"/>
<path d="M37.1071 140.004C31.4843 147.044 27.0073 157.973 33.4187 164.928C33.4838 164.978 33.5768 165.051 33.6903 165.134C35.3078 166.319 37.1604 167.144 39.1234 167.552C40.8732 167.937 42.6754 168.024 44.4541 167.809C48.6875 167.305 52.2233 165.518 54.991 162.259C56.6278 160.332 57.874 158.137 59.2802 156.052L66.1436 145.887L71.1433 138.483L49.5022 124.49L37.1071 140.004Z" fill="#77C8D6"/>
<path d="M156.224 140.003L143.861 124.526L122.253 138.587L127.181 145.886L134.044 156.053C135.45 158.138 136.698 160.331 138.333 162.26C141.101 165.518 144.637 167.306 148.872 167.81C150.652 168.026 152.455 167.939 154.206 167.553C156.17 167.145 158.022 166.321 159.639 165.135C159.753 165.052 159.846 164.979 159.911 164.929C166.324 157.972 161.849 147.043 156.224 140.003Z" fill="#77C8D6"/>
<path d="M143.859 124.526L161.221 146.223" stroke="#3B1534" stroke-width="0.93" stroke-miterlimit="10" stroke-linecap="round"/>
<path d="M56.3936 120.473C59.0236 114.318 60.9506 108.844 63.1007 102.753L63.2067 102.452C63.2067 102.452 63.9842 100.22 65.3848 101.522C65.3848 101.522 66.5826 102.413 65.4499 109.203C65.4127 109.427 65.3662 109.65 65.3141 109.871C65.1411 110.615 64.745 112.577 65.2583 112.86C65.2583 112.86 66.5603 114.547 72.1682 109.674L78.5703 104.325C78.5703 104.325 80.8023 102.318 82.1694 103.305C82.1694 103.305 82.839 103.752 82.7423 104.388C83.5347 103.612 84.4535 102.373 85.4895 101.953C87.1877 101.263 88.1531 103.276 87.6471 104.611C87.7383 104.373 88.4302 104.276 88.6236 104.28C89.4997 104.3 89.9461 105.111 89.9796 105.904C89.9856 106.559 89.8722 107.21 89.6448 107.825C89.5276 108.167 88.4767 110.678 88.1568 110.598C88.1568 110.598 90.2028 111.108 88.1252 114.452C85.9006 117.668 82.9977 120.356 79.6212 122.328L78.349 123.029C75.3339 124.688 73.1894 126.818 70.2171 129.507L56.3936 120.473Z" fill="#E5B4AC"/>
<path d="M82.7438 104.395C82.7438 104.395 80.2607 109.874 75.0415 112.608" stroke="#3B1534" stroke-width="0.93" stroke-miterlimit="10" stroke-linecap="round"/>
<path d="M87.6491 104.618C87.6491 104.618 85.2032 112.999 77.832 115.83" stroke="#3B1534" stroke-width="0.93" stroke-miterlimit="10" stroke-linecap="round"/>
<path d="M88.3995 110.465C88.3995 110.465 84.5642 116.807 79.6333 118.911" stroke="#3B1534" stroke-width="0.93" stroke-miterlimit="10" stroke-linecap="round"/>
<path d="M93.0725 52.1537L70.3284 56.1862L69.9397 66.0442C69.8979 67.0912 70.0899 68.1344 70.5017 69.098C70.9136 70.0615 71.535 70.9212 72.3207 71.6144C73.1065 72.3077 74.0368 72.8172 75.0442 73.1059C76.0515 73.3946 77.1105 73.4552 78.1442 73.2833L85.1898 71.6093L94.1681 64.7273C94.2741 64.6467 94.359 64.5418 94.4157 64.4213C94.4724 64.3008 94.4991 64.1684 94.4936 64.0354L94.049 52.933C94.0432 52.815 94.0123 52.6996 93.9584 52.5945C93.9045 52.4893 93.8289 52.3968 93.7366 52.3231C93.6442 52.2494 93.5373 52.1962 93.4228 52.167C93.3083 52.1378 93.1889 52.1332 93.0725 52.1537Z" fill="#F2EADA"/>
<path d="M70.5581 60.8128L86.1579 57.9558" stroke="#77C8D6" stroke-width="0.93" stroke-miterlimit="10" stroke-linecap="round"/>
<path d="M70.3291 66.042L80.1462 64.0146" stroke="#77C8D6" stroke-width="0.93" stroke-miterlimit="10" stroke-linecap="round"/>
<path d="M52.9142 120.219L49.5029 124.497L71.1515 138.49C72.0666 137.132 72.9823 135.776 73.8987 134.421C74.0486 134.198 74.1532 133.949 74.2063 133.686C74.2594 133.423 74.2601 133.152 74.2082 132.889C74.1564 132.626 74.053 132.376 73.9041 132.153C73.7553 131.93 73.5638 131.738 73.3407 131.59C69.3528 128.935 59.4614 122.355 55.6298 119.803C55.207 119.52 54.6937 119.406 54.1909 119.483C53.6882 119.56 53.2327 119.823 52.9142 120.219Z" fill="#F2EADA"/>
<path d="M55.4343 125.565C56.0999 125.565 56.6396 125.025 56.6396 124.36C56.6396 123.694 56.0999 123.155 55.4343 123.155C54.7686 123.155 54.229 123.694 54.229 124.36C54.229 125.025 54.7686 125.565 55.4343 125.565Z" fill="#77C8D6"/>
<path d="M49.5026 124.49L34.1743 144.25" stroke="#3B1534" stroke-width="0.93" stroke-miterlimit="10" stroke-linecap="round"/>
</svg>
