<svg width="31" height="22" viewBox="0 0 31 22" fill="none" xmlns="http://www.w3.org/2000/svg">
<path d="M16.2685 20.7188L10.4141 20.6094C8.51864 20.5713 6.61842 20.6474 4.76008 20.2524C1.93312 19.6622 1.73285 16.7685 1.52329 14.3412C1.23453 10.9287 1.34631 7.45427 1.89124 4.07028C2.19886 2.17151 3.4095 1.03849 5.2817 0.915201C11.6018 0.467752 17.9639 0.520779 24.2699 0.72953C24.9359 0.748667 25.6065 0.853262 26.2632 0.972319C29.5049 1.55299 29.5839 4.83224 29.794 7.59275C30.0036 10.3818 29.9151 13.1851 29.5146 15.9551C29.1932 18.2486 28.5784 20.1719 25.9837 20.3575C22.7328 20.6003 19.5565 20.7958 16.2964 20.7336C16.2965 20.7188 16.2778 20.7188 16.2685 20.7188ZM12.8267 14.9123C15.2766 13.4749 17.6797 12.0614 20.1155 10.6336C17.6611 9.19615 15.2625 7.78266 12.8267 6.35486V14.9123Z" fill="#5528A9"/>
</svg>
